<svg xmlns="http://www.w3.org/2000/svg" xmlns:xlink="http://www.w3.org/1999/xlink" version="1.1" x="0px" y="0px" width="1024px" height="600px" viewBox="0 0 1024 600" enable-background="new 0 0 1024 600" xml:space="preserve" preserveAspectRatio="none">
<defs>
  <filter id="drop-shadow">
    <feGaussianBlur stdDeviation="4" in="SourceAlpha"/>
    <feOffset dx="0" dy="0" result="offsetblur"/>
    <feFlood flood-color="#ADADAD"/>
    <feComposite operator="in" in2="offsetblur"/>
    <feMerge>
      <feMergeNode/>
      <feMergeNode in="SourceGraphic"/>
    </feMerge>
  </filter>
</defs>
<g id="scene" filter="url(#drop-shadow)">
  <g id="mountains">
    <g id="right_mountain">
        <linearGradient id="SVGID_1_" gradientUnits="userSpaceOnUse" x1="494" y1="326" x2="494" y2="523.3">
            <stop offset="0" style="stop-color:#CBCACA"/>
            <stop offset="1" style="stop-color:#959393"/>
        </linearGradient>
        <polyline fill="url(#SVGID_1_)" points="730.8,498.2 463.8,326 257.2,523.3"/>
    </g>
    <g id="middle_mountain">
        <linearGradient id="SVGID_2_" gradientUnits="userSpaceOnUse" x1="292.8" y1="313.2" x2="292.8" y2="459.6">
            <stop offset="0" style="stop-color:#CBCACA"/>
            <stop offset="1" style="stop-color:#959393"/>
        </linearGradient>
        <polyline fill="url(#SVGID_2_)" points="480.3,433.8 286.7,313.2 105.3,459.6"/>
    </g>
    <g id="left_mountain">
        <linearGradient id="SVGID_3_" gradientUnits="userSpaceOnUse" x1="94.6" y1="333.2" x2="94.6" y2="479.5">
            <stop offset="0" style="stop-color:#CBCACA"/>
            <stop offset="1" style="stop-color:#959393"/>
        </linearGradient>
        <polyline fill="url(#SVGID_3_)" points="344,453.8 86.5,333.2 -154.8,479.6"/>
    </g>
    <g id="right_mountain_snow">
        <defs>
            <polyline id="SVGID_4_" points="730.8,498.2 463.8,326 257.2,523.3"/>
        </defs>
        <clipPath id="SVGID_5_">
            <use xlink:href="#SVGID_4_" overflow="visible"/>
        </clipPath>
        <g clip-path="url(#SVGID_5_)">
            <path fill="#E8E8E8" d="M419.059 345.985c-1.625 2.219-0.89 4.9 1.6 6.026l3.488 1.516c2.522 1.1 6.4 0.6 8.54-1.068 l4.367-3.379c2.175-1.684 5.485-1.412 7.4 0.603l2.018 2.174c1.872 2 5 2.1 7 0.215l2.732-2.604 c1.991-1.896 5.42-2.098 7.62-0.447l4.661 3.498c2.2 1.6 5.4 1.3 7.142-0.889l1.39-1.721c1.728-2.14 4.8-2.369 6.827-0.51 l2.988 2.74c2.026 1.9 5.2 1.7 7.005-0.358l1.798-2.023c1.827-2.057 1.863-5.452 0.081-7.547l-36.487-42.883 c-1.782-2.095-4.569-1.993-6.194 0.226L419.059 345.985z"/>
        </g>
    </g>
    <g id="middle_mountain_snow">
        <defs>
            <polyline id="SVGID_6_" points="480.3,433.8 286.7,313.2 105.3,459.6"/>
        </defs>
        <clipPath id="SVGID_7_">
            <use xlink:href="#SVGID_6_" overflow="visible"/>
        </clipPath>
        <g clip-path="url(#SVGID_7_)">
            <path fill="#E8E8E8" d="M241.262 343.57c-1.898 1.989-1.317 4.3 1.3 5.198l7.013 2.338c2.609 0.9 6.7 0.4 9.043-0.972 l7.401-4.395c2.365-1.404 6.034-1.12 8.2 0.632l3.79 3.131c2.12 1.8 5.7 1.9 7.9 0.234l4.926-3.6 c2.221-1.623 5.987-1.827 8.37-0.455l7.834 4.51c2.383 1.4 6 0.9 7.958-0.948l2.75-2.613 c1.994-1.894 5.465-2.149 7.714-0.566l5.322 3.744c2.249 1.6 5.8 1.4 7.873-0.391l3.432-2.963 c2.081-1.798 2.113-4.775 0.071-6.617l-48.573-43.803c-2.043-1.842-5.267-1.721-7.165 0.269L241.262 343.57z"/>
        </g>
    </g>
    <g id="left_mountain_snow">
        <defs>
            <polyline id="SVGID_8_" points="344,453.8 86.5,333.2 -154.8,479.6"/>
        </defs>
        <clipPath id="SVGID_9_">
            <use xlink:href="#SVGID_8_" overflow="visible"/>
        </clipPath>
        <g clip-path="url(#SVGID_9_)">
            <path fill="#E8E8E8" d="M32.503 357.826c-1.811 2.068-1.179 4.5 1.4 5.469l8.767 3.186c2.585 0.9 6.6 0.5 8.897-1.01 l9.22-5.967c2.309-1.494 5.87-1.211 7.9 0.629l5.229 4.709c2.044 1.8 5.5 1.9 7.6 0.23l6.491-5.17 c2.151-1.714 5.817-1.919 8.146-0.457l9.696 6.084c2.329 1.5 5.8 1 7.709-0.938l4.063-4.207 c1.911-1.979 5.259-2.228 7.441-0.554l6.928 5.314c2.182 1.7 5.6 1.5 7.608-0.384l4.83-4.547 c2.003-1.885 2.036-5.004 0.075-6.932l-54.523-53.59c-1.961-1.928-5.048-1.811-6.859 0.257L32.503 357.826z"/>
        </g>
    </g>
</g>
<g id="big_tree">
    <path id="shrub_4_" fill="#1A801A" d="M196.541 142.948c-0.04-0.012-0.076-0.023-0.118-0.035c0.04-0.061 0.079-0.121 0.118-0.182 V142.948z M196.548 142.72c40.702-63.533 5.259-118.978-34.479-124.724c-48.581-7.024-76.724 21.071-64.684 67.6 c-63.32 19.767-49.131 105.523-29.052 113.951C43.418 214.1 39.9 283.5 84 296.188c10.376 3 43.8 2.4 51.583-21.916 c1.084 3.5 4.8 6.8 4.8 6.825s25.089 9.9 44.639-8.013c13.681-12.518 28.178-36.679 12.657-67.719 C217.986 192.7 214 148.4 196.5 142.72z"/>
    <g id="leaves_2_">
        <path fill="#1F9921" d="M91.161 270.309c0 0-6.036 0.105-8.874-6.408c-2.836-6.515-2.062-5.993-2.062-5.993 s8.078-0.561 11 5.823c2.924 6.4 2.8 7.1 2.8 7.075L91.161 270.309z"/>
        <path fill="#1F9921" d="M142.961 154.565c0 0 0.687-4.349 5.726-5.564c5.037-1.214 4.564-0.724 4.564-0.724 s-0.617 5.874-5.574 7.167c-4.957 1.294-5.441 1.143-5.441 1.143L142.961 154.565z"/>
        <path fill="#1F9921" d="M144.09 74.534c0 0 0.687-4.349 5.726-5.564c5.038-1.215 4.565-0.725 4.565-0.725 s-0.618 5.874-5.574 7.167c-4.956 1.294-5.441 1.142-5.441 1.142L144.09 74.534z"/>
        <path fill="#1F9921" d="M143.162 155.123c0 0 3.899-2.044 7.9 1.272c3.981 3.3 3.3 3.2 3.3 3.2 s-5.082 3.011-9.078-0.193c-3.996-3.205-4.164-3.684-4.164-3.684L143.162 155.123z"/>
        <path fill="#1F9921" d="M102.707 238.024c0 0-1.072-5.94 4.903-9.786c5.974-3.845 5.583-2.997 5.583-2.997 s1.85 7.883-3.982 11.794c-5.833 3.911-6.53 3.933-6.53 3.933L102.707 238.024z"/>
        <path fill="#1F9921" d="M101.122 239.823c0 0-3.999-0.749-4.988-5.434c-0.989-4.685-0.548-4.235-0.548-4.235 s5.409 0.7 6.5 5.337c1.064 4.6 0.9 5.1 0.9 5.054L101.122 239.823z"/>
        <path fill="#1F9921" d="M158.672 235.333c0 0-1.701-3.041-0.851-6.348c0.851-3.307 4.535-7.369 4.535-7.369 s3.401 5.1 2.6 8.691C164.058 233.9 158.7 235.3 158.7 235.333z"/>
        <path fill="#1F9921" d="M93.025 270.635c0 0-1.689-1.909-1.596-4.405c0.093-2.496 2.093-5.973 2.093-5.973 s3.226 3.1 3.2 5.815C96.65 268.8 93 270.6 93 270.635z"/>
        <path fill="#1F9921" d="M155.668 246.627c0 0 0.233-1.745 1.579-2.825c1.346-1.08 4.067-1.606 4.067-1.606 s-0.17 3.094-1.602 4.288C158.281 247.7 155.7 246.6 155.7 246.627z"/>
        <path fill="#1F9921" d="M155.43 246.433c0 0 1.581-0.772 3.226-0.249c1.645 0.5 3.6 2.5 3.6 2.497s-2.67 1.57-4.458 1 C156 249.2 155.4 246.4 155.4 246.433z"/>
        <path fill="#1F9921" d="M106.11 132.292c0 0-3.292 0.247-5.795-1.805c-2.502-2.051-4.522-6.841-4.522-6.841 s5.744-0.885 8.5 1.281C107.03 127.1 106.1 132.3 106.1 132.292z"/>
        <path fill="#1F9921" d="M164.227 94.601c0 0 0.249-3.292 2.651-5.461c2.402-2.166 7.441-3.447 7.441-3.447 s0.016 5.812-2.535 8.203C169.233 96.3 164.2 94.6 164.2 94.601z"/>
        <path fill="#1F9921" d="M162.704 94.388c0 0-3.887-2.621-0.953-6.672c2.934-4.051 5.587-4.182 5.587-4.182 s0.923 2.7 0.7 5.504C167.669 94.3 162.7 94.4 162.7 94.388z"/>
        <path fill="#1F9921" d="M105.847 132.804c0 0-2.028-2.605-1.705-5.825c0.323-3.218 3.194-7.553 3.194-7.553 s3.917 4.3 3.6 7.779C110.687 130.7 105.8 132.8 105.8 132.804z"/>
        <path fill="#1F9921" d="M115.963 164.613c0 0-2.336 1.249-4.836 0.556c-2.501-0.692-5.537-3.552-5.537-3.552 s3.925-2.512 6.643-1.815C114.949 160.5 116 164.6 116 164.613z"/>
        <path fill="#1F9921" d="M143.619 74.989c0 0-4.865-1.007-5.29-7.054c-0.426-6.046 2.779-11.841 2.779-11.841 s4.275 4.5 5.5 9.448C147.902 70.5 143.6 75 143.6 74.989z"/>
        <path fill="#1F9921" d="M142.254 75.738c0 0-2.438 1.337-4.815-1.083c-2.378-2.421-3.117-6.053-3.117-6.053 s3.468 0.4 5.8 2.014C142.432 72.3 142.3 75.7 142.3 75.738z"/>
        <path fill="#1F9921" d="M161.661 93.663c0 0-2.244 0.713-2.63-3.221c-0.385-3.933 0.485-5.5 0.485-5.5s1.248 1 2.1 2.7 C163.337 90.8 161.7 93.7 161.7 93.663z"/>
    </g>
    <path id="trunk_6_" fill="#654D00" d="M142.749 437.563c0 0-9.958-31.023-11.491-90.392c-1.533-59.367 5.745-62.813 5.745-62.813 s6.128-1.532 13.405-21.449c7.278-19.917 9.192-30.259 9.192-30.259s-7.105 19.916-14.277 29.9 c-7.172 9.96-7.938 8.043-7.938 8.043s3.447-55.919 4.213-79.667c0.766-23.747 3.236-69.325 3.725-70.474 c0.488-1.149 21.554-27.961 21.554-27.961l-3.447-1.914l-18.767 18.767l0.766-42.515l-3.83 8.81l-6.511 109.9 c0 0-9.958-9.192-16.853-26.427c-6.894-17.236-14.555-32.556-14.555-32.556v1.916c0 0 2.3 13 8.8 29.5 c6.511 16.5 22.8 42.9 22.8 42.898s-9.383 82.731-12.065 114.904c-2.681 32.174-2.298 43.28-2.298 43.28L101 275.2 l2.298-33.704l-0.383-5.363l-6.128 35.238l-5.362-3.065c0 0 1.8 2 3.4 9.192c2.717 11.9 16.5 71.2 21.8 96.1 c5.362 24.9 2.3 64.1 2.3 64.061s1.338-0.336 10.959-0.098C138.792 437.8 142.7 437.6 142.7 437.563z"/>
</g>
<g id="ground">
    <g id="dirt_2_">
        <path fill="#604F3F" d="M0 422.439c2 0.4 190.8 16.7 266.8 12.847c75.915-3.807 400.583-20.49 497.249-16.13 c96.666 4.4 260 3.3 260 3.283v178.374H0V422.439z"/>
    </g>
</g>
<g id="fox_and_hole">
    <path id="foxhole" fill="#4C2B0F" d="M158.268 436.057c0 0-56.134 25.005-56.134 54.839c0 50.5 57.8 61.3 131.6 61.3 c18.332 0 88.2 4.7 88.203-9.667c0-9.357 2.188-64.666-38.625-66c-38.285-1.251-56.042 19.417-57.042 48.2 c-0.4 11.495-17.708 7.811-33.958 6.5c-16.25-1.31-68.564-3.218-68.564-39.667c0-21 59.686-51.582 59.686-51.582L158.268 436.057z"/>
    <path id="foxhole_opening" fill="#2D1809" d="M157.867 436.016l28.633 1.005c0 0-2.75 5.184-13 5.3 C163.25 442.5 157.9 436 157.9 436.016z"/>
    <g id="foxhole_ground">
        <defs>
            <path id="SVGID_10_" d="M158.143 436.016c0 0-56.134 25.005-56.134 54.839c0 50.5 57.8 61.3 131.6 61.3 c18.332 0 88.2 4.7 88.203-9.667c0-9.357 2.188-64.666-38.625-66c-38.285-1.251-56.042 19.417-57.042 48.2 c-0.4 11.495-17.708 7.81-33.958 6.5s-68.564-3.218-68.564-39.667c0-21 59.686-51.582 59.686-51.582L158.143 436.016z"/>
        </defs>
        <clipPath id="SVGID_11_">
            <use xlink:href="#SVGID_10_" overflow="visible"/>
        </clipPath>
        <path clip-path="url(#SVGID_11_)" fill="#663D1F" d="M323.648 542.938c0-8.236-41.339-10.744-52.839-10.744 c-59.833 0-26.642 17.161-71.809 17.161c-18.856 0-23.125 1.083-59.5-4.292c0.75 0.2 106.6 20 116.3 20.2 S323.648 562.3 323.6 542.938z"/>
    </g>
    <g id="fox">
        <path fill="#B8681A" d="M280.898 505.195c0 0 8 1.8 11 3.721c2.978 1.9 5.7 3.6 8.4 7.9 c3.417 5.5 0.7 29.2 0.7 29.178l-62.971-1.346c0 0-1.435-6.875 5.072-7.87c6.508-0.994 27.7 0 28.3 0 c0.588-0.042-4.815-3.676-7.132-6.877c-2.316-3.202-5.165-8.917-5.955-11.494c-0.707-2.298-2.428-9.099 6.065-12.17 C272.807 503.1 280.9 505.2 280.9 505.195z"/>
        <path fill="#C68965" d="M280.306 526.134c3.418-0.864 9.7 1.8 12.5 4.932c2.757 3.1 6.1 14.9 6.1 14.9 l-37.72-0.85c0 0-1.492-3.074 2.123-3.363c3.616-0.287 13.542-0.403 13.542-0.403s-3.914-8.069-2.709-10.525 C275.455 528 276.9 527 280.3 526.134z"/>
        <polygon fill="#C68965" points="268.2,528 260.8,536.4 265.5,536.4 269.9,529.2"/>
        <path fill="#602200" d="M252.232 508.352c-0.191 12.4 4.3 14.6 6 15.642c1.925 1.1 7 3.9 12.5 0.1 c5.535-3.766 5.926-12.355 6.1-16.874c0.175-4.518-6.463-6.465-6.463-6.465l-11.398 0.1 C259.048 500.9 252.3 502.7 252.2 508.352z"/>
        <path fill="#B8681A" d="M260.088 505.306c0 0 0.053-0.676-0.363-2.185c-0.416-1.509-1.405-3.384-3.591-6.35 c-2.186-2.966-3.227-1.562-4.371 3.591c-1.146 5.2 0.8 6.4 1 6.401c0 0-0.833 5.4 1.1 9.5 c1.925 4.1 6.4 8.5 10.8 7.755c4.371-0.729 9.159-1.979 10.303-8.327c1.145-6.35 1.978-8.743 1.978-8.743 s1.769-0.988 2.393-4.319c0.626-3.329 0.678-4.215 0-5.983c-0.676-1.77-1.351-1.874-3.328-0.572 c-1.979 1.3-4.685 3.903-5.31 5.517c-0.624 1.613-0.781 3.746-0.781 3.7"/>
        <path fill="none" stroke="#443200" stroke-miterlimit="10" d="M255.613 505.515c0-0.156-0.727-1.822-0.52-3.122 c0.208-1.302 0.729-1.458 0.885-0.261c0.156 1.2 0.4 3.4 0.4 3.4"/>
        <path fill="none" stroke="#443200" stroke-miterlimit="10" d="M272.942 504.89c0 0 1.016-2.634 1.719-3.175 c0.817-0.63 1.456-0.52 0.8 0.417c-0.623 0.937-1.717 3.383-1.717 3.4"/>
        <path fill="#DEBDAA" d="M269.04 520.97l-0.47-1.042v-4.162l5.771 5.204c0 0-2.922 6.193-9.395 5.6 c-6.472-0.572-11.052-5.621-11.052-5.621l2.238-1.978l3.539-3.175"/>
        <path fill="#C68965" d="M256.394 511.395c0.312 0.2 3.3 4.4 3.3 4.423l0.624 5.465h8.273v-5.517l3.435-4.371"/>
        <path fill="#EBEEE8" d="M264.928 523.988c-1.814 0.108-4.215-1.04-4.579-1.874c-0.365-0.832-0.156-2.705 1.302-2.238 c1.456 0.5 1.3 1.3 1.9 2.023c0.675 0.9 1.5 1 2.4 0.788c0.937-0.209 0.468-2.854 1.926-2.884 c1.458-0.032 1.6 1.2 1.6 2.096C269.408 524.1 264.9 524 264.9 523.988z"/>
        <path fill="#15131D" d="M264.479 519.577c1.464-0.104 2.3 0.6 2.4 1.924c0.077 1.286-0.939 1.347-2.161 1.5 c-1.223 0.136-1.898-0.532-2.003-1.707C262.612 520.1 264.5 519.6 264.5 519.577z"/>
        <path fill="#A0979E" d="M261.798 523.268c0 0 0.3 1.5 2.4 1.502c2.135 0 1.6 0.2 2.4 0 c0.833-0.156 1.452-1.502 1.452-1.502s-2.419 0.74-3.169 0.721C264.178 524 261.8 523.3 261.8 523.268z"/>
        <line fill="none" stroke="#443200" stroke-miterlimit="10" x1="257.7" y1="510.2" x2="261.8" y2="510.2"/>
        <line fill="none" stroke="#443200" stroke-miterlimit="10" x1="267.3" y1="510.2" x2="270.8" y2="510.2"/>
        <path fill="#15131D" d="M259.048 510.197c0.052 0-0.06 0.8 0.7 0.886c0.784 0.1 1.148-0.886 1.148-0.886H259.048z"/>
        <path fill="#15131D" d="M268.103 510.197c0.052 0-0.06 0.8 0.7 0.886c0.784 0.1 1.148-0.886 1.148-0.886H268.103z"/>
    </g>
</g>
<g id="stones">
    <g id="stone5_2_">
        <path fill="#654D00" d="M922.465 425.397c-3.928-1.118-5.46-1.101-4.606-4.27c0.852-3.171 2.189-2.828 2.189-2.828 s1.906 4.7 4.1 5.189c2.218 0.4 3.2 0.9 3.2 0.896S925.362 426.2 922.5 425.397z"/>
        <path fill="#8E6500" d="M920.048 418.299c3.613-0.853 3.954-1.364 7.4 0c3.413 1.4 4.1 4.9 0 6.1 c-4.069 1.19-4.777-1.055-6.142-2.12C919.907 421.2 920 418.3 920 418.299z"/>
    </g>
    <g id="stone4_2_">
        <path fill="#654D00" d="M876.427 426.705c0.889-4.229 1.693-4.388-1.251-7.023c-2.946-2.637-5.597-4.876-6.807-6.083 c-1.211-1.207-1.461 2.526-1.814 4.567c-0.351 2.039-0.975 3.3 0.6 4.538C868.646 423.9 876.2 427.8 876.4 426.705z"/>
        <path fill="#443200" d="M862.906 426.022c1.395 0.1 14.1 1.7 13.5 0.683c-0.58-0.976-9.1-5.726-10.247-5.4 C865.031 421.6 862.9 426 862.9 426.022z"/>
        <path fill="#8E6500" d="M867.741 413.349c-1.7 0.801-6.613 7.078-6.928 8.558c-0.314 1.479-0.29 1.1 0.6 2.5 c0.876 1.4 1 1.6 1.5 1.639c0.533 0 3.141-3.494 3.654-4.72C867.073 420.1 868.7 412.9 867.7 413.349z"/>
    </g>
    <g id="stone3_2_">
        <path fill="#654D00" d="M225.333 439.746c-2.117-0.603-2.943-0.594-2.483-2.303c0.46-1.709 1.18-1.524 1.18-1.524 s1.027 2.6 2.2 2.798c1.196 0.2 1.7 0.5 1.7 0.481S226.894 440.2 225.3 439.746z"/>
        <path fill="#8E6500" d="M224.03 435.919c1.947-0.46 2.131-0.735 4 0c1.839 0.7 2.2 2.6 0 3.3 c-2.193 0.642-2.575-0.567-3.311-1.142C223.954 437.5 224 435.9 224 435.919z"/>
    </g>
    <g id="stone2_2_">
        <path fill="#654D00" d="M198.345 441.824c-1.017-3.196-2.077-3.289 1.922-5.413c4-2.126 7.592-3.938 9.241-4.905 c1.649-0.968 1.8 1.9 2.2 3.421c0.389 1.5 1.2 2.493-0.909 3.489C208.753 439.4 198.6 442.7 198.3 441.824z"/>
        <path fill="#443200" d="M216.273 440.793c-1.85 0.096-18.733 1.8-17.928 1.031c0.806-0.768 12.264-4.717 13.772-4.514 C213.624 437.5 216.3 440.8 216.3 440.793z"/>
        <path fill="#8E6500" d="M210.351 431.292c2.219 0.5 8.5 5.2 8.8 6.276c0.361 1.1 0.3 0.835-0.871 1.9 c-1.213 1.081-1.347 1.258-2.055 1.309c-0.708 0.052-4.028-2.552-4.661-3.469C210.979 436.4 209.2 431 210.4 431.292z"/>
    </g>
    <g id="stone1_2_">
        <path fill="#654D00" d="M111.837 436.419c1.051-5 2.003-5.189-1.48-8.308c-3.485-3.118-6.618-5.768-8.051-7.195 c-1.433-1.428-1.729 2.989-2.146 5.402c-0.416 2.412-1.154 3.9 0.7 5.368C102.632 433.1 111.6 437.7 111.8 436.419z"/>
        <path fill="#443200" d="M95.843 435.612c1.651 0.1 16.7 2 16 0.807c-0.687-1.154-10.764-6.771-12.122-6.389 C98.357 430.4 95.8 435.6 95.8 435.612z"/>
        <path fill="#8E6500" d="M101.562 420.621c-2.01 0.946-7.822 8.372-8.194 10.122c-0.372 1.75-0.342 1.3 0.7 2.9 c1.038 1.6 1.1 1.9 1.8 1.939c0.631 0 3.716-4.133 4.323-5.583C100.773 428.6 102.6 420.1 101.6 420.621z"/>
    </g>
</g>
<g id="man">
    <g id="right_shoe_2_">
        <path id="right_tongue_2_" fill="#73571E" d="M787.787 418.19c-1.229 0.358-0.397 2.741-0.23 3.6 c0.273 1.4 0.7 2.9 1.4 4.155c0.786 1.4 0.2 3.9 2.5 3.853c0.622-0.025 2.014-0.216 2.327-0.882 c0.254-0.541-0.347-1.404-0.514-1.905c-0.518-1.564-0.55-3.143-0.273-4.748c0.207-1.21-0.046-3.286-1.215-3.968 C790.615 417.6 789 417.8 787.8 418.19z"/>
        <path id="right_sole_2_" fill="#B39C6B" d="M786.275 433.473c-0.232-0.752-0.706-2.494-1.687-2.567 c-0.111 0.252-0.237 0.478-0.253 0.748c-0.018 0.308-0.005 0.618-0.018 0.925c-0.016 0.4 0 0.7 0 1 c0.017 0.342-0.096 0.9 0.1 1.153c0.2 0.3 0.5 0.5 0.7 0.805c0.239 0.5 0.3 0.9 0.3 1.4 c-0.002 0.5 0.1 1 0.3 1.374c0.298 0.5 0.6 1.1 1.2 1.384c0.869 0.4 1.7 0.9 2.7 1.1 c0.489 0.1 1 0.1 1.5 0.175c1.248 0.1 2.6 0.2 3.9 0.042c0.455-0.052 0.904-0.088 1.354-0.165 c0.471-0.083 0.935-0.195 1.406-0.286c0.485-0.095 1.021-0.174 1.477-0.382c0.133-0.06 0.302-0.139 0.42-0.22 c0.262-0.181 0.338-0.413 0.343-0.725c0.005-0.475 0.024-0.947-0.119-1.392c-0.033-0.107-0.025-0.323-0.081-0.411 c-0.112-0.179-0.601-0.317-0.791-0.368c-0.379-0.1-0.748 0.203-1.129 0.227c-0.911 0.052-1.848-0.02-2.759-0.063 c-1.297-0.064-2.55-0.353-3.823-0.58c-0.842-0.15-1.912-0.091-2.688-0.482C787.482 435.6 786.6 434.7 786.3 433.473z"/>
        <path id="right_boot_2_" fill="#8A6924" d="M787.618 421.091c-0.003 0.6 0.2 1.4 0.4 1.9 c0.218 0.5 0.4 1 0.7 1.532c0.22 0.4 0.5 0.8 0.7 1.286c0.196 0.5 0.3 0.9 0.5 1.4 c0.182 0.4 0.2 0.8 0.3 1.149c0.104 0.3 0.3 0.4 0.4 0.736c0.062 0.2 0.1 0.5 0.2 0.7 c0.543 0.1 1.846-0.346 2.139-0.393c0.375-0.061-0.071-0.583-0.177-0.924c0.077-0.255 0.064-0.561 0.026-0.842 c-0.117-0.85-0.48-1.584-0.439-2.469c0.023-0.49 0.092-0.976 0.161-1.46c0.122-0.865 0.263-1.741 0.178-2.616 c-0.076-0.791-0.374-1.616-0.72-2.329c-0.134-0.275-0.238-0.563-0.384-0.827c0.323-0.056 0.642-0.146 0.9 0.1 c0.317 0.3 0.5 0.8 0.6 1.167c0.233 0.9 0.1 1.9 0.2 2.814c0.046 0.9 0.3 1.8 0.4 2.7 c0.14 1.3 0.4 2.8 1 4.015c0.157 0.3 0.3 0.7 0.5 0.99c0.307 0.4 0.5 0.9 0.8 1.3 c0.354 0.5 0.7 1 1 1.542c0.251 0.5 0.5 0.9 0.8 1.368c0.176 0.4 0.4 0.6 0.7 0.9 c0.169 0.2 0.3 0.5 0.4 0.748c0.231 0.6 0.3 1.399-0.211 1.933c-0.581 0.643-1.669 0.756-2.467 0.9 c-0.885 0.184-1.726 0.253-2.628 0.298c-1.012 0.05-2.12 0.099-3.121-0.099c-0.654-0.131-1.398-0.283-1.961-0.652 c-0.282-0.186-0.59-0.364-0.847-0.587c-0.228-0.198-0.499-0.388-0.705-0.602c-0.235-0.244-0.313-0.617-0.458-0.913 c-0.157-0.319-0.27-0.641-0.288-0.995c-0.028-0.508 0-1.052-0.13-1.548c-0.211-0.808-1.107-1.125-1.266-1.981 c-0.126-0.692 0.102-1.374 0.162-2.06c0.04-0.449 0.051-0.9 0.097-1.349c0.033-0.327 0.074-0.655 0.096-0.982 c0.046-0.696 0.215-1.37 0.284-2.063c0.081-0.836 0.041-1.68-0.073-2.512c-0.054-0.38-0.138-0.747-0.151-1.129 c-0.016-0.409-0.033-0.819-0.124-1.219c-0.143-0.64-0.328-1.336-0.022-1.964c0.107-0.22 0.293-0.399 0.479-0.557 c-0.099 0.085-0.045 0.575-0.008 0.682c0.091 0.2 0.4 0.3 0.6 0.349c0.479 0.1 1.199-0.104 1.5 0.4 C787.86 419.6 787.6 420.4 787.6 421.091z"/>
        <path id="right_boot_line3_2_" fill="#73571E" d="M788.321 433.147c-0.04 0-0.079-0.004-0.119-0.011 c-0.368-0.061-0.59-0.392-0.804-0.712c-0.137-0.204-0.278-0.416-0.451-0.552c-0.061-0.047-0.127-0.059-0.208-0.04 c-0.155 0.037-0.316 0.189-0.403 0.375c-0.058 0.125-0.205 0.179-0.329 0.121c-0.124-0.058-0.179-0.204-0.121-0.328 c0.149-0.328 0.433-0.577 0.736-0.651c0.225-0.055 0.45-0.007 0.6 0.133c0.236 0.2 0.4 0.4 0.6 0.7 c0.162 0.2 0.3 0.5 0.5 0.5c0.097 0 0.229-0.039 0.396-0.163c0.215-0.161 0.386-0.37 0.566-0.591 c0.128-0.156 0.262-0.319 0.415-0.468l0.041-0.039c0.339-0.331 0.659-0.644 0.816-1.066c0.166-0.451-0.011-0.867-0.215-1.35 c-0.039-0.092-0.077-0.184-0.115-0.276c-0.05-0.127 0.013-0.271 0.14-0.322c0.125-0.051 0.3 0 0.3 0.1 c0.035 0.1 0.1 0.2 0.1 0.265c0.215 0.5 0.5 1.1 0.2 1.716c-0.196 0.528-0.571 0.895-0.937 1.25l-0.04 0 c-0.133 0.13-0.252 0.273-0.377 0.427c-0.192 0.233-0.389 0.475-0.651 0.673C788.743 433.1 788.5 433.1 788.3 433.147z"/>
        <path id="right_boot_line2_2_" fill="#73571E" d="M796.177 431.725c-0.074 0-0.148-0.033-0.196-0.098 c-0.094-0.121-0.22-0.192-0.435-0.244c-0.179-0.044-0.378-0.061-0.587-0.08c-0.432-0.039-0.88-0.079-1.263-0.348 c-0.452-0.319-0.62-0.9-0.77-1.412c-0.078-0.266-0.151-0.517-0.253-0.709c-0.074-0.142-0.102-0.278-0.126-0.399 c-0.015-0.073-0.028-0.146-0.057-0.221c-0.05-0.128 0.015-0.272 0.143-0.321c0.129-0.049 0.3 0 0.3 0.1 c0.038 0.1 0.1 0.2 0.1 0.303c0.021 0.1 0 0.2 0.1 0.264c0.125 0.2 0.2 0.5 0.3 0.8 c0.132 0.5 0.3 0.9 0.6 1.145c0.273 0.2 0.6 0.2 1 0.26c0.218 0 0.4 0 0.7 0.1 c0.221 0.1 0.5 0.1 0.7 0.426c0.083 0.1 0.1 0.265-0.046 0.348C796.283 431.7 796.2 431.7 796.2 431.725z"/>
        <path id="lace6_4_" fill="#B39C6B" d="M789.722 430.553c-0.151 0-0.274-0.122-0.274-0.273c0-0.86 3.178-1.113 3.313-1.124 c1.044-0.078 1.5 0 1.5 0.364c0.023 0.148-0.078 0.288-0.229 0.313c-0.107 0.016-0.212-0.033-0.268-0.119 c-0.553-0.2-3.443 0.272-3.798 0.623C789.963 430.5 789.9 430.6 789.7 430.553z"/>
        <path id="right_boot_line1_2_" fill="#8A6924" d="M792.84 439.584c-0.871 0-1.801-0.091-2.813-0.274 c-1.094-0.197-2.325-0.513-3.176-1.364c-0.763-0.763-1.08-2.001-1.312-2.906c-0.057-0.221-0.091-0.45-0.124-0.673 c-0.043-0.288-0.083-0.563-0.17-0.81c-0.113-0.324-0.501-0.851-0.798-1.083c-0.108-0.084-0.127-0.239-0.042-0.348 c0.083-0.108 0.24-0.127 0.348-0.042c0.368 0.3 0.8 0.9 1 1.309c0.101 0.3 0.1 0.6 0.2 0.9 c0.032 0.2 0.1 0.4 0.1 0.621c0.219 0.8 0.5 2 1.2 2.678c0.754 0.8 1.9 1 2.9 1.2 c1.338 0.2 2.5 0.3 3.6 0.232c0.615-0.05 1.238-0.152 1.841-0.253l0.481-0.079c0.647-0.104 1.247-0.256 1.785-0.452 l0.161-0.058c0.422-0.15 1.129-0.4 1.323-0.729c0.068-0.119 0.221-0.157 0.34-0.088c0.116 0.1 0.2 0.2 0.1 0.3 c-0.285 0.483-1.036 0.751-1.585 0.945l-0.156 0.056c-0.567 0.207-1.199 0.368-1.877 0.477l-0.478 0.1 c-0.612 0.103-1.246 0.207-1.884 0.258C793.462 439.6 793.2 439.6 792.8 439.584z"/>
        <path id="lace5_4_" fill="#B39C6B" d="M789.762 426.759c0.986 0.1 2.7 0.4 3 0.609c0.042 0.1 0.1 0.2 0.2 0.2 c0.15 0 0.273-0.123 0.273-0.274c0-0.38-0.358-0.601-3.712-1.08C789.627 426.4 789.7 426.6 789.8 426.759z"/>
        <path id="lace4_4_" fill="#B39C6B" d="M788.676 426.597c0.063 0 0.127-0.022 0.178-0.066c0.086-0.073 0.114-0.188 0.084-0.288 c0.093-0.185 0.602-0.66 1.144-0.845c0.358-0.123 1.575-0.642 2.318-1.031c0.025-0.228 0.058-0.453 0.091-0.68 c-0.476 0.311-2.152 1.045-2.586 1.192c-0.65 0.222-1.398 0.842-1.508 1.252c-0.053 0.2 0 0.3 0.1 0.4 C788.523 426.6 788.6 426.6 788.7 426.597z"/>
        <path id="lace3_4_" fill="#B39C6B" d="M789.519 428.478c0.017 0 0.033-0.001 0.05-0.004c0.14-0.025 0.235-0.152 0.224-0.291 c0.111-0.371 1.791-1.647 2.624-2.157c-0.039-0.188-0.068-0.378-0.08-0.573c-0.795 0.429-2.256 1.535-2.769 2.1 c-0.254 0.284-0.351 0.497-0.316 0.687C789.274 428.4 789.4 428.5 789.5 428.478z"/>
        <path id="lace2_4_" fill="#B39C6B" d="M790.732 429.227c0.436-0.348 1.35-1.029 2.056-1.504c-0.004-0.046-0.01-0.091-0.016-0.136 c-0.02-0.154-0.052-0.306-0.085-0.454c-1.027 0.673-1.7 1.181-2.183 1.608C790.553 428.8 790.6 429.1 790.7 429.227z"/>
        <path id="lace1_4_" fill="#B39C6B" d="M790.351 428.595c0.819 0.1 2.1 0.4 2.6 0.479c-0.047-0.178-0.121-0.343-0.229-0.59 c-0.682-0.186-1.557-0.333-2.573-0.468c0.019 0.1 0 0.2 0.1 0.321C790.267 428.4 790.3 428.5 790.4 428.595z"/>
    </g>
    <g id="left_shoe_2_">
        <path id="left_tongue_2_" fill="#73571E" d="M772.935 419.183c1.229 0.4 0.4 2.7 0.2 3.6 c-0.274 1.445-0.684 2.862-1.397 4.156c-0.786 1.428-0.214 3.944-2.471 3.854c-0.621-0.024-2.015-0.216-2.327-0.882 c-0.254-0.54 0.347-1.403 0.514-1.906c0.518-1.563 0.55-3.142 0.273-4.748c-0.208-1.208 0.046-3.284 1.215-3.968 C770.106 418.6 771.7 418.8 772.9 419.183z"/>
        <path id="left_sole_2_" fill="#B39C6B" d="M774.446 434.466c0.23-0.752 0.706-2.494 1.686-2.569 c0.111 0.3 0.2 0.5 0.3 0.75c0.018 0.3 0 0.6 0 0.925c0.015 0.361-0.015 0.667-0.034 1 c-0.018 0.3 0.1 0.857-0.107 1.154c-0.202 0.292-0.533 0.475-0.707 0.805c-0.238 0.449-0.338 0.858-0.337 1.4 c0.001 0.451-0.069 0.983-0.282 1.373c-0.297 0.544-0.599 1.1-1.172 1.385c-0.867 0.436-1.728 0.913-2.696 1.1 c-0.489 0.101-1.004 0.127-1.502 0.174c-1.248 0.117-2.607 0.188-3.854 0.044c-0.454-0.054-0.904-0.09-1.354-0.167 c-0.47-0.081-0.935-0.194-1.406-0.286c-0.486-0.095-1.021-0.174-1.477-0.38c-0.133-0.06-0.301-0.14-0.42-0.222 c-0.262-0.179-0.339-0.412-0.342-0.725c-0.006-0.476-0.025-0.946 0.118-1.392c0.033-0.108 0.025-0.323 0.081-0.412 c0.112-0.177 0.602-0.315 0.792-0.367c0.378-0.1 0.7 0.2 1.1 0.225c0.911 0.1 1.848-0.018 2.759-0.062 c1.298-0.063 2.549-0.353 3.822-0.581c0.843-0.149 1.913-0.09 2.688-0.481C773.239 436.6 774.1 435.6 774.4 434.466z"/>
        <path id="left_boot_2_" fill="#8A6924" d="M773.103 422.084c0.003 0.585-0.17 1.351-0.399 1.9 c-0.218 0.509-0.435 1.037-0.681 1.531c-0.22 0.441-0.514 0.828-0.712 1.286c-0.197 0.454-0.316 0.95-0.532 1.4 c-0.181 0.37-0.159 0.766-0.295 1.148c-0.104 0.293-0.268 0.403-0.379 0.736c-0.062 0.187-0.144 0.45-0.169 0.7 c-0.542 0.113-1.844-0.348-2.137-0.395c-0.376-0.06 0.07-0.582 0.176-0.923c-0.077-0.254-0.065-0.56-0.026-0.842 c0.117-0.85 0.481-1.583 0.44-2.469c-0.023-0.489-0.092-0.976-0.161-1.46c-0.121-0.865-0.263-1.74-0.178-2.615 c0.076-0.793 0.374-1.617 0.721-2.331c0.132-0.273 0.237-0.561 0.382-0.825c-0.321-0.058-0.642-0.147-0.906 0.1 c-0.319 0.283-0.49 0.765-0.592 1.166c-0.234 0.918-0.133 1.877-0.179 2.813c-0.046 0.912-0.306 1.801-0.399 2.7 c-0.14 1.333-0.434 2.805-1.017 4.014c-0.158 0.328-0.269 0.69-0.476 0.989c-0.307 0.442-0.53 0.898-0.843 1.3 c-0.354 0.502-0.709 1.004-1.004 1.543c-0.249 0.459-0.527 0.896-0.761 1.367c-0.177 0.354-0.442 0.612-0.675 0.9 c-0.169 0.228-0.303 0.483-0.399 0.749c-0.231 0.634-0.271 1.4 0.2 1.932c0.58 0.6 1.7 0.8 2.5 0.9 c0.883 0.2 1.7 0.3 2.6 0.298c1.013 0.1 2.1 0.1 3.122-0.099c0.654-0.131 1.398-0.283 1.961-0.652 c0.282-0.185 0.591-0.365 0.846-0.586c0.228-0.198 0.501-0.389 0.706-0.602c0.235-0.244 0.311-0.619 0.458-0.915 c0.157-0.317 0.269-0.64 0.287-0.993c0.029-0.509 0.002-1.054 0.131-1.549c0.212-0.807 1.108-1.126 1.266-1.982 c0.126-0.691-0.102-1.374-0.162-2.06c-0.041-0.448-0.052-0.9-0.098-1.35c-0.032-0.326-0.073-0.653-0.095-0.98 c-0.046-0.697-0.216-1.37-0.283-2.063c-0.082-0.837-0.042-1.68 0.072-2.512c0.054-0.38 0.137-0.748 0.151-1.131 c0.015-0.407 0.033-0.818 0.123-1.218c0.144-0.64 0.329-1.337 0.024-1.963c-0.107-0.221-0.293-0.399-0.481-0.557 c0.099 0.1 0 0.6 0 0.682c-0.091 0.246-0.387 0.315-0.625 0.348c-0.479 0.065-1.198-0.102-1.457 0.4 C772.86 420.6 773.1 421.4 773.1 422.084z"/>
        <path id="left_boot_line3_2_" fill="#73571E" d="M772.4 434.138c-0.206 0-0.422-0.087-0.657-0.265 c-0.263-0.198-0.461-0.438-0.652-0.672c-0.126-0.153-0.243-0.299-0.377-0.428l-0.041-0.04c-0.363-0.354-0.74-0.72-0.937-1.249 c-0.234-0.635 0.01-1.208 0.225-1.715c0.036-0.089 0.074-0.177 0.109-0.265c0.05-0.129 0.197-0.191 0.322-0.14 c0.127 0.1 0.2 0.2 0.1 0.322c-0.036 0.091-0.075 0.184-0.114 0.275c-0.205 0.482-0.381 0.899-0.214 1.3 c0.156 0.4 0.5 0.7 0.8 1.066l0.04 0.04c0.153 0.1 0.3 0.3 0.4 0.468c0.181 0.2 0.4 0.4 0.6 0.6 c0.165 0.1 0.3 0.2 0.4 0.162c0.156-0.027 0.31-0.257 0.473-0.499c0.152-0.227 0.324-0.483 0.561-0.667 c0.18-0.141 0.403-0.188 0.629-0.132c0.304 0.1 0.6 0.3 0.7 0.649c0.058 0.1 0 0.272-0.121 0.3 c-0.122 0.058-0.271 0.004-0.329-0.122c-0.086-0.186-0.249-0.337-0.403-0.375c-0.08-0.018-0.146-0.005-0.207 0 c-0.173 0.136-0.315 0.346-0.452 0.552c-0.215 0.318-0.435 0.649-0.805 0.712C772.48 434.1 772.4 434.1 772.4 434.138z"/>
        <path id="left_boot_line2_2_" fill="#73571E" d="M764.544 432.716c-0.052 0-0.104-0.016-0.149-0.051 c-0.109-0.084-0.13-0.239-0.046-0.348c0.21-0.275 0.49-0.372 0.711-0.425c0.215-0.053 0.439-0.072 0.659-0.092 c0.383-0.035 0.747-0.067 1.02-0.26c0.31-0.218 0.447-0.689 0.579-1.145c0.082-0.277 0.165-0.565 0.291-0.804 c0.041-0.077 0.058-0.162 0.077-0.263c0.021-0.1 0.042-0.2 0.081-0.303c0.049-0.128 0.191-0.191 0.32-0.143 c0.129 0.1 0.2 0.2 0.1 0.32c-0.029 0.075-0.043 0.149-0.058 0.223c-0.024 0.121-0.051 0.257-0.126 0.4 c-0.103 0.192-0.176 0.443-0.253 0.709c-0.148 0.513-0.318 1.092-0.769 1.411c-0.383 0.27-0.831 0.31-1.264 0.3 c-0.208 0.019-0.406 0.036-0.586 0.08c-0.215 0.052-0.341 0.122-0.435 0.245C764.692 432.7 764.6 432.7 764.5 432.716z"/>
        <path id="lace7_2_" fill="#B39C6B" d="M771 431.545c0.151 0 0.273-0.123 0.273-0.274c0-0.86-3.178-1.112-3.313-1.123 c-1.043-0.079-1.47 0.022-1.523 0.364c-0.023 0.1 0.1 0.3 0.2 0.311c0.106 0 0.211-0.033 0.268-0.118 c0.552-0.199 3.4 0.3 3.8 0.623C770.759 431.5 770.9 431.5 771 431.545z"/>
        <path id="left_boot_line1_2_" fill="#8A6924" d="M767.882 440.575c-0.313 0-0.621-0.011-0.923-0.035 c-0.637-0.049-1.271-0.154-1.885-0.257l-0.477-0.079c-0.678-0.108-1.31-0.268-1.877-0.476l-0.155-0.056 c-0.549-0.195-1.301-0.462-1.585-0.946c-0.07-0.117-0.03-0.27 0.088-0.339c0.117-0.069 0.271-0.031 0.3 0.1 c0.193 0.3 0.9 0.6 1.3 0.729l0.16 0.058c0.538 0.2 1.1 0.3 1.8 0.451l0.479 0.1 c0.604 0.1 1.2 0.2 1.8 0.252c1.092 0.1 2.3 0 3.61-0.231c1.017-0.183 2.158-0.473 2.912-1.228 c0.666-0.666 0.965-1.828 1.182-2.679c0.05-0.195 0.081-0.402 0.113-0.621c0.045-0.299 0.091-0.61 0.192-0.9 c0.144-0.411 0.593-1.022 0.961-1.31c0.107-0.086 0.264-0.066 0.3 0.042c0.084 0.1 0.1 0.264-0.043 0.3 c-0.296 0.231-0.685 0.757-0.799 1.082c-0.086 0.246-0.126 0.521-0.169 0.811c-0.033 0.222-0.066 0.451-0.124 0.7 c-0.231 0.905-0.549 2.145-1.311 2.906c-0.85 0.852-2.082 1.169-3.175 1.366C769.683 440.5 768.8 440.6 767.9 440.575z"/>
        <path id="lace6_1_" fill="#B39C6B" d="M772.023 425.506c-0.047 0.093-0.096 0.184-0.148 0.273c-1.354 0.167-3.336 0.688-3.701 0.9 c-0.034 0.059-0.091 0.103-0.16 0.123c-0.025 0.008-0.051 0.011-0.075 0.011c-0.119 0-0.228-0.078-0.263-0.198 c-0.027-0.095-0.006-0.196 0.059-0.277c0.287-0.357 2.953-1.009 4.434-1.137C772.12 425.3 772.1 425.4 772 425.506z"/>
        <path id="lace5_1_" fill="#B39C6B" d="M770.96 427.752c-0.986 0.142-2.663 0.404-2.984 0.607c-0.043 0.098-0.139 0.164-0.25 0.2 c-0.151 0-0.274-0.123-0.274-0.274c0-0.379 0.358-0.601 3.713-1.08C771.094 427.4 771 427.6 771 427.752z"/>
        <path id="lace4_1_" fill="#B39C6B" d="M772.045 427.589c-0.063 0-0.126-0.022-0.177-0.066c-0.086-0.074-0.115-0.187-0.084-0.288 c-0.093-0.185-0.603-0.661-1.144-0.846c-0.359-0.122-1.575-0.64-2.317-1.031c-0.026-0.226-0.059-0.452-0.091-0.679 c0.475 0.3 2.2 1 2.6 1.193c0.649 0.2 1.4 0.8 1.5 1.25c0.051 0.19-0.024 0.314-0.073 0.4 C772.198 427.6 772.1 427.6 772 427.589z"/>
        <path id="lace3_1_" fill="#B39C6B" d="M771.203 429.469c-0.018 0-0.033-0.001-0.05-0.004c-0.14-0.023-0.235-0.152-0.224-0.29 c-0.11-0.371-1.79-1.647-2.623-2.157c0.038-0.188 0.067-0.377 0.079-0.573c0.794 0.4 2.3 1.5 2.8 2.1 c0.253 0.3 0.3 0.5 0.3 0.688C771.447 429.4 771.3 429.5 771.2 429.469z"/>
        <path id="lace2_1_" fill="#B39C6B" d="M769.989 430.219c-0.437-0.349-1.35-1.03-2.057-1.505c0.006-0.045 0.011-0.089 0.017-0.135 c0.022-0.154 0.052-0.306 0.085-0.454c1.028 0.7 1.7 1.2 2.2 1.607C770.17 429.8 770.1 430.1 770 430.219z"/>
        <path id="lace1_1_" fill="#B39C6B" d="M770.371 429.587c-0.819 0.113-2.124 0.366-2.607 0.478c0.047-0.179 0.12-0.342 0.229-0.589 c0.682-0.188 1.557-0.335 2.574-0.47c-0.021 0.108-0.047 0.216-0.084 0.322C770.454 429.4 770.4 429.5 770.4 429.587z"/>
    </g>
    <path id="left_arm_2_" fill="#DECBA2" d="M747.088 325.635l-4.615-1.822c0.574-1.451 0.606-3.352 0.641-5.364 c0.073-4.257 0.174-10.087 6.625-13.291l2.206 4.443c-3.575 1.775-3.793 4.417-3.871 8.9 C748.032 320.9 748 323.3 747.1 325.635z"/>
    <path id="neck_2_" fill="#DECBA2" d="M771.994 291.904c1.063 2.4 0.9 3.8 1.5 6.401c0.27 1.2 0.1 9.9 1 10.8 c1.622 1.6 6.1 3 8.2 3.226c3.491 0.3 4.031-9.188 4.496-12.639c0.488-3.622 1.261-5.777 1.354-9.439"/>
    <path id="shirt_2_" fill="#969390" d="M795.242 334.776c-0.242-6.547 0.189-14.102 0.008-20.506 c-0.055-1.939 0.14-4.05 0.202-6.717c0.456 3.4 0.6 6.069-0.097 8.736c-0.487 1.9 6.1 4.4 6.6 2.2 c1.427-5.503 1.068-12.944 0-17.657c-0.445-1.963-1.86-2.544-6.113-3.186c-2.383-0.361-6.174-0.523-7.477-0.732 c-0.494 0.674-0.672 1.456-1.519 2.266c-2.164 2.072-3.053 1.396-4.03 1.768c-0.202 1.617-0.303 3.03-1.146 5.5 c-0.232 0.693-0.809 2.201-1.139 2.657c-0.473-1.914-0.892-2.972-1.25-4.688c-0.134-0.638-0.543-2.356-0.688-3.313 c-0.067-0.447-0.936-0.776-1.374-0.981c-2.449-1.147-3.972-2.828-4.088-3.121c-2.232-0.002-8.07 0.742-10.277 1 c-3.922 0.544-9.641 2.25-13.691 5.493c-2.247 1.8 3 7.5 4.4 6.74c3.1-1.611 5.186-2.844 8.286-2.968 c-0.471 3.434-0.667 12.29-0.386 15.739c0.324 4 0 7.9 0.2 11.925c0.148 3.1 0.7 6.1 0.9 9.2 c0.082 1.1 0.1 2.1 0.1 3.209c-0.693 0.772-1.572 1.158-0.499 1.927c1.191 0.9 4 0.9 5.4 1 c4.472 0.3 9.1 0.1 13.6 0.087c3.561 0 7.449-0.47 10.967-0.045c1.585 0.2 5.8 0.9 4.693-2.19 c-0.92-2.541-0.991-4.656-0.985-7.357C795.788 338.8 795.3 336.8 795.2 334.776z"/>
    <path id="jeans_2_" fill="#4D576B" d="M765.368 423.631c1.147 0.4 10.1 0.2 11.131-0.837 c0.345-3.519 0.78-27.414 1.025-30.652c0.751-9.924 0.876-20.606 2.717-30.364c-0.003-0.122-0.006-0.122-0.008 0 c3.495 7.3 3.3 19.1 3.1 27.004c-0.113 3.8 0.8 31.9 1.2 34.067c1.919 0.4 8.4 0.6 10.662-0.581 c0.217-1.954 0.722-12.061 0.712-14.357c-0.005-1.573 0.708-35.088 0.554-45.849c-0.032-2.247 0.408-4.459 0.646-6.685 c0.127-1.18 0.134-2.35 0.066-3.535c-0.029-0.498-0.133-2.198-0.176-2.488c-0.224-0.022-1.395-0.043-1.716-0.077 c-1.043-0.11-2.094 0.093-3.132 0.163c-2.042 0.137-4.138-0.021-6.193 0.081c-1.849 0.092-3.708 0.002-5.563 0.1 c-1.79 0.086-3.558 0.372-5.352 0.406c-3.789 0.073-7.449 0.288-11.238-0.094c-2.309-0.233-2.496 1.025-2.194 3.3 c0.374 2.8 0.8 5.6 1 8.415C762.743 364.2 764.4 418.5 765.4 423.631z"/>
    <g id="face_2_">
        <path id="head_skin_2_" fill="#E8D4AA" d="M766.17 283.9c0.764 2.8 1.7 7.3 4.6 8.7 c2.049 1 6.1 0.1 8.3 0.02c2.899-0.096 4.4 0.5 7.3 0.459c5.659-0.082 5.973-5.29 7.513-9.885 c0.907-2.707 2.419-5.183 3.399-7.865c0.885-2.428 1.712-6.217 1.174-8.777c-0.167-0.798-0.38-1.205-1.137-1.572 c-2.941-1.42-7.307-0.152-10.241 0.62c-4.485 1.182-9.329 1.336-13.927 1.787c-2.203 0.216-6.092 0.375-8.023 1.6 c-2.049 1.275-0.901 3.932-0.635 5.898C764.971 277.9 765.4 280.9 766.2 283.9z"/>
        <path id="left_eye_socket_2_" fill="#FFF3DB" d="M775.879 270.06c-0.272 1.9 0 3.399-1.931 4.5 c-1.136 0.632-2.812 0.742-3.992 0.135c-1.261-0.647-1.748-2.191-1.813-3.516c-0.01-0.197-0.002-0.392-0.016-0.587"/>
        <path id="right_eye_socket_2_" fill="#FFF3DB" d="M792.11 269.108c-0.271 1.9 0 3.4-1.931 4.5 c-1.135 0.633-2.812 0.742-3.992 0.137c-1.262-0.647-1.747-2.192-1.813-3.517c-0.01-0.196-0.001-0.392-0.016-0.587"/>
        <path id="nose_2_" fill="#CCBA95" d="M781.957 266.412c-0.148 2.671-0.089 5.4 0 8.023c0.068 2 0.9 4.922-0.736 6.5 c-0.604 0.609-1.107 0.913-1.837 0.296c-1.162-0.982-0.646-2.42-0.615-3.73c0.038-1.7-0.203-3.31-0.204-4.978 c0-1.877-0.527-4.588 0.331-6.323"/>
        <g id="left_eye_2_">
            <path id="left_eye_color_2_" fill="#627AB5" d="M773.027 271.478c-0.136-0.935-1.256-1.112-1.965-0.762 c-0.529 0.264-0.517 0.798-0.287 1.279C771.298 273.1 773.2 272.8 773 271.478z"/>
            <path id="left_eye_compound_path_2_" fill="#FFF9EB" d="M771.804 270.551c0.57 0 1.1 0.3 1.2 0.9 c0.114 0.788-0.479 1.205-1.104 1.205c-0.456 0-0.928-0.223-1.148-0.688c-0.229-0.481-0.242-1.016 0.287-1.279 C771.284 270.6 771.5 270.6 771.8 270.6 M771.804 269.558c-0.415 0-0.824 0.094-1.181 0.3 c-0.958 0.474-1.258 1.517-0.743 2.594c0.368 0.8 1.1 1.3 2 1.252c0.648 0 1.247-0.26 1.641-0.714 c0.376-0.434 0.534-1.012 0.445-1.624C773.855 270.3 773 269.6 771.8 269.558L771.804 269.558z"/>
        </g>
        <g id="right_eye_2_">
            <path id="right_eye_color_2_" fill="#627AB5" d="M789.492 270.625c-0.137-0.935-1.257-1.111-1.966-0.761 c-0.528 0.263-0.517 0.799-0.287 1.28C787.762 272.2 789.7 272 789.5 270.625z"/>
            <path id="right_eye_compound_path_2_" fill="#FFF9EB" d="M788.267 269.697c0.571 0 1.1 0.3 1.2 0.9 c0.113 0.789-0.481 1.206-1.104 1.206c-0.456 0-0.928-0.224-1.148-0.687c-0.229-0.481-0.241-1.017 0.287-1.28 C787.748 269.8 788 269.7 788.3 269.7 M788.267 268.705c-0.415 0-0.822 0.094-1.18 0.3 c-0.958 0.475-1.258 1.518-0.744 2.596c0.368 0.8 1.2 1.3 2 1.251c0.649 0 1.247-0.26 1.641-0.714 c0.376-0.434 0.534-1.012 0.445-1.625C790.319 269.4 789.4 268.7 788.3 268.705L788.267 268.705z"/>
        </g>
        <path id="side_nostrils_2_" fill="#CCBA95" d="M781.771 277.699c0.481 0.2 1.9 0.1 2 0.9 c0.152 0.874-1.501 1.108-2.044 1.18c-1.128 0.15-3.73 0.391-4.598-0.722c-1.036-1.328 2.031-1.272 2.612-1.323"/>
        <path id="mouth_2_" fill="#CCBA95" d="M778.979 287.25c-1.699 0-3.519-0.287-4.383-1.912c-0.185-0.347-0.067-0.776 0.266-0.982 c0.333-0.207 0.769-0.118 1 0.202c0.833 1.2 2.4 1.1 4.1 1.118c0.277-0.005 0.55-0.01 0.82-0.009 c0.185-0.002 0.42-0.019 0.651-0.04c0.254-0.023 0.515-0.046 0.782-0.046c0.41 0 0.7 0.3 0.7 0.8 c-0.004 0.408-0.336 0.736-0.744 0.736c-0.009 0-0.021 0-0.033 0c-0.182 0-0.387 0.019-0.604 0 c-0.041 0.004-0.083 0.007-0.124 0.011c-0.076 0.029-0.159 0.046-0.245 0.05c-0.229 0.007-0.474 0.019-0.73 0 C779.974 287.2 779.5 287.2 779 287.25z"/>
        <path id="left_eyebrow_2_" fill="#826F46" d="M774.006 270.502c0.686-0.035 2 0.4 1.951-0.741 c-0.075-0.859-1.21-0.582-1.82-0.521c-1.14 0.113-2.276 0.264-3.424 0.302c-0.538 0.018-1.075-0.007-1.614 0 c-0.273 0.027-0.642 0.043-0.883 0.19c-0.282 0.17-0.191 0.291-0.212 0.594c-0.087 1.2 1.3 0.8 2.1 0.6 C771.361 270.8 772.7 270.6 774 270.502z"/>
        <path id="right_eyebrow_2_" fill="#826F46" d="M785.066 270.116c0.163-0.012 0.321-0.035 0.436-0.04 c0.434-0.022 0.857-0.179 1.289-0.22c0.741-0.072 1.503-0.027 2.241-0.055c0.788-0.029 1.576-0.04 2.361-0.117 c0.21-0.02 0.6 0.1 0.7-0.192c0.063-0.144 0.008-0.579-0.059-0.712c-0.11-0.222-0.395-0.193-0.611-0.215 c-0.619-0.063-1.196 0.023-1.81 0.056c-0.654 0.035-1.318-0.043-1.972-0.061c-0.437-0.011-0.872-0.014-1.308 0 c-0.428 0.02-0.829-0.023-1.256 0.057c-0.177 0.031-0.544 0.018-0.683 0.129c-0.199 0.16-0.143 1.1 0.1 1.3 C784.586 270.1 784.8 270.1 785.1 270.116z"/>
    </g>
    <path id="left_pocket_2_" fill="#373E4D" d="M764.31 358.034c-0.107 0-0.21-0.01-0.306-0.019 c-0.156-0.015-0.306-0.029-0.441 0.002c-0.138 0.029-0.267-0.055-0.297-0.188c-0.029-0.134 0.055-0.268 0.188-0.297 c0.213-0.048 0.415-0.028 0.597-0.012c0.162 0 0.3 0 0.457-0.004c1.635-0.373 1.608-1.777 1.582-3.263 c-0.004-0.162-0.007-0.321-0.008-0.478c0-0.138 0.11-0.25 0.247-0.25c0.001 0 0 0 0 0c0.137 0 0.2 0.1 0.2 0.2 c0.001 0.2 0 0.3 0 0.471c0.028 1.5 0.1 3.294-1.967 3.757C764.512 358 764.4 358 764.3 358.034z"/>
    <g id="helmet_2_">
        <path id="face-shield_2_" display="none" opacity="0.3" fill="#FFFFFF" d="M802.42 262.837c-0.666 1 0.1 3.2 0.3 4.3 c0.216 1.7 0.3 3.5 0.4 5.201c0.154 5.377-0.713 10.373-1.17 15.716c-0.169 1.981-0.188 4.889-1.712 6.4 c-1.363 1.368-4.86 0.816-6.661 0.782c-4.337-0.084-8.693 0.389-13.062 0.353c-3.297-0.027-6.617 0.272-9.91 0.4 c-2.262 0.086-7.732 1.821-9.597 0.097c-1.521-1.408-1.727-6.147-2.077-8.122c-0.327-1.839-0.31-3.773-0.319-5.636 c-0.029-5.396 0.102-10.806-0.014-16.262L802.42 262.837z"/>
        <path id="right_muff_2_" fill="#DEB249" d="M800.899 271.439c-0.268 2.2 0 5.61-3.484 4.6 c-1.149-0.338-0.342-2.988-0.225-3.975c0.24-2.025 0.301-4.117 0.813-6.082c1.029-0.326 2.4-0.504 2.9 0.6 C801.576 268 801.1 269.9 800.9 271.439z"/>
        <g id="right_muff_foam_2_">
            <defs>
                <path id="right_muff_foam_clipping_path_2_" d="M800.899 271.439c-0.268 2.2 0 5.61-3.484 4.6 c-1.149-0.338-0.342-2.988-0.225-3.975c0.24-2.025 0.301-4.117 0.813-6.082c1.029-0.326 2.4-0.504 2.9 0.6 C801.576 268 801.1 269.9 800.9 271.439z"/>
            </defs>
            <clipPath id="right_muff_foam_clipping_path_1_">
                <use xlink:href="#right_muff_foam_clipping_path_2_" overflow="visible"/>
            </clipPath>

                <path id="right_muff_foam_line_2_" clip-path="url(#right_muff_foam_clipping_path_1_)" fill="#8A8A8A" d=" M798.079 265.658c1.214 0.2 0.7 1.7 0.6 2.406c-0.076 0.482-0.121 0.97-0.163 1.457c-0.111 1.287-0.377 2.52-0.545 3.8 c-0.099 0.7 0 1.594-0.337 2.279c-0.126 0.254-0.538 0.871-0.903 0.75c-0.538-0.179-0.221-1.528-0.172-1.889 c0.376-2.821 0.983-5.573 1.065-8.429"/>
        </g>
        <path id="left_muff_2_" fill="#DEB249" d="M761.68 272.869c0.064 2.244-0.517 5.6 3.1 4.9 c1.176-0.232 0.611-2.944 0.584-3.938c-0.056-2.038 0.073-4.127-0.258-6.131c-0.996-0.419-2.345-0.72-2.938 0.3 C761.315 269.4 761.6 271.3 761.7 272.869z"/>
        <g id="left_muff_foam_2_">
            <defs>
                <path id="left_muff_foam_clipping_path_2_" d="M761.68 272.869c0.064 2.244-0.517 5.6 3.1 4.9 c1.176-0.232 0.611-2.944 0.584-3.938c-0.056-2.038 0.073-4.127-0.258-6.131c-0.996-0.419-2.345-0.72-2.938 0.3 C761.315 269.4 761.6 271.3 761.7 272.869z"/>
            </defs>
            <clipPath id="left_muff_foam_clipping_path_1_">
                <use xlink:href="#left_muff_foam_clipping_path_2_" overflow="visible"/>
            </clipPath>

                <path id="left_muff_foam_line_2_" clip-path="url(#left_muff_foam_clipping_path_1_)" fill="#8A8A8A" d=" M765.013 267.367c-1.224 0.047-0.825 1.59-0.774 2.347c0.033 0.5 0 1 0 1.465c-0.006 1.3 0.1 2.5 0.2 3.8 c0.03 0.751-0.148 1.6 0.1 2.3c0.102 0.3 0.5 0.9 0.8 0.83c0.551-0.129 0.357-1.503 0.343-1.866 c-0.12-2.843-0.476-5.639-0.297-8.489"/>
        </g>
        <path id="helmet_top_2_" fill="#E8E23C" d="M781.851 264.722c-3.69 0.901-7.339 1.925-11.086 2.6 c-2.95 0.511-7.984 1.538-10.844 0.384c-2.507-1.016-1.653-3.084 0.931-2.69c0.748-5.096 0.81-5.249 1.403-10.291 c0.315-2.687 0.738-5.434 1.741-7.965c3.991-10.073 16.801-11.985 25.542-7.179c8.941 4.9 11.2 11.2 11.8 20.8 c1.48 0.2 1.8 1.2 1.1 2.252c-1.157 1.886-4.871 1.364-6.773 1.588C791.214 264.8 786.2 263.7 781.9 264.722z"/>
        <path id="helmet_rim_2_" fill="#E3E3E3" d="M802.785 263.994c0.022 0.323-0.088 0.69-0.323 1.1 c-1.157 1.886-4.871 1.365-6.773 1.588c-4.471 0.525-9.478-0.58-13.835 0.483c-3.689 0.9-7.337 1.925-11.085 2.6 c-2.95 0.511-7.985 1.537-10.844 0.383c-1.025-0.416-1.488-1.008-1.501-1.534c-0.017-0.762 0-0.621 0-2.469 c0.019 0.5 0.5 1.1 1.5 1.522c2.858 1.2 7.9 0.1 10.844-0.383c3.748-0.648 7.396-1.673 11.085-2.573 c4.357-1.063 9.4 0 13.835-0.483c1.902-0.224 5.6 0.3 6.773-1.589c0.226-0.369 0.337-0.722 0.325-1.034 C802.787 263.5 802.7 263.4 802.8 263.994z"/>
        <g id="helmet_line2_2_">
            <defs>
                <path id="helmet_line2_clipping_path_2_" d="M781.851 264.722c-3.69 0.901-7.339 1.925-11.086 2.6 c-2.95 0.511-7.984 1.538-10.844 0.384c-2.507-1.016-1.653-3.084 0.931-2.69c0.748-5.096 0.81-5.249 1.403-10.291 c0.315-2.687 0.738-5.434 1.741-7.965c3.991-10.073 16.801-11.985 25.542-7.179c8.941 4.9 11.2 11.2 11.8 20.8 c1.48 0.2 1.8 1.2 1.1 2.252c-1.157 1.886-4.871 1.364-6.773 1.588C791.214 264.8 786.2 263.7 781.9 264.722z"/>
            </defs>
            <clipPath id="helmet_line2_clipping_path_1_">
                <use xlink:href="#helmet_line2_clipping_path_2_" overflow="visible"/>
            </clipPath>
            <path id="helmet_line2_line_2_" clip-path="url(#helmet_line2_clipping_path_1_)" fill="#D4CF37" d=" M773.55 248.294c-0.004-0.571 0.011-1.143 0.06-1.707c0.251-2.897 1.003-4.787 1.562-7.646c0.121-0.62 0.156-1.777 0.679-2.174 c0.442-0.334 1.942-0.289 2.513-0.382c1.817-0.296 4.087-0.591 5.9 0.003c-0.273 4.85-1.24 6.127-1.123 11.1 c0.066 2.771-0.088 3.84-0.121 6.648c-0.006 0.6 0.3 2.27-0.063 2.785c-0.474 0.598-1.444 0.247-2.093 0.3 c-1.538 0.048-5.018 1.067-6.386 0.313c-1.111-0.612-0.764-2.408-0.762-3.453c0.004-2.824 0.067-0.681-0.063-3.502 C773.592 249.8 773.6 249 773.5 248.294z"/>
        </g>
        <path id="helmet_line1_2_" fill="#D4CF37" d="M764.551 266.094c-0.834 0-1.663-0.108-2.479-0.399 c-0.13-0.046-0.196-0.188-0.15-0.316c0.046-0.129 0.188-0.196 0.317-0.15c1.925 0.7 4 0.3 6-0.115 c0.328-0.065 0.656-0.13 0.981-0.189c1.66-0.304 3.347-0.689 4.979-1.065c3.271-0.749 6.655-1.526 10.077-1.695 c1.097-0.054 2.204-0.083 3.274-0.112c2.076-0.055 4.222-0.111 6.343-0.355c0.464-0.054 0.962-0.078 1.49-0.104 c1.533-0.077 3.272-0.163 4.316-1.034c0.104-0.088 0.26-0.074 0.3 0.031c0.088 0.1 0.1 0.263-0.032 0.4 c-1.172 0.977-2.998 1.067-4.608 1.146c-0.519 0.026-1.011 0.05-1.459 0.103c-2.142 0.246-4.299 0.303-6.385 0.4 c-1.067 0.027-2.172 0.058-3.264 0.111c-3.377 0.168-6.74 0.939-9.991 1.685c-1.637 0.375-3.329 0.763-5 1.1 c-0.322 0.059-0.648 0.123-0.975 0.186C767.086 265.8 765.8 266.1 764.6 266.094z"/>
    </g>
    <path id="collar_2_" fill="#EBE7E3" d="M787.741 296.788c-0.326 0.563-0.582 1.582-1.057 2.09c-0.66 0.71-1.652 1.406-2.589 1.7 c-0.65 0.194-1.356 0.134-2.011 0.282c-0.324 2.15-1.369 4.741-1.679 7.104c-0.07 0.017-1.239-5.565-1.876-7.333 c-1.146-0.589-3.25-1.583-3.958-2.178c-0.36-0.303-1.065-0.86-1.305-1.471c-0.114 0.016-0.259 0.018-0.42 0 c0.234 0.4 0.9 1.3 1.6 1.787c0.63 0.5 2.7 1.6 3.8 2.109c0.403 1.2 1 4.5 2 7.5 c-0.083 0.372-0.518 3.772-0.621 4.206c0.295 0.1 1.1 0.1 1.3 0.025c0.666-3.116 1.721-8.572 2.433-11.626 c2.744-0.436 4.109-2.094 4.758-4.127C787.926 296.8 787.9 296.8 787.7 296.788z"/>
    <g id="left_arm_cuff_2_">
        <path id="left_arm_cuff_roll_2_" fill="#EBE7E3" d="M753.94 309.519c-0.226-0.93-1.166-1.941-1.747-2.6 c-0.877-0.997-1.216-1.914-2.346-2.955c-0.456-0.422-0.877-0.523-1.448-0.163c-0.442 0.281-0.636 0.612-0.605 1.3 c-0.866-0.021-1.831 0.56-1.327 1.588c0.662 1.4 2.7 4.6 4 5.324c1.029 0.6 1.6 1 2.189-0.506 C753.822 311.1 754.2 310.6 753.9 309.519z"/>
        <path id="left_arm_cuff_pleat_2_" fill="#D6D3CF" d="M751.551 310.81c-0.026 0-0.053-0.008-0.075-0.024 c-1.045-0.783-1.783-1.91-2.496-3.001c-0.322-0.492-0.655-1.001-1.009-1.464c-0.041-0.055-0.032-0.133 0.023-0.175 c0.054-0.04 0.133-0.03 0.2 0.024c0.359 0.5 0.7 1 1 1.478c0.702 1.1 1.4 2.2 2.4 2.9 c0.054 0 0.1 0.1 0 0.173C751.626 310.8 751.6 310.8 751.6 310.81z"/>
    </g>
    <path id="right_thumb_2_" fill="#B38F3B" d="M774.106 340.358c-0.11-0.02-0.197-0.094-0.312-0.102 c-0.226-0.014-0.549 0.143-0.724 0.272c-0.084 0.061-0.19 0.152-0.229 0.247c0.214 0.1 0.4 0.2 0.6 0.3 c0.451 0.2 0.98-0.149 1.304-0.444c0.265-0.241 0.068-0.408-0.225-0.296c-0.117 0.046-0.256 0.09-0.385 0.1 C774.118 340.4 774.1 340.4 774.1 340.358z"/>
    <path id="right_arm_2_" fill="#DECBA2" d="M778.501 344.284l-4.402-2.287c2.292-4.415 5.958-6.94 9.505-9.384 c4.678-3.224 9.514-6.557 12.248-14.732l4.704 1.572c-3.257 9.748-9.038 13.732-14.139 17.2 C783.095 339 780.2 341 778.5 344.284z"/>
    <path id="belt_2_" fill="#8A6924" d="M761.855 352.731l-0.063-1.983c0.773-0.024 1.547-0.046 2.32-0.072 c2.235-0.075 4.454-0.126 6.688-0.27c1.688-0.108 3.365-0.054 5.05-0.196c1.072-0.091 2.148-0.135 3.225-0.128 c3.958 0 7.924-0.241 11.889-0.244c2.008-0.002 4.03-0.153 6.038-0.216c0.123-0.003 0.2 1.1 0.2 1.2 c0.011 0.2 0.1 0.538-0.023 0.677c-0.138 0.232-0.926 0.129-1.172 0.139c-0.876 0.031-1.752 0.055-2.629 0.1 c-1.285 0.04-2.572 0.082-3.856 0.123c-1.533 0.05-3.065 0.101-4.597 0.148c-1.683 0.054-3.363 0.106-5.046 0.2 c-1.693 0.055-3.388 0.108-5.082 0.163c-1.565 0.05-3.127 0.1-4.691 0.15c-1.327 0.042-2.653 0.084-3.981 0.1 c-0.963 0.031-1.925 0.061-2.888 0.093c-0.411 0.013-0.823 0.026-1.235 0.038C761.975 352.7 761.9 352.7 761.9 352.731z"/>
    <path id="belt_buckle_2_" fill="#4D473C" d="M780.691 352.541c-0.351 0-0.701-0.027-1.004-0.052 c-0.16-0.013-0.308-0.025-0.43-0.029c-0.083-0.005-0.217 0.004-0.375 0.012c-0.724 0.036-1.254 0.046-1.486-0.184 c-0.211-0.208-0.212-0.651-0.19-1.257c0.005-0.133 0.01-0.246 0.005-0.314c-0.026-0.346 0.045-0.602 0.218-0.788 c0.3-0.322 0.804-0.319 1.394-0.319c0.205 0 0.398-0.002 0.594-0.004c0.426-0.006 0.868-0.012 1.3 0 c0.158 0 0.337-0.008 0.528-0.027c0.309-0.032 0.626-0.065 0.9 0.018c0.296 0.1 0.5 0.2 0.4 0.6 c-0.01 0.039-0.023 0.089-0.026 0.151c-0.001 0 0 0.1 0 0.181c0.021 0.1 0 0.3 0 0.4 c0.002 0 0 0 0 0.018c0.033 0.3 0.1 0.546-0.085 0.871C782.236 352.4 781.5 352.5 780.7 352.541z M779.219 351.963c0.022 0 0 0 0.1 0.001c0.128 0 0.3 0 0.4 0.031c0.775 0.1 2.1 0.2 2.319-0.398 c0.048-0.109 0.066-0.215 0.068-0.33c-0.092 0.008-0.196 0.009-0.31 0.009c-0.039 0-0.072-0.001-0.093 0 c-0.299 0.016-0.597 0.012-0.893 0.009c-0.134-0.002-0.266-0.005-0.398-0.005c-0.138 0-0.248-0.11-0.248-0.248 c0-0.137 0.11-0.248 0.248-0.248c0.136 0 0.3 0 0.4 0.004c0.287 0 0.6 0 0.86-0.007 c0.027-0.001 0.068-0.001 0.12-0.001c0.059 0 0.2 0 0.281-0.009c-0.005-0.061-0.017-0.136-0.024-0.186 c-0.017-0.112-0.031-0.209-0.026-0.291c0.005-0.074 0.018-0.137 0.029-0.19c-0.011-0.003-0.023-0.007-0.037-0.011 c-0.2-0.058-0.47-0.03-0.729-0.003c-0.204 0.021-0.414 0.042-0.615 0.029c-0.415-0.03-0.847-0.023-1.263-0.018 c-0.197 0.002-0.395 0.004-0.592 0.004c-0.458 0.002-0.886-0.003-1.039 0.161c-0.071 0.078-0.101 0.217-0.086 0.4 c0.006 0.1 0 0.214-0.004 0.368c-0.008 0.234-0.026 0.8 0.1 0.895c0.127 0.1 0.8 0 1.1 0 C779 352 779.1 352 779.2 351.963z"/>
    <path id="belt_loop4_2_" fill="#4D576B" d="M773.738 350.251c-0.019-0.093-0.536-0.052-0.593-0.063 c-0.051 0.252-0.214 2.741-0.146 2.763c0.621 0.2 0.6 0 0.688-0.551c0.04-0.489 0.108-0.926 0.093-1.421 C773.772 350.7 773.8 350.5 773.7 350.251z"/>
    <path id="belt_loop3_2_" fill="#4D576B" d="M765.596 350.478c-0.021-0.092-0.537-0.05-0.595-0.063 c-0.05 0.254-0.214 2.741-0.145 2.765c0.62 0.2 0.6 0 0.688-0.552c0.04-0.489 0.108-0.926 0.092-1.42 C765.629 351 765.6 350.7 765.6 350.478z"/>
    <g id="right_arm_cuff_2_">
        <path id="right_arm_cuff_roll_2_" fill="#EBE7E3" d="M802.021 317.634c-0.737-0.613-2.095-0.864-2.952-1.047 c-1.301-0.277-2.118-0.81-3.646-0.973c-0.617-0.066-1.016 0.102-1.259 0.734c-0.187 0.488-0.146 0.9 0.3 1.4 c-0.708 0.502-1.137 1.541-0.119 2.068c1.34 0.7 4.9 2 6.4 1.881c1.198-0.114 1.906-0.176 1.456-1.714 C802.846 318.9 802.8 318.3 802 317.634z"/>
        <path id="right_arm_cuff_pleat_2_" fill="#D6D3CF" d="M800.798 320.119L800.798 320.1 c-1.308-0.007-2.574-0.472-3.799-0.921c-0.552-0.203-1.12-0.412-1.679-0.572c-0.065-0.02-0.103-0.088-0.084-0.153 c0.018-0.066 0.084-0.105 0.153-0.086c0.565 0.2 1.1 0.4 1.7 0.579c1.205 0.4 2.5 0.9 3.7 0.9 c0.068 0 0.1 0.1 0.1 0.124C800.921 320.1 800.9 320.1 800.8 320.119z"/>
    </g>
    <path id="right_leg_cuff_2_" fill="#888E99" d="M794.473 421.229c-1.288-0.376-2.796-0.227-4.074-0.157 c-1.935 0.107-2.807-0.169-5.016 0.114c-0.891 0.111-1.376 0.388-1.451 1.063c-0.059 0.5 0 0.9 0.5 1.3 c-0.527 0.59-0.652 1.8 1 1.984c2.166 0.3 6.9 0.4 8.998-0.009c1.664-0.301 2.071-0.797 1.32-2.058 C796.033 422.1 795.9 421.6 794.5 421.229z"/>
    <path id="right_leg_cuff_pleat_2_" fill="#4D576B" d="M790.932 423.735c-0.634 0-1.268-0.03-1.938-0.063 c-0.781-0.037-1.589-0.078-2.492-0.069h-0.001c-0.069 0-0.123-0.055-0.124-0.123c-0.001-0.069 0.055-0.125 0.123-0.126 c0.908-0.008 1.7 0 2.5 0.071c1.612 0.1 3 0.1 4.719-0.202c0.07-0.013 0.1 0 0.1 0.1 c0.013 0.068-0.03 0.134-0.097 0.147C792.746 423.7 791.8 423.7 790.9 423.735z"/>
    <path id="left_leg_cuff_2_" fill="#888E99" d="M775.332 421.229c-1.289-0.376-2.797-0.227-4.074-0.157 c-1.936 0.107-2.808-0.169-5.015 0.114c-0.891 0.111-1.377 0.388-1.453 1.063c-0.057 0.5 0 0.9 0.5 1.3 c-0.527 0.59-0.652 1.8 1 1.984c2.165 0.3 6.9 0.4 8.998-0.009c1.663-0.301 2.07-0.797 1.318-2.058 C776.893 422.1 776.8 421.6 775.3 421.229z"/>
    <path id="left_leg_cuff_pleat_2_" fill="#4D576B" d="M771.792 423.735c-0.635 0-1.269-0.03-1.939-0.063 c-0.781-0.037-1.589-0.078-2.492-0.069c-0.001 0-0.001 0-0.001 0c-0.068 0-0.124-0.055-0.124-0.123 c-0.001-0.069 0.055-0.125 0.123-0.126c0.907-0.008 1.7 0 2.5 0.071c1.61 0.1 3 0.1 4.718-0.202 c0.071-0.013 0.1 0 0.1 0.097c0.014 0.068-0.029 0.134-0.097 0.147C773.606 423.7 772.7 423.7 771.8 423.735z"/>
    <g id="chainsaw_2_">
        <g id="chainsaw_cutter_2_">
            <path id="chainsaw_cutter_center_2_" fill="#C3C9C9" d="M734.095 345.56c-1.324 0.102-11.613 0.695-14.185 0.8 c-2.815 0.137-5.591 0.45-8.394 0.719c-1.306 0.125-5.364 0.519-6.076 0.599c-1.532 0.172-7.86 1.223-9.499 1.4 c-0.986 0.123-2.453 0.645-2.994 1.573c-0.302 0.518-0.484 1.605-0.17 2.093c0.963 1.5 4.6 1.6 8 1.5 c8.868-0.27 16.731-0.425 34.134-1.644C735.545 352.6 734.1 345.6 734.1 345.56z"/>
            <path id="chainsaw_cutter_chain_2_" fill="#4D4D4D" d="M705.43 347.698c0.004-0.001 0.007-0.001 0.011-0.001 c0.712-0.08 4.771-0.474 6.076-0.599c2.803-0.268 5.578-0.582 8.394-0.719c2.571-0.125 12.86-0.719 14.185-0.82 c0 0 1.4 7 0.8 7.068H734.9c-17.404 1.22-25.267 1.374-34.135 1.645c-3.341 0.1-7.025 0.016-7.988-1.485 c-0.314-0.487-0.132-1.575 0.17-2.093c0.541-0.929 2.008-1.45 2.994-1.573C697.576 348.9 703.9 347.9 705.4 347.7 M705.343 346.945c-0.83 0.095-2.965 0.429-5.032 0.752c-1.817 0.283-3.696 0.578-4.462 0.672c-0.97 0.12-2.81 0.664-3.556 1.9 c-0.391 0.668-0.67 2.08-0.153 2.884c1.158 1.8 4.8 1.9 8.6 1.832c0.864-0.025 1.72-0.052 2.576-0.075 c7.801-0.229 15.868-0.467 31.587-1.569l0.017-0.001l0.021-0.002c0.24-0.028 0.452-0.153 0.6-0.355 c0.253-0.35 0.417-0.915-0.141-4.308c-0.274-1.676-0.608-3.296-0.61-3.312l-0.136-0.653l-0.665 0.1 c-1.31 0.101-11.503 0.69-14.163 0.819c-2.246 0.109-4.498 0.333-6.676 0.549c-0.584 0.059-1.167 0.116-1.752 0.2 c-1.285 0.123-5.376 0.521-6.089 0.6l0 0L705.343 346.945L705.343 346.945z"/>
        </g>
        <path id="chainsaw_body_2_" fill="#DF6C39" d="M782.685 344.729c-1.529-1.151-3.651-1.804-5.45-2.36 c-1.102-0.343-2.151-0.845-3.214-1.297c-0.716-0.307-1.438-0.589-2.186-0.786c-1.402-0.367-2.902-0.313-4.339-0.431 c-1.479-0.123-2.849-0.728-4.343-0.729c-0.098-1.45-0.458-2.816-0.818-4.218c-0.383-1.478-1.491-3.121-3.085-3.277 c-2.254-0.219-4.523 0.458-6.729 0.791c-2.734 0.416-5.409 1.003-8.065 1.785c-1.111 0.327-2.215 0.702-3.365 0.9 c-0.746 0.107-1.606 0.05-2.263 0.475c-0.586 0.379-1.087 0.74-1.516 1.265c-0.491 0.603-0.904 1.378-1.416 2 c-1.026 1.173-1.925 2.85-2.097 4.41c-0.156 1.427-0.19 2.7 0 4.14c0.297 2.1 0.3 4.4 0.7 6.6 c0.146 0.7 0.1 2.1 0.7 2.546c0.645 0.5 1.8 0.2 2.5 0.473c1.411 0.5 0.7 2.3 2.1 2.7 c1.05 0.3 2.454-0.179 3.508-0.301c1.257-0.148 2.478-0.349 3.711-0.639c3.213-0.753 6.407-1.64 9.713-1.861 c1.788-0.12 3.596-0.137 5.355-0.498c0.718-0.145 1.641-0.284 2.308-0.548c0.581-0.23 0.853-0.797 1.396-1.05 c0.437-0.203 1.299-0.097 1.777-0.152c2.103-0.238 4.187-0.645 6.302-0.892c1.808-0.212 3.623-0.295 5.41-0.646 c1.169-0.229 2.366-0.336 3.409-0.938c0.903-0.521 1.549-1.327 1.477-2.415C784.14 347.7 784.3 345.9 782.7 344.729z M781.735 350.744c-0.525 0.389-1.885-0.021-2.516 0.015c-1.118 0.063-2.232 0.223-3.352 0.3 c-2.007 0.111-4.01 0.287-6.014 0.426c-1.191 0.082-2.899 0.347-3.897-0.499c-0.776-0.655-1.089-1.978-1.335-2.917 c-0.653-2.476 1.266-3.074 3.271-3.126c1.054-0.026 2 0 2.985-0.109c1.072-0.157 1.9 0.2 2.9 0.5 c1.293 0.4 2.6 0.4 3.9 0.583c0.566 0.1 1.2 0.1 1.7 0.276c1.045 0.2 2 0.7 2.4 1.8 C782.084 348.6 782.4 350.3 781.7 350.744z"/>
        <path id="chainsaw_handle_2_" fill="#1E1A1B" d="M749.99 332.862c-0.685-1.066-1.592-2.384-2.385-3.122 c-1.222-1.141-2.909-2.39-4.653-2.438c-0.888-0.025-2.107 0.167-2.552 1.028c-0.521 1.009-0.228 2.072-0.215 3.1 c0.016 1.3 0.1 2.4 0.1 3.686c-0.413 0.027-1.047-0.209-1.139-0.265c-0.36-0.219-0.628-0.526-0.889-0.85 c-0.764-0.949-1.441-1.699-1.849-2.866c-0.385-1.108-0.747-1.931-0.634-3.158c0.049-0.536 0.149-1.07 0.295-1.589 c0.134-0.475 0.828-1.646 0.564-2.138c-0.166-0.308-0.543-0.396-0.854-0.41c-0.746-0.035-1.631 0.036-2.342 0.3 c-0.944 0.322-1.286 1.556-1.452 2.428c-0.222 1.17-0.512 2.405-0.387 3.608c0.098 0.9 0.3 2 0.6 2.9 c0.828 2.4 1.9 4.5 3.2 6.291c1.57 2.1 3.4 3.7 5.5 4.422c0.115 1 0.7 7.2 0.6 9.2 c-0.121 1.697-0.439 3.431-1.497 4.788c-0.231 0.297-0.611 0.516-0.789 0.85c-0.063 0.119-0.093 0.246-0.104 0.4 c-0.018 0.2 0 0.5 0.1 0.728c0.081 0.5 0.4 0.3 0.8 0.284c0.766-0.01 1.614-0.116 2.174-0.596 c0.119-0.102 0.227-0.219 0.315-0.356c2.184-3.377 2.266-5.038 2.426-7.881c0.031-0.555-0.336-5.94-0.475-6.835 c1.622-0.175 2.158-0.319 2.343-0.817c0.137-0.365 0.028-1.002-0.118-1.354c-0.402-0.955-1.593-0.802-2.432-0.694 c-0.047-0.481-0.347-4.125-0.588-7.084c-0.138-1.669-0.257-3.122-0.303-3.662c0.525-0.002 1 0.5 1.3 0.8 c0.502 0.5 1 1.2 1.4 1.792c0.055 0.1 0.1 0.2 0.2 0.331C747.009 333.5 748.8 333.1 750 332.862z M740.788 341.137c-0.476-0.421-0.988-0.8-1.428-1.262c-0.704-0.743-1.927-1.839-1.641-2.962c0.011-0.046 0.022-0.093 0.037-0.139 c0.14-0.378 0.405-0.688 0.723-0.93c0.146-0.109 0.301-0.205 0.462-0.284c0.249-0.122 0.975-0.209 1.397-0.217 C740.384 335.6 740.7 340 740.8 341.137z"/>
    </g>
    <path id="right_glove_2_" fill="#DEB249" d="M771.684 341.798c-0.029 0.031-1.281 1.525-1.31 1.6 c-0.28 0.312-0.632 0.904-0.643 1.438c-0.017 0.8 1.8 1.2 2.3 0.522c0.038 0.6 1.6 1.1 2.3 0.4 c0.079 0.5 1.4 1 2.2 0.405c0.215 0.9 2 1.2 2.7 0.036c0.272-0.453 1.483-1.475 1.488-2.007 c0.003-0.439-0.379-0.738-0.334-1.156c0.036-0.329 0.254-0.698 0.538-0.872c0.168-0.1 0.808-0.079 0.838-0.335 c0.019-0.171-0.364-0.291-0.478-0.365c-0.334-0.219-2.827-1.741-3.925-2.269c-0.502-0.241-1.405-0.806-1.901-0.765 c-0.359 0.03-0.124 0.385-0.166 0.689c-0.039 0.282-0.509 1.065-0.7 1.277c-0.27 0.298-0.636 0.404-1.03 0.4 C772.726 340.7 772.2 341.2 771.7 341.798z"/>
    <path id="left_glove_2_" fill="#DEB249" d="M745.574 327.822c0.006 0.351-0.037 1.125-0.08 1.4 c-0.144 0.754-0.458 2.148-2.024 2.543c-0.031-0.286-0.061-0.696-0.079-0.947c0.336-0.485 0.411-0.642 0.537-1.052 c0.243-0.783 0.091-1.525-0.636-2.065c-0.367-0.272-1.007-0.345-1.618-0.175c-1.354 0.375-1.55 1.289-1.582 2.2 c-0.011 0.3 0 0.7 0.1 1.083c-0.015 0.059-0.106 0.073-0.173 0.053c-0.438-0.223-0.655-0.661-0.697-1.144 c-0.05-0.592 0.036-1.563 0.352-2.07c0.821-1.317 1.488-1.565 2-1.829c0.249-0.47 0.477-1.102 0.605-1.626 c0.138-0.564-0.198-0.512-0.368-0.934c-0.35-0.872 1.6 0.1 1.8 0.169c1.298 0.7 2.5 1.6 3.7 2.4 c0.138 0.1 0.8 0.4 0.7 0.681c-0.105 0.197-0.695-0.032-0.89 0.043C746.455 326.8 745.9 327.3 745.6 327.822z"/>
    <path id="glove_pleat5_2_" fill="#B38F3B" d="M773.384 343.761c-0.017 0-0.033-0.003-0.05-0.01 c-0.063-0.027-0.092-0.101-0.065-0.163c0.173-0.401 0.52-0.826 0.951-1.165c0.055-0.042 0.133-0.033 0.2 0 c0.043 0.1 0 0.131-0.021 0.174c-0.395 0.31-0.723 0.709-0.877 1.067C773.477 343.7 773.4 343.8 773.4 343.761z"/>
    <path id="glove_pleat4_2_" fill="#B38F3B" d="M775.538 344.024c-0.028 0-0.057-0.009-0.079-0.028 c-0.053-0.044-0.06-0.122-0.016-0.175c0.078-0.095 0.145-0.216 0.216-0.343c0.137-0.246 0.292-0.525 0.572-0.652 c0.062-0.028 0.1 0 0.2 0.063c0.029 0.1 0 0.135-0.063 0.163c-0.206 0.093-0.328 0.314-0.457 0.5 c-0.073 0.132-0.148 0.268-0.242 0.38C775.609 344 775.6 344 775.5 344.024z"/>
    <path id="glove_pleat3_2_" fill="#B38F3B" d="M777.15 345.048c-0.008 0-0.016-0.001-0.023-0.003 c-0.067-0.013-0.111-0.078-0.098-0.145c0.096-0.491 0.387-1.073 0.74-1.483c0.046-0.051 0.124-0.058 0.175-0.013 c0.053 0 0.1 0.1 0 0.175c-0.322 0.374-0.598 0.924-0.685 1.369C777.261 345 777.2 345 777.1 345.048z"/>
    <path id="glove_pleat2_2_" fill="#B38F3B" d="M779.414 342.94c-0.028 0-0.058-0.011-0.081-0.03 c-0.821-0.707-1.883-1.036-2.908-1.354c-0.349-0.107-0.71-0.219-1.053-0.344c-0.065-0.023-0.098-0.094-0.075-0.159 c0.024-0.065 0.096-0.097 0.16-0.074c0.338 0.1 0.7 0.2 1 0.341c1.052 0.3 2.1 0.7 3 1.4 c0.051 0 0.1 0.1 0 0.174C779.483 342.9 779.4 342.9 779.4 342.94z"/>
    <path id="glove_pleat1_2_" fill="#B38F3B" d="M744.667 327.184c-0.029 0-0.059-0.011-0.081-0.031 c-0.097-0.083-0.2-0.182-0.312-0.285c-0.49-0.465-1.102-1.041-1.676-1.048c-0.068-0.002-0.123-0.058-0.122-0.126 c0.001-0.067 0.056-0.123 0.124-0.123h0.001c0.67 0 1.3 0.6 1.8 1.116c0.108 0.1 0.2 0.2 0.3 0.3 c0.053 0 0.1 0.1 0 0.174C744.735 327.2 744.7 327.2 744.7 327.184z"/>
    <path id="left_arm_elbow_2_" fill="#CCBB95" d="M747.106 318.542c-0.016 0-0.031-0.002-0.046-0.008 c-0.771-0.309-2.17-0.548-2.865-0.113c-0.056 0.036-0.133 0.02-0.171-0.039c-0.035-0.059-0.018-0.135 0.04-0.171 c0.813-0.508 2.325-0.213 3.1 0.093c0.063 0 0.1 0.1 0.1 0.161C747.203 318.5 747.2 318.5 747.1 318.542z"/>
    <g id="pants">
        <path id="belt_loop2" fill="#4D576B" d="M787.989 349.672c-0.019-0.093-0.535-0.051-0.593-0.064 c-0.05 0.253-0.214 2.741-0.146 2.764c0.62 0.2 0.6 0 0.688-0.551c0.04-0.489 0.108-0.927 0.093-1.421 C788.024 350.2 788 349.9 788 349.672z"/>
        <path id="belt_loop1" fill="#4D576B" d="M796.05 349.483c-0.027-0.081-0.538 0.003-0.597-0.002 c-0.028 0.2 0 2.5 0.1 2.512c0.636 0.1 0.642-0.045 0.641-0.562c-0.001-0.446 0.032-0.848-0.026-1.293 C796.123 349.9 796.1 349.7 796 349.483z"/>
        <path id="right_pocket" fill="#373E4D" d="M796.109 356.722c-0.004 0-0.008 0-0.012-0.001 c-0.128-0.007-0.246-0.01-0.361-0.013c-0.364-0.009-0.708-0.017-1.137-0.152c-1.139-0.363-1.486-1.335-1.692-2.33 c-0.088-0.419-0.06-0.789-0.033-1.148c0.014-0.179 0.027-0.361 0.027-0.559c0-0.137 0.11-0.247 0.248-0.247 c0.137 0 0.2 0.1 0.2 0.247c0 0.21-0.014 0.404-0.027 0.596c-0.025 0.34-0.05 0.7 0 1 c0.203 1 0.5 1.7 1.4 1.958c0.361 0.1 0.7 0.1 1 0.131c0.121 0 0.2 0 0.4 0 c0.137 0 0.2 0.1 0.2 0.262C796.351 356.6 796.2 356.7 796.1 356.722z"/>
        <path id="crotch_pleat" fill="#373E4D" d="M780.317 361.086c-0.307 0-0.617-0.073-0.919-0.313 c-1.006-0.801-1.01-2.546-1.012-4.084c-0.002-0.8-0.004-1.556-0.143-2.073c-0.036-0.133 0.042-0.267 0.176-0.305 c0.134-0.032 0.3 0 0.3 0.176c0.155 0.6 0.2 1.4 0.2 2.2c0.002 1.4 0 3 0.8 3.7 c0.294 0.2 0.6 0.2 1 0.166c0.131-0.027 0.3 0.1 0.3 0.202c0.023 0.135-0.067 0.263-0.202 0.3 C780.642 361.1 780.5 361.1 780.3 361.086z"/>
    </g>
</g>
</g>
</svg>
