<svg xmlns="http://www.w3.org/2000/svg" xmlns:xlink="http://www.w3.org/1999/xlink" version="1.1" x="0px" y="0px" width="1024px" height="600px" viewBox="0 0 1024 600" enable-background="new 0 0 1024 600" xml:space="preserve" preserveAspectRatio="none">
<defs>
  <filter id="drop-shadow">
    <feGaussianBlur stdDeviation="4" in="SourceAlpha"/>
    <feOffset dx="0" dy="0" result="offsetblur"/>
    <feFlood flood-color="#727272"/>
    <feComposite operator="in" in2="offsetblur"/>
    <feMerge>
      <feMergeNode/>
      <feMergeNode in="SourceGraphic"/>
    </feMerge>
  </filter>
</defs>
<g id="scene" filter="url(#drop-shadow)">
<g id="Trees_and_stuff">
    <path fill="#2E732E" d="M196.5 143.8c0 0-0.1 0-0.1 0c0-0.1 0.1-0.1 0.1-0.2V143.8z M196.5 143.5c40.7-63.5 5.3-119-34.5-124.7 c-48.6-7-76.7 21.1-64.7 67.6c-63.3 19.8-49.1 105.5-29.1 114c-24.9 14.6-28.5 84 15.7 96.7c10.4 3 43.8 2.4 51.6-21.9 c1.1 3.5 4.8 6.8 4.8 6.8s25.1 9.9 44.6-8c13.7-12.5 28.2-36.7 12.7-67.7C218 193.5 214 149.2 196.5 143.5z"/>
    <path fill="#655114" d="M142.7 438.4c0 0-10-31-11.5-90.4c-1.5-59.4 5.7-62.8 5.7-62.8s6.1-1.5 13.4-21.4 c7.3-19.9 9.2-30.3 9.2-30.3s-7.1 19.9-14.3 29.9c-7.2 10-7.9 8-7.9 8s3.4-55.9 4.2-79.7c0.8-23.7 3.2-69.3 3.7-70.5 c0.5-1.1 21.6-28 21.6-28l-3.4-1.9l-18.8 18.8l0.8-42.5l-3.8 8.8l-6.5 109.9c0 0-10-9.2-16.9-26.4c-6.9-17.2-14.6-32.6-14.6-32.6 v1.9c0 0 2.3 13 8.8 29.5c6.5 16.5 22.8 42.9 22.8 42.9s-9.4 82.7-12.1 114.9c-2.7 32.2-2.3 43.3-2.3 43.3L101 276l2.3-33.7 l-0.4-5.4l-6.1 35.2l-5.4-3.1c0 0 1.8 2 3.4 9.2c2.7 11.9 16.5 71.2 21.8 96.1c5.4 24.9 2.3 64.1 2.3 64.1s1.3-0.3 11-0.1 C138.8 438.6 142.7 438.4 142.7 438.4z"/>
    <path fill="#3D993F" d="M91.2 271.1c0 0-6 0.1-8.9-6.4c-2.8-6.5-2.1-6-2.1-6s8.1-0.6 11 5.8c2.9 6.4 2.8 7.1 2.8 7.1L91.2 271.1z"/>
    <path fill="#3D993F" d="M143 155.4c0 0 0.7-4.3 5.7-5.6c5-1.2 4.6-0.7 4.6-0.7s-0.6 5.9-5.6 7.2c-5 1.3-5.4 1.1-5.4 1.1L143 155.4z "/>
    <path fill="#3D993F" d="M144.1 75.3c0 0 0.7-4.3 5.7-5.6c5-1.2 4.6-0.7 4.6-0.7s-0.6 5.9-5.6 7.2c-5 1.3-5.4 1.1-5.4 1.1 L144.1 75.3z"/>
    <path fill="#3D993F" d="M143.2 155.9c0 0 3.9-2 7.9 1.3c4 3.3 3.3 3.2 3.3 3.2s-5.1 3-9.1-0.2c-4-3.2-4.2-3.7-4.2-3.7L143.2 155.9z "/>
    <path fill="#3D993F" d="M102.7 238.8c0 0-1.1-5.9 4.9-9.8c6-3.8 5.6-3 5.6-3s1.9 7.9-4 11.8c-5.8 3.9-6.5 3.9-6.5 3.9L102.7 238.8z "/>
    <path fill="#3D993F" d="M101.1 240.6c0 0-4-0.7-5-5.4c-1-4.7-0.5-4.2-0.5-4.2s5.4 0.7 6.5 5.3c1.1 4.6 0.9 5.1 0.9 5.1L101.1 240.6 z"/>
    <path fill="#3D993F" d="M158.7 236.1c0 0-1.7-3-0.9-6.3c0.9-3.3 4.5-7.4 4.5-7.4s3.4 5.1 2.6 8.7 C164.1 234.7 158.7 236.1 158.7 236.1z"/>
    <path fill="#3D993F" d="M93 271.4c0 0-1.7-1.9-1.6-4.4c0.1-2.5 2.1-6 2.1-6s3.2 3.1 3.2 5.8C96.7 269.6 93 271.4 93 271.4z"/>
    <path fill="#3D993F" d="M155.7 247.4c0 0 0.2-1.7 1.6-2.8c1.3-1.1 4.1-1.6 4.1-1.6s-0.2 3.1-1.6 4.3 C158.3 248.5 155.7 247.4 155.7 247.4z"/>
    <path fill="#3D993F" d="M155.4 247.2c0 0 1.6-0.8 3.2-0.2c1.6 0.5 3.6 2.5 3.6 2.5s-2.7 1.6-4.5 1C156 250 155.4 247.2 155.4 247.2 z"/>
    <path fill="#3D993F" d="M106.1 133.1c0 0-3.3 0.2-5.8-1.8c-2.5-2.1-4.5-6.8-4.5-6.8s5.7-0.9 8.5 1.3 C107 127.9 106.1 133.1 106.1 133.1z"/>
    <path fill="#3D993F" d="M164.2 95.4c0 0 0.2-3.3 2.7-5.5c2.4-2.2 7.4-3.4 7.4-3.4s0 5.8-2.5 8.2C169.2 97.1 164.2 95.4 164.2 95.4z "/>
    <path fill="#3D993F" d="M162.7 95.2c0 0-3.9-2.6-1-6.7c2.9-4.1 5.6-4.2 5.6-4.2s0.9 2.7 0.7 5.5C167.7 95.1 162.7 95.2 162.7 95.2z "/>
    <path fill="#3D993F" d="M105.8 133.6c0 0-2-2.6-1.7-5.8c0.3-3.2 3.2-7.6 3.2-7.6s3.9 4.3 3.6 7.8 C110.7 131.5 105.8 133.6 105.8 133.6z"/>
    <path fill="#3D993F" d="M116 165.4c0 0-2.3 1.2-4.8 0.6c-2.5-0.7-5.5-3.6-5.5-3.6s3.9-2.5 6.6-1.8C114.9 161.3 116 165.4 116 165.4 z"/>
    <path fill="#3D993F" d="M143.6 75.8c0 0-4.9-1-5.3-7.1c-0.4-6 2.8-11.8 2.8-11.8s4.3 4.5 5.5 9.4C147.9 71.3 143.6 75.8 143.6 75.8 z"/>
    <path fill="#3D993F" d="M142.3 76.6c0 0-2.4 1.3-4.8-1.1c-2.4-2.4-3.1-6.1-3.1-6.1s3.5 0.4 5.8 2C142.4 73.1 142.3 76.6 142.3 76.6 z"/>
    <path fill="#3D993F" d="M161.7 94.5c0 0-2.2 0.7-2.6-3.2c-0.4-3.9 0.5-5.5 0.5-5.5s1.2 1 2.1 2.7C163.3 91.6 161.7 94.5 161.7 94.5 z"/>
</g>
<g id="Ground">
    <g>
        <path fill="#604F3F" d="M0 423.3c2 0.4 190.8 16.7 266.8 12.8c75.9-3.8 400.6-20.5 497.2-16.1c96.7 4.4 260 3.3 260 3.3v178.4H0 V423.3z"/>
    </g>
    <path fill-rule="evenodd" clip-rule="evenodd" fill="#4D4135" d="M141.3 433.3c0.1 7.4 3.4 30.1 7.3 34c2.9 2.9 5.7 6 8.8 8.2 c5 3.5 10.1 6.6 15.9 7.3c7.2 0.8 14.3 2.3 21.4 3.7c4.7 0.9 8.8 4 12.8 7.4c0.6 0.5 1.1 1.1 1.4 1.9c1 2.6 2.7 2.5 4.5 2.2 c2.2-0.3 4.5-0.5 6.7-0.7c0.7 0 1.6 0.2 2.2 0.8c0.5 0.5 1 2 0.8 2.5c-0.6 1.3-1.4 0.3-1.8-0.5c-1.3-2.1-2.8-2-4.5-1.1 c-1.3 0.7-2.6 1.2-4.3 2.1c1.4 1 2.6 1.8 3.8 2.6c2.3 1.6 4.7 3.2 6.9 4.9c1.8 1.4 2.6 3.8 2.9 6.4c0 0.3-0.2 0.7-0.3 1 c-0.3-0.2-0.7-0.2-0.9-0.6c-0.3-0.6-0.5-1.4-0.8-2c-1.2-2.8-2.8-4.9-5.2-5.9c-1.4-0.6-2.7-1.4-4.1-2.1c-2.5-1.4-4.5-3.4-5.9-6.6 c-2-4.6-2.3-4.6-7.1-7.6c2.1 3.8 2.1 7.8 2.9 11.6c0.4 2.2 1.4 4.2 2.4 6c1.1 1.9 2.5 3.6 3.9 5.2c2.2 2.5 2.7 5.9 3.4 9.2 c0.1 0.4-0.2 0.9-0.3 1.3c-0.3-0.3-0.6-0.6-0.7-1c-1.4-5.3-4.2-9.2-7-13.2c-2.1-2.9-3.5-6.1-3.7-10.3c-0.1-1.7-0.4-3.3-0.8-4.9 c-0.9-3.2-2.2-5.6-5.2-5.9c-2.9-0.2-5.8-0.9-8.7-1.2c-2.6-0.3-5.2-0.5-7.9-0.8c-1.1-0.1-2 0.5-2.9 1.2c-2 1.5-4.3 2.4-6.4 3.6 c-0.7 0.4-1.3 0.8-2 1.3c0.6 0.6 1.2 1.2 1.9 1.7c3.7 2.4 7.4 4.7 11.1 6.9c0.7 0.4 1.5 0.7 2.2 0.7c4.5 0.1 9 0.6 13.1-2.8 c0.2-0.2 0.5-0.3 0.8-0.4c0.2 0 0.4 0.1 0.5 0.2c0.1 0.2 0 0.6-0.1 0.7c-0.9 0.7-1.8 1.7-2.8 2.1c-2.9 1-5.9 1.7-9 2.6 c1.2 0.9 2.4 2 3.7 2.8c4.4 2.7 8.2 6.5 11.6 10.9c2.4 3 4.8 6 7.4 8.9c0.8 0.9 1.8 1.5 2.8 2c3.1 1.6 6.3 2.9 9.2 4.8 c2.8 1.8 4.5 5.2 6 8.8c0.1 0.2 0 0.5 0 0.7c-0.2-0.1-0.6 0-0.7-0.2c-0.3-0.5-0.6-1.1-0.9-1.5c-2-3.1-4-6.3-7.1-7.7 c-2.1-0.9-4.1-2.3-6.7-3.8c3.4 6.4 7.6 11.2 8.8 19.4c-2.3-4.7-4.3-8.7-6.3-12.7c-0.2 0.1-0.4 0.3-0.5 0.4c0.1 0.6 0.3 1.2 0.3 1.8 c-0.6 6.1 1.3 11.4 3.5 16.5c0.3 0.7 0.4 1.4 0.6 2.2c0 0.2-0.1 0.4-0.4 1.2c-2.5-5.6-6.3-10-5.4-17.1c0.8-6.1-1.5-9.9-5-13.2 c-2.8-2.8-5.3-6.2-7.9-9.2c-0.4-0.4-1-0.5-1.4-0.8c0.2 0.6 0.3 1.2 0.5 1.6c2 3.8 4.1 7.5 6.4 11.5c-2.2-1.4-3.9-3.3-5.4-5.7 c-2.9-4.6-5.9-9-8.7-13.6c-2.7-4.5-6.5-6.2-10.6-7.7c3.2 4.2 4.9 9.4 6.3 14.9c-2-3.4-3.9-6.9-5.9-10.2c-2.9-4.6-5.8-8.9-10.4-10.9 c-4-1.8-7.8-4.1-11.6-6.5c-3.2-2-6.2-4.4-9.3-6.6c-0.3-0.2-0.7-0.3-1.1-0.5c0 0.6-0.1 1.3 0.1 1.7c1.6 4 3.3 7.9 5 11.8 c6.1 13.6 13.3 26.1 21.8 37.3c1.4 1.9 3 3.6 4.4 5.6c-2.9-0.6-4.2-4.6-7.2-5.5c1.6 3.9 3 7.9 4.7 11.7c0.6 1.3 1.9 2.2 3 3 c2.3 1.6 3.8 4 4.6 7.2c0.3 1.1 0.6 2.4 0.4 3.3c-0.6 2.6 0.3 4.4 1.7 5.6c1.8 1.5 2.5 3.9 3.6 6c0.9 1.7 0.4 4.2-0.7 5.6 c-0.2 0.2-0.5 0.2-0.8 0.3c0-0.4-0.2-1-0.1-1.3c1.2-3.3 1.2-3.5-0.5-6c-0.7-1.1-1.3-2.2-2.1-3.2c-0.5-0.6-1.1-1-1.6-1.5 c-0.3 0.7-0.9 1.4-1 2.1c-0.3 2.6-0.4 5.2-0.6 7.5c-1-1.6-1.5-3.2-1.2-5.5c0.5-3.5 1-7 1.5-10.5c0.3-2.1-0.3-3.8-1.5-5.2 c-1.7-1.9-3.5-3.7-5.3-5.6c-0.7-0.8-1.2-1-1.2 0.6c0 1.6 0 3.1-0.1 4.7c0 0.4-0.3 0.8-0.5 1.1c-0.2-0.4-0.5-0.8-0.6-1.2 c-0.2-1.6-0.4-3.3-0.5-5c-0.4-7.1-2.9-13.4-5.3-19.6c-0.5-1.2-1.2-2.3-2-3.3c-4-5.6-8.1-11.2-12.2-16.8c-0.2-0.3-0.4-0.6-0.6-0.8 c-0.3-0.2-0.7-0.3-1-0.5c-0.1 0.4-0.2 0.7-0.2 1.1c-0.2 3.6-0.1 7.2-0.6 10.8c-1 6.8 0.8 13 2.5 19.1c1.8 6.5 3.9 12.9 7.7 18 c-1.3-0.1-1.8-1.3-2.4-2.4c-0.9-1.4-1.8-2.8-2.7-4.1c-0.3-0.4-0.8-0.6-1.2-0.9c-0.1 0.6-0.3 1.3-0.2 1.9c0.5 3.5 1.1 7 1.7 10.6 c0.2 1 0.6 1.9 0.8 2.9c0.1 0.4-0.1 0.8-0.2 1.3c-0.2-0.2-0.5-0.4-0.6-0.7c-1.1-4.9-2.9-9.6-3.1-14.9c-0.1-3.7-0.8-7.3-2.2-10.7 c-1-2.4-1.5-5.2-2.2-7.9c-0.5 1.7-0.9 3.5-1.4 5.2c-0.2 0-0.3-0.1-0.5-0.1c0-1.4 0-2.8 0-4.2c0.2-7.9 0.6-15.7 0.5-23.6 c-0.2-8.5-3.1-15.7-6.7-22.7c-3-5.8-5.3-12.3-7.9-18.5c-0.2-0.6-0.4-1.2-0.6-1.8c-1.7-3.8-4.2-3.9-5.7 0c-0.6 1.7-1 3.7-1.1 5.5 c-0.1 8.7-0.1 17.3 0 26c0 3 0.3 5.9 0.6 8.9c0 0.6 0.2 1.3 0.4 1.8c3 7 6.5 13.5 11.3 18.6c0.6 0.6 1.2 1.3 1.8 2 c0.3 0.3 0.4 0.8 0.5 1.4c-4.9-3.9-9.3-8.8-13.7-15.1c0.6 3.9 1 6.9 1.4 9.9c1.5 10.5 3.5 20.9 6.4 30.9c0.9 3 2.2 5.4 4.3 7.1 c2.7 2.1 5.2 4.5 7.8 6.8c1.7 1.5 2.4 3.8 2.7 6.5c-0.3-0.6-0.8-1.1-1-1.7c-2.1-4.7-5.7-6.5-9.1-8.8c-0.2-0.1-0.6-0.1-0.8 0.1 c-0.1 0.2-0.1 0.7 0 1c0.6 1.7 1.2 3.5 1.8 5.2c-0.2 0.2-0.3 0.3-0.5 0.5c-0.6-1.2-1.2-2.3-1.8-3.5c-0.7-1.4-1.3-2.9-1.9-4.3 c-0.5-1.3-1-2.8-2-4.3c-0.2 1.5-0.6 3-0.7 4.6c-0.3 3.8-0.4 7.7-0.7 11.6c0 0.4 0 0.8-0.1 1.1c-0.1 0.3-0.3 0.5-0.5 0.8 c-0.2-0.2-0.5-0.4-0.5-0.7c-0.1-0.8 0-1.5 0-2.3c0.3-6.2 0.7-12.3 1-18.5c0.1-1.4-0.1-2.9-0.5-4.1c-3.3-8.5-5.1-17.6-6.8-26.8 c-0.1-0.6-0.3-1.2-0.5-2.4c-0.7 7.9-1.2 15.2-2 22.6c-0.7 6.5-1.5 13-2.4 19.5c-0.1 0.4-0.4 0.8-0.6 1.2c-0.2-0.5-0.6-1-0.6-1.5 c0.3-3.6 0.7-7.2 1-10.7c0.1-0.7-0.2-1.4-0.4-2.1c-0.4 0.3-0.8 0.7-1.2 1c-3.2 3.3-5.8 7.7-9.8 9.7c-0.5 0.3-1.1 0.6-1.6 0.8 c-0.1 0.1-0.4-0.1-0.5-0.3c-0.1-0.2-0.1-0.6 0-0.7c0.6-0.8 1.3-1.5 2-2.3c2.9-3 5.9-6 8.7-9.1c2.9-3.2 3.7-7.5 4-12.4 c0.4-7.8 1.1-15.6 1.6-23.5c0.1-2.3-0.1-4.6-0.5-6.9c-1.8-12.6-1.8-25.4-1.8-38.2c0-1.9 0-3.9-0.4-6c-0.7 2.2-1.2 4.5-2.1 6.6 c-1.8 4.4-3.7 8.8-5.7 13.1c-1.5 3-2.2 6.3-2.7 9.7c-1.8 12.7-0.1 24.8 3.5 36.7c0.4 1.3 0.7 2.7 1 4c0 0.2-0.1 0.4-0.3 1 c-0.4-0.7-0.8-1.2-1-1.9c-3.6-9.6-6.3-19.5-6.9-30.2c0-0.5 0-1.1-0.2-1.5c-0.2-0.7-0.5-1.2-0.8-1.9c-0.3 0.5-0.7 0.9-0.9 1.4 c-5.7 12-11.4 24-17.1 36.1c-1.1 2.3-1.4 4.6-1 7.4c0.5 3.8 0.6 7.7 0.7 11.6c0.1 6 1.7 11.3 3.4 16.7c0.2 0.7 0.4 1.4 0.4 2.2 c-2.7-3.1-3.2-7.6-4.6-11.8c-1.4 2.6-2 5.2-2.1 8.3c-0.1 3.7-0.7 7.4-1.2 11.1c-0.3 2.1-1.2 3.7-3.3 4.9c2.1-4.9 2.3-9.6 2.1-14.4 c-0.2-3.8 0.6-7.4 1.9-10.8c2.3-5.9 2.2-5.9 1.6-12.5c-0.2-1.9-0.2-3.8-0.3-6c-1.9 4.5-3.2 9.2-4.4 13.8c-1.1 4.3-1.9 8.7-2.8 13 c-0.1 0.5-0.5 0.9-0.8 1.3c-0.1-0.5-0.2-1-0.2-1.4c0.4-3.7 0.8-7.4 1.2-11.1c0.1-0.6 0-1.2-0.1-1.7c-0.4 0.2-0.7 0.3-1.1 0.5 c-5.4 3.4-8.5 9.2-9.9 16.7c0 0.3 0 0.5-0.1 0.8c-0.3 0.6-0.6 1.2-0.9 1.8c0-0.7-0.2-1.5-0.1-2.1c0.7-3.5 1.4-6.9 2.2-10.4 c0.5-2.3 1.7-4 3.2-5.3c2.5-2.1 4.9-4.3 7.2-6.6c0.7-0.7 1.5-1.7 1.8-2.8c2-8 4.5-15.7 7.5-23.1c0.2-0.5 0.2-1.2 0.3-1.8 c-0.5 0-1-0.1-1.4 0.1c-2.5 1.5-5 2.9-7.3 4.8c-3 2.5-5.8 5.6-8.8 8.4c-0.3 0.3-0.6 0.4-1 0.4c1.9-3.8 4.6-6.5 7.4-9 c4.6-4.1 9.4-7.9 14-11.8c0.5-0.4 1-0.9 1.3-1.6c2.7-6.4 5.4-12.8 8.5-20c-1.8 1.4-2.9 2.5-4.2 3.2c-6.4 3.2-12.9 5.6-19.7 7.2 c-4.9 1.1-9.3 3.9-12.4 9.3c-0.5 0.8-1 1.6-1.6 2.2c-0.2 0.2-1 0.2-1 0.2c-0.3-3.2-1.5-0.7-1.8-0.3c-2.1 2.4-4.2 4.7-5.9 7.4 c-1.9 3-1.7 7-1.1 10.4c1.1 5.8-0.4 10.6-2.5 15.5c0.2-2.1 0.1-4.2 0.5-6.1c1-4.7-0.5-9.2-0.2-13.9c0-0.3-0.3-0.8-0.4-0.8 c-0.2 0-0.5 0.3-0.7 0.5c-0.9 1.5-1.8 3-2.7 4.6c-0.4 0.7-0.7 1.5-1.2 2.2c-0.2 0.3-0.6 0.4-0.9 0.6c0-0.4 0.1-0.7 0.2-1.1 c0.1-0.4 0.2-0.9 0.3-1.2c-2.4 1.7-4.7 3.5-7.1 5.1c-2.9 1.9-5.8 3.7-8.1 6.9c-0.2 0.3-0.7 0.4-1 0.6c0.1-0.6 0-1.3 0.2-1.7 c0.7-1 1.5-2.1 2.4-2.8c2.8-2.4 5.6-4.8 8.4-7.1c3.7-3.1 7-6.5 9.7-11.3c4-7.3 9-13.7 15.7-16.8c0.7-0.3 1.4-0.8 2.1-1.7 c-2.2 0-4.4 0-6.6 0c-0.7 0-1.4 0-2-0.1c-0.3-0.1-0.5-0.6-0.8-0.8c0.2-0.3 0.4-0.7 0.6-0.7c1.3-0.3 2.7-0.6 4-0.8 c4.5-0.6 8.9-1.2 13.4-1.8c0.5-0.1 0.9-0.4 1.7-0.7c-2-1.1-3.8-1.7-5.3-3c-2.3-1.9-4.5-4.1-6.5-6.5c-1.1-1.2-1.7-1.6-2.9-0.4 c-4.4 4.3-8.9 8.3-13.2 12.8c-1.9 2-3.3 4.8-4.9 7.2c-0.4 0.7-0.8 1.3-1.7 2.7c0.4-4 1.6-6.5 3.4-8.5c1.8-2 3.5-3.9 5.8-6.4 c-1.2 0.2-1.9 0.2-2.5 0.5c-4.4 1.7-8.8 3.5-13.2 5.2c-0.3 0.1-0.7-0.1-1-0.1c0.2-0.4 0.4-1 0.7-1.1c3.6-1.8 7.1-3.6 10.7-5.2 c2.2-1 4.5-1.7 6.8-2.3c3.6-0.9 6-4.2 8.4-7.4c0.3-0.4 0.3-1.1 0.4-1.7c-0.4-0.1-0.9-0.5-1.3-0.3c-2.6 0.9-5.1 1.9-7.6 2.7 c-0.4 0.1-0.9 0-1.4 0c0.3-0.4 0.5-1.1 0.9-1.3c3.6-1.9 7.2-3.7 10.9-5.4c1.5-0.7 3-1.1 4.9-1.8c-7.8-2.7-15.2-4.8-22.9-1.9 c3.3-2.8 11-4.6 14.7-3.7c4.5 1.1 9 2.2 13.5 3.3c0.6 0.2 1.4 0.1 2-0.1c7.2-2.2 14.5-4.5 21.2-8.7c7.3-4.5 13.4-11.2 18.4-19.9 c3.9-7 2.8-14.2 2.9-22.4C124.3 432.1 136.5 433.3 141.3 433.3z M84.5 503.9c0.9-0.3 2.9-0.5 4.5-1.5c4-2.7 7.9-5.6 11.6-8.8 c3-2.6 6.1-5.2 7.9-9.6c1.5-3.6 2.9-7.3 4.3-11c0.2-0.5 0.1-1.2 0.1-1.8c-0.4 0.2-0.9 0.3-1.3 0.6c-2.7 1.9-5.2 4.1-8 5.7 c-7.2 4.1-14.7 6.7-22.4 8.6c-4.1 1.1-8.3 1.9-12.3 3.1c-3.2 0.9-3.7 3.7-1.3 6.5C72.1 501 77.6 503.2 84.5 503.9z M176.5 487.5 c0-0.1 0-0.3-0.1-0.4c-3.9-0.9-7.8-1.7-11.7-2.8c-3.9-1.1-7.7-2.7-11.2-5.4c-3.3-2.6-6.6-5.3-9.9-8c0.4 1.4 1 2.3 1.6 3.3 c3.7 5.5 8.2 9.4 13 12.9c2.4 1.7 4.7 3 7.4 2.6c2.3-0.3 4.6-0.6 7-1C174 488.5 175.2 487.9 176.5 487.5z"/>
</g>
<g id="Stones">
    <g>
        <path fill="#654D00" d="M111.8 437.2c1.1-5 2-5.2-1.5-8.3c-3.5-3.1-6.6-5.8-8.1-7.2c-1.4-1.4-1.7 3-2.1 5.4 c-0.4 2.4-1.2 3.9 0.7 5.4C102.6 434 111.6 438.5 111.8 437.2z"/>
        <path fill="#443200" d="M95.8 436.4c1.7 0.1 16.7 2 16 0.8c-0.7-1.2-10.8-6.8-12.1-6.4C98.4 431.2 95.8 436.4 95.8 436.4z"/>
        <path fill="#8E6500" d="M101.6 421.4c-2 0.9-7.8 8.4-8.2 10.1c-0.4 1.8-0.3 1.3 0.7 2.9c1 1.6 1.1 1.9 1.8 1.9 c0.6 0 3.7-4.1 4.3-5.6C100.8 429.4 102.6 420.9 101.6 421.4z"/>
    </g>
    <g>
        <path fill="#654D00" d="M198.3 442.6c-1-3.2-2.1-3.3 1.9-5.4c4-2.1 7.6-3.9 9.2-4.9c1.6-1 1.8 1.9 2.2 3.4 c0.4 1.5 1.2 2.5-0.9 3.5C208.8 440.2 198.6 443.5 198.3 442.6z"/>
        <path fill="#443200" d="M216.3 441.6c-1.9 0.1-18.7 1.8-17.9 1c0.8-0.8 12.3-4.7 13.8-4.5C213.6 438.3 216.3 441.6 216.3 441.6z"/>
        <path fill="#8E6500" d="M210.4 432.1c2.2 0.5 8.5 5.2 8.8 6.3c0.4 1.1 0.3 0.8-0.9 1.9c-1.2 1.1-1.3 1.3-2.1 1.3 c-0.7 0.1-4-2.6-4.7-3.5C211 437.2 209.1 431.8 210.4 432.1z"/>
    </g>
    <g>
        <path fill="#654D00" d="M225.3 440.6c-2.1-0.6-2.9-0.6-2.5-2.3c0.5-1.7 1.2-1.5 1.2-1.5s1 2.6 2.2 2.8c1.2 0.2 1.7 0.5 1.7 0.5 S226.9 441 225.3 440.6z"/>
        <path fill="#8E6500" d="M224 436.7c1.9-0.5 2.1-0.7 4 0c1.8 0.7 2.2 2.6 0 3.3c-2.2 0.6-2.6-0.6-3.3-1.1 C224 438.3 224 436.7 224 436.7z"/>
    </g>
    <g>
        <path fill="#654D00" d="M922.5 426.2c-3.9-1.1-5.5-1.1-4.6-4.3c0.9-3.2 2.2-2.8 2.2-2.8s1.9 4.7 4.1 5.2c2.2 0.4 3.2 0.9 3.2 0.9 S925.4 427 922.5 426.2z"/>
        <path fill="#8E6500" d="M920 419.1c3.6-0.9 4-1.4 7.4 0c3.4 1.4 4.1 4.9 0 6.1c-4.1 1.2-4.8-1.1-6.1-2.1 C919.9 422 920 419.1 920 419.1z"/>
    </g>
    <g>
        <path fill="#654D00" d="M876.4 427.5c0.9-4.2 1.7-4.4-1.3-7c-2.9-2.6-5.6-4.9-6.8-6.1c-1.2-1.2-1.5 2.5-1.8 4.6 c-0.4 2-1 3.3 0.6 4.5C868.6 424.7 876.2 428.6 876.4 427.5z"/>
        <path fill="#443200" d="M862.9 426.8c1.4 0.1 14.1 1.7 13.5 0.7c-0.6-1-9.1-5.7-10.2-5.4C865 422.4 862.9 426.8 862.9 426.8z"/>
        <path fill="#8E6500" d="M867.7 414.2c-1.7 0.8-6.6 7.1-6.9 8.6c-0.3 1.5-0.3 1.1 0.6 2.5c0.9 1.4 1 1.6 1.5 1.6 c0.5 0 3.1-3.5 3.7-4.7C867.1 420.9 868.7 413.7 867.7 414.2z"/>
    </g>
</g>
<g id="Man">
    <g>
        <g>
            <path fill="#73571E" d="M253.7 419c-1.2 0.4-0.4 2.7-0.2 3.6c0.3 1.4 0.7 2.9 1.4 4.2c0.8 1.4 0.2 3.9 2.5 3.9 c0.6 0 2-0.2 2.3-0.9c0.3-0.5-0.3-1.4-0.5-1.9c-0.5-1.6-0.5-3.1-0.3-4.7c0.2-1.2 0-3.3-1.2-4C256.5 418.5 254.9 418.6 253.7 419z "/>
            <path fill="#B39C6B" d="M252.2 434.3c-0.2-0.8-0.7-2.5-1.7-2.6c-0.1 0.3-0.2 0.5-0.3 0.7c0 0.3 0 0.6 0 0.9c0 0.4 0 0.7 0 1 c0 0.3-0.1 0.9 0.1 1.2c0.2 0.3 0.5 0.5 0.7 0.8c0.2 0.5 0.3 0.9 0.3 1.4c0 0.5 0.1 1 0.3 1.4c0.3 0.5 0.6 1.1 1.2 1.4 c0.9 0.4 1.7 0.9 2.7 1.1c0.5 0.1 1 0.1 1.5 0.2c1.2 0.1 2.6 0.2 3.9 0c0.5-0.1 0.9-0.1 1.4-0.2c0.5-0.1 0.9-0.2 1.4-0.3 c0.5-0.1 1-0.2 1.5-0.4c0.1-0.1 0.3-0.1 0.4-0.2c0.3-0.2 0.3-0.4 0.3-0.7c0-0.5 0-0.9-0.1-1.4c0-0.1 0-0.3-0.1-0.4 c-0.1-0.2-0.6-0.3-0.8-0.4c-0.4-0.1-0.7 0.2-1.1 0.2c-0.9 0.1-1.8 0-2.8-0.1c-1.3-0.1-2.5-0.4-3.8-0.6c-0.8-0.2-1.9-0.1-2.7-0.5 C253.4 436.4 252.5 435.5 252.2 434.3z"/>
            <path fill="#8A6924" d="M253.5 421.9c0 0.6 0.2 1.4 0.4 1.9c0.2 0.5 0.4 1 0.7 1.5c0.2 0.4 0.5 0.8 0.7 1.3 c0.2 0.5 0.3 1 0.5 1.4c0.2 0.4 0.2 0.8 0.3 1.1c0.1 0.3 0.3 0.4 0.4 0.7c0.1 0.2 0.1 0.5 0.2 0.7c0.5 0.1 1.8-0.3 2.1-0.4 c0.4-0.1-0.1-0.6-0.2-0.9c0.1-0.3 0.1-0.6 0-0.8c-0.1-0.8-0.5-1.6-0.4-2.5c0-0.5 0.1-1 0.2-1.5c0.1-0.9 0.3-1.7 0.2-2.6 c-0.1-0.8-0.4-1.6-0.7-2.3c-0.1-0.3-0.2-0.6-0.4-0.8c0.3-0.1 0.6-0.1 0.9 0.1c0.3 0.3 0.5 0.8 0.6 1.2c0.2 0.9 0.1 1.9 0.2 2.8 c0 0.9 0.3 1.8 0.4 2.7c0.1 1.3 0.4 2.8 1 4c0.2 0.3 0.3 0.7 0.5 1c0.3 0.4 0.5 0.9 0.8 1.3c0.4 0.5 0.7 1 1 1.5 c0.3 0.5 0.5 0.9 0.8 1.4c0.2 0.4 0.4 0.6 0.7 0.9c0.2 0.2 0.3 0.5 0.4 0.7c0.2 0.6 0.3 1.4-0.2 1.9c-0.6 0.6-1.7 0.8-2.5 0.9 c-0.9 0.2-1.7 0.3-2.6 0.3c-1 0-2.1 0.1-3.1-0.1c-0.7-0.1-1.4-0.3-2-0.7c-0.3-0.2-0.6-0.4-0.8-0.6c-0.2-0.2-0.5-0.4-0.7-0.6 c-0.2-0.2-0.3-0.6-0.5-0.9c-0.2-0.3-0.3-0.6-0.3-1c0-0.5 0-1.1-0.1-1.5c-0.2-0.8-1.1-1.1-1.3-2c-0.1-0.7 0.1-1.4 0.2-2.1 c0-0.4 0.1-0.9 0.1-1.3c0-0.3 0.1-0.7 0.1-1c0-0.7 0.2-1.4 0.3-2.1c0.1-0.8 0-1.7-0.1-2.5c-0.1-0.4-0.1-0.7-0.2-1.1 c0-0.4 0-0.8-0.1-1.2c-0.1-0.6-0.3-1.3 0-2c0.1-0.2 0.3-0.4 0.5-0.6c-0.1 0.1 0 0.6 0 0.7c0.1 0.2 0.4 0.3 0.6 0.3 c0.5 0.1 1.2-0.1 1.5 0.4C253.8 420.4 253.5 421.2 253.5 421.9z"/>
            <path fill="#73571E" d="M254.2 434c0 0-0.1 0-0.1 0c-0.4-0.1-0.6-0.4-0.8-0.7c-0.1-0.2-0.3-0.4-0.5-0.6c-0.1 0-0.1-0.1-0.2 0 c-0.2 0-0.3 0.2-0.4 0.4c-0.1 0.1-0.2 0.2-0.3 0.1c-0.1-0.1-0.2-0.2-0.1-0.3c0.1-0.3 0.4-0.6 0.7-0.7c0.2-0.1 0.5 0 0.6 0.1 c0.2 0.2 0.4 0.4 0.6 0.7c0.2 0.2 0.3 0.5 0.5 0.5c0.1 0 0.2 0 0.4-0.2c0.2-0.2 0.4-0.4 0.6-0.6c0.1-0.2 0.3-0.3 0.4-0.5l0 0 c0.3-0.3 0.7-0.6 0.8-1.1c0.2-0.5 0-0.9-0.2-1.3c0-0.1-0.1-0.2-0.1-0.3c0-0.1 0-0.3 0.1-0.3c0.1-0.1 0.3 0 0.3 0.1 c0 0.1 0.1 0.2 0.1 0.3c0.2 0.5 0.5 1.1 0.2 1.7c-0.2 0.5-0.6 0.9-0.9 1.3l0 0c-0.1 0.1-0.3 0.3-0.4 0.4 c-0.2 0.2-0.4 0.5-0.7 0.7C254.6 433.9 254.4 434 254.2 434z"/>
            <path fill="#73571E" d="M262.1 432.5c-0.1 0-0.1 0-0.2-0.1c-0.1-0.1-0.2-0.2-0.4-0.2c-0.2 0-0.4-0.1-0.6-0.1 c-0.4 0-0.9-0.1-1.3-0.3c-0.5-0.3-0.6-0.9-0.8-1.4c-0.1-0.3-0.2-0.5-0.3-0.7c-0.1-0.1-0.1-0.3-0.1-0.4c0-0.1 0-0.1-0.1-0.2 c0-0.1 0-0.3 0.1-0.3c0.1 0 0.3 0 0.3 0.1c0 0.1 0.1 0.2 0.1 0.3c0 0.1 0 0.2 0.1 0.3c0.1 0.2 0.2 0.5 0.3 0.8 c0.1 0.5 0.3 0.9 0.6 1.1c0.3 0.2 0.6 0.2 1 0.3c0.2 0 0.4 0 0.7 0.1c0.2 0.1 0.5 0.2 0.7 0.4c0.1 0.1 0.1 0.3 0 0.3 C262.2 432.5 262.1 432.5 262.1 432.5z"/>
            <path fill="#B39C6B" d="M255.6 431.4c-0.2 0-0.3-0.1-0.3-0.3c0-0.9 3.2-1.1 3.3-1.1c1-0.1 1.5 0 1.5 0.4c0 0.1-0.1 0.3-0.2 0.3 c-0.1 0-0.2 0-0.3-0.1c-0.6-0.2-3.4 0.3-3.8 0.6C255.9 431.3 255.8 431.4 255.6 431.4z"/>
            <path fill="#8A6924" d="M258.7 440.4c-0.9 0-1.8-0.1-2.8-0.3c-1.1-0.2-2.3-0.5-3.2-1.4c-0.8-0.8-1.1-2-1.3-2.9 c-0.1-0.2-0.1-0.5-0.1-0.7c0-0.3-0.1-0.6-0.2-0.8c-0.1-0.3-0.5-0.9-0.8-1.1c-0.1-0.1-0.1-0.2 0-0.3c0.1-0.1 0.2-0.1 0.3 0 c0.4 0.3 0.8 0.9 1 1.3c0.1 0.3 0.1 0.6 0.2 0.9c0 0.2 0.1 0.4 0.1 0.6c0.2 0.8 0.5 2 1.2 2.7c0.8 0.8 1.9 1 2.9 1.2 c1.3 0.2 2.5 0.3 3.6 0.2c0.6 0 1.2-0.2 1.8-0.3l0.5-0.1c0.6-0.1 1.2-0.3 1.8-0.5l0.2-0.1c0.4-0.2 1.1-0.4 1.3-0.7 c0.1-0.1 0.2-0.2 0.3-0.1c0.1 0.1 0.2 0.2 0.1 0.3c-0.3 0.5-1 0.8-1.6 0.9l-0.2 0.1c-0.6 0.2-1.2 0.4-1.9 0.5l-0.5 0.1 c-0.6 0.1-1.2 0.2-1.9 0.3C259.4 440.4 259.1 440.4 258.7 440.4z"/>
            <path fill="#B39C6B" d="M253.1 423.4c-0.1 0-0.2 0-0.2-0.1c0-0.1-0.1-0.2 0-0.3c0.1-0.2 0.2-0.3 1.4-0.7c0.6-0.2 1.4-0.5 2-0.7 c0.1 0 0.2-0.1 0.3-0.1c0.6-0.2 1-0.4 1.5-0.8c0.1-0.1 0.1-0.1 0.2-0.2c0.1-0.1 0.2-0.2 0.3-0.3c0-0.1 0-0.1 0.1-0.2 c0.1-0.1 0.3-0.1 0.4 0.1c0.2 0.3-0.1 0.5-0.4 0.8c-0.1 0.1-0.1 0.1-0.2 0.2c-0.5 0.4-1 0.7-1.6 0.9c-0.1 0-0.2 0.1-0.3 0.1 c-0.6 0.2-1.3 0.5-2 0.7c-0.5 0.2-1 0.3-1.1 0.4c0 0 0 0-0.1 0.1C253.2 423.4 253.1 423.4 253.1 423.4z"/>
            <path fill="#B39C6B" d="M258.9 422.6c-0.1 0-0.1 0-0.2-0.1c-0.1 0-0.1-0.1-0.1-0.2c-0.3-0.1-1.2-0.4-1.8-0.5 c-0.6-0.2-1.2-0.3-1.7-0.5c-1-0.4-2-0.5-2.3-0.4c-0.1 0.1-0.2 0.1-0.3 0.1c-0.1 0-0.3-0.2-0.2-0.3c0-0.1 0.1-0.2 0.2-0.3 c0.5-0.3 1.9 0 2.8 0.4c0.4 0.1 1 0.3 1.6 0.5c1.5 0.4 2.1 0.6 2.2 0.9c0 0.1 0 0.2-0.1 0.3C259.1 422.6 259 422.6 258.9 422.6z"/>
            <path fill="none" stroke="#B39C6B" stroke-width="4" stroke-linecap="round" stroke-miterlimit="10" d="M260.5 430.1"/>
            <path fill="#B39C6B" d="M253.8 423.6c0.3 0 0.6 0.1 1 0.2c0.5 0.1 0.9 0.1 1.2 0.2c1 0.2 2 0.5 2.3 0.7c0 0 0 0.1 0 0.1 c0 0.1 0.1 0.2 0.2 0.2c0 0 0.1 0 0.1 0c0.2-0.1 0.2-0.2 0.2-0.3c0-0.1-0.1-0.5-2.8-1.1c-0.3-0.1-0.8-0.1-1.2-0.2 c-0.4-0.1-0.9-0.1-1.3-0.2C253.7 423.2 253.8 423.4 253.8 423.6z"/>
            <path fill="#B39C6B" d="M254.6 425.3c0 0.1 0.1 0.2 0.1 0.3c1.4 0.2 3.3 0.7 3.7 0.9c0 0.1 0.1 0.1 0.2 0.1c0 0 0 0 0.1 0 c0.1 0 0.2-0.1 0.3-0.2c0-0.1 0-0.2-0.1-0.3c-0.3-0.4-3-1-4.4-1.1C254.5 425.1 254.5 425.2 254.6 425.3z"/>
            <path fill="#B39C6B" d="M255.7 427.6c1 0.1 2.7 0.4 3 0.6c0 0.1 0.1 0.2 0.3 0.2c0.2 0 0.3-0.1 0.3-0.3c0-0.4-0.4-0.6-3.7-1.1 C255.5 427.2 255.6 427.4 255.7 427.6z"/>
            <g>
                <path fill="#B39C6B" d="M253.9 425.6c0.1 0 0.1 0 0.2-0.1c0.1-0.1 0.1-0.1 0.1-0.2c0.1-0.1 0.4-0.3 1.5-0.8l0 0 c0.6-0.3 2-1.1 2.9-1.6c0-0.2 0-0.4 0-0.6c-0.8 0.5-2.4 1.4-3.1 1.7l0 0c-1.8 0.8-1.8 1.1-1.9 1.2c0 0.1 0 0.2 0.1 0.3 C253.7 425.5 253.8 425.6 253.9 425.6z"/>
            </g>
            <path fill="#B39C6B" d="M254.6 427.4c0.1 0 0.1 0 0.2-0.1c0.1-0.1 0.1-0.2 0.1-0.3c0.1-0.2 0.6-0.7 1.1-0.8 c0.4-0.1 1.6-0.6 2.3-1c0-0.2 0.1-0.5 0.1-0.7c-0.5 0.3-2.2 1-2.6 1.2c-0.7 0.2-1.4 0.8-1.5 1.3c-0.1 0.2 0 0.3 0.1 0.4 C254.4 427.4 254.5 427.4 254.6 427.4z"/>
            <path fill="#B39C6B" d="M255.4 429.3C255.4 429.3 255.5 429.3 255.4 429.3c0.2 0 0.3-0.2 0.3-0.3c0.1-0.4 1.8-1.6 2.6-2.2 c0-0.2-0.1-0.4-0.1-0.6c-0.8 0.4-2.3 1.5-2.8 2.1c-0.3 0.3-0.4 0.5-0.3 0.7C255.2 429.2 255.3 429.3 255.4 429.3z"/>
            <path fill="#B39C6B" d="M256.6 430c0.4-0.3 1.3-1 2.1-1.5c0 0 0-0.1 0-0.1c0-0.2-0.1-0.3-0.1-0.5c-1 0.7-1.7 1.2-2.2 1.6 C256.5 429.6 256.5 429.9 256.6 430z"/>
            <path fill="#B39C6B" d="M256.3 429.4c0.8 0.1 2.1 0.4 2.6 0.5c0-0.2-0.1-0.3-0.2-0.6c-0.7-0.2-1.6-0.3-2.6-0.5 c0 0.1 0 0.2 0.1 0.3C256.2 429.2 256.2 429.3 256.3 429.4z"/>
        </g>
        <g>
            <path fill="#73571E" d="M238.8 420c1.2 0.4 0.4 2.7 0.2 3.6c-0.3 1.4-0.7 2.9-1.4 4.2c-0.8 1.4-0.2 3.9-2.5 3.9 c-0.6 0-2-0.2-2.3-0.9c-0.3-0.5 0.3-1.4 0.5-1.9c0.5-1.6 0.5-3.1 0.3-4.7c-0.2-1.2 0-3.3 1.2-4C236 419.5 237.6 419.6 238.8 420z "/>
            <path fill="#B39C6B" d="M240.3 435.3c0.2-0.8 0.7-2.5 1.7-2.6c0.1 0.3 0.2 0.5 0.3 0.8c0 0.3 0 0.6 0 0.9c0 0.4 0 0.7 0 1 c0 0.3 0.1 0.9-0.1 1.2c-0.2 0.3-0.5 0.5-0.7 0.8c-0.2 0.4-0.3 0.9-0.3 1.4c0 0.5-0.1 1-0.3 1.4c-0.3 0.5-0.6 1.1-1.2 1.4 c-0.9 0.4-1.7 0.9-2.7 1.1c-0.5 0.1-1 0.1-1.5 0.2c-1.2 0.1-2.6 0.2-3.9 0c-0.5-0.1-0.9-0.1-1.4-0.2c-0.5-0.1-0.9-0.2-1.4-0.3 c-0.5-0.1-1-0.2-1.5-0.4c-0.1-0.1-0.3-0.1-0.4-0.2c-0.3-0.2-0.3-0.4-0.3-0.7c0-0.5 0-0.9 0.1-1.4c0-0.1 0-0.3 0.1-0.4 c0.1-0.2 0.6-0.3 0.8-0.4c0.4-0.1 0.7 0.2 1.1 0.2c0.9 0.1 1.8 0 2.8-0.1c1.3-0.1 2.5-0.4 3.8-0.6c0.8-0.1 1.9-0.1 2.7-0.5 C239.1 437.4 240 436.5 240.3 435.3z"/>
            <path fill="#8A6924" d="M239 422.9c0 0.6-0.2 1.4-0.4 1.9c-0.2 0.5-0.4 1-0.7 1.5c-0.2 0.4-0.5 0.8-0.7 1.3 c-0.2 0.5-0.3 1-0.5 1.4c-0.2 0.4-0.2 0.8-0.3 1.1c-0.1 0.3-0.3 0.4-0.4 0.7c-0.1 0.2-0.1 0.5-0.2 0.7c-0.5 0.1-1.8-0.3-2.1-0.4 c-0.4-0.1 0.1-0.6 0.2-0.9c-0.1-0.3-0.1-0.6 0-0.8c0.1-0.8 0.5-1.6 0.4-2.5c0-0.5-0.1-1-0.2-1.5c-0.1-0.9-0.3-1.7-0.2-2.6 c0.1-0.8 0.4-1.6 0.7-2.3c0.1-0.3 0.2-0.6 0.4-0.8c-0.3-0.1-0.6-0.1-0.9 0.1c-0.3 0.3-0.5 0.8-0.6 1.2c-0.2 0.9-0.1 1.9-0.2 2.8 c0 0.9-0.3 1.8-0.4 2.7c-0.1 1.3-0.4 2.8-1 4c-0.2 0.3-0.3 0.7-0.5 1c-0.3 0.4-0.5 0.9-0.8 1.3c-0.4 0.5-0.7 1-1 1.5 c-0.2 0.5-0.5 0.9-0.8 1.4c-0.2 0.4-0.4 0.6-0.7 0.9c-0.2 0.2-0.3 0.5-0.4 0.7c-0.2 0.6-0.3 1.4 0.2 1.9c0.6 0.6 1.7 0.8 2.5 0.9 c0.9 0.2 1.7 0.3 2.6 0.3c1 0.1 2.1 0.1 3.1-0.1c0.7-0.1 1.4-0.3 2-0.7c0.3-0.2 0.6-0.4 0.8-0.6c0.2-0.2 0.5-0.4 0.7-0.6 c0.2-0.2 0.3-0.6 0.5-0.9c0.2-0.3 0.3-0.6 0.3-1c0-0.5 0-1.1 0.1-1.5c0.2-0.8 1.1-1.1 1.3-2c0.1-0.7-0.1-1.4-0.2-2.1 c0-0.4-0.1-0.9-0.1-1.3c0-0.3-0.1-0.7-0.1-1c0-0.7-0.2-1.4-0.3-2.1c-0.1-0.8 0-1.7 0.1-2.5c0.1-0.4 0.1-0.7 0.2-1.1 c0-0.4 0-0.8 0.1-1.2c0.1-0.6 0.3-1.3 0-2c-0.1-0.2-0.3-0.4-0.5-0.6c0.1 0.1 0 0.6 0 0.7c-0.1 0.2-0.4 0.3-0.6 0.3 c-0.5 0.1-1.2-0.1-1.5 0.4C238.8 421.4 239 422.2 239 422.9z"/>
            <path fill="#73571E" d="M238.3 435c-0.2 0-0.4-0.1-0.7-0.3c-0.3-0.2-0.5-0.4-0.7-0.7c-0.1-0.2-0.2-0.3-0.4-0.4l0 0 c-0.4-0.4-0.7-0.7-0.9-1.2c-0.2-0.6 0-1.2 0.2-1.7c0-0.1 0.1-0.2 0.1-0.3c0-0.1 0.2-0.2 0.3-0.1c0.1 0 0.2 0.2 0.1 0.3 c0 0.1-0.1 0.2-0.1 0.3c-0.2 0.5-0.4 0.9-0.2 1.3c0.2 0.4 0.5 0.7 0.8 1.1l0 0c0.2 0.1 0.3 0.3 0.4 0.5c0.2 0.2 0.4 0.4 0.6 0.6 c0.2 0.1 0.3 0.2 0.4 0.2c0.2 0 0.3-0.3 0.5-0.5c0.2-0.2 0.3-0.5 0.6-0.7c0.2-0.1 0.4-0.2 0.6-0.1c0.3 0.1 0.6 0.3 0.7 0.6 c0.1 0.1 0 0.3-0.1 0.3c-0.1 0.1-0.3 0-0.3-0.1c-0.1-0.2-0.2-0.3-0.4-0.4c-0.1 0-0.1 0-0.2 0c-0.2 0.1-0.3 0.3-0.5 0.6 c-0.2 0.3-0.4 0.6-0.8 0.7C238.4 434.9 238.3 435 238.3 435z"/>
            <path fill="#73571E" d="M230.4 433.5c-0.1 0-0.1 0-0.1-0.1c-0.1-0.1-0.1-0.2 0-0.3c0.2-0.3 0.5-0.4 0.7-0.4 c0.2-0.1 0.4-0.1 0.7-0.1c0.4 0 0.7-0.1 1-0.3c0.3-0.2 0.4-0.7 0.6-1.1c0.1-0.3 0.2-0.6 0.3-0.8c0-0.1 0.1-0.2 0.1-0.3 c0-0.1 0-0.2 0.1-0.3c0-0.1 0.2-0.2 0.3-0.1c0.1 0 0.2 0.2 0.1 0.3c0 0.1 0 0.1-0.1 0.2c0 0.1-0.1 0.3-0.1 0.4 c-0.1 0.2-0.2 0.4-0.3 0.7c-0.1 0.5-0.3 1.1-0.8 1.4c-0.4 0.3-0.8 0.3-1.3 0.3c-0.2 0-0.4 0-0.6 0.1c-0.2 0.1-0.3 0.1-0.4 0.2 C230.6 433.5 230.5 433.5 230.4 433.5z"/>
            <path fill="#B39C6B" d="M236.9 432.4c0.2 0 0.3-0.1 0.3-0.3c0-0.9-3.2-1.1-3.3-1.1c-1-0.1-1.5 0-1.5 0.4c0 0.1 0.1 0.3 0.2 0.3 c0.1 0 0.2 0 0.3-0.1c0.6-0.2 3.4 0.3 3.8 0.6C236.7 432.3 236.8 432.4 236.9 432.4z"/>
            <path fill="#8A6924" d="M233.8 441.4c-0.3 0-0.6 0-0.9 0c-0.6 0-1.3-0.2-1.9-0.3l-0.5-0.1c-0.7-0.1-1.3-0.3-1.9-0.5l-0.2-0.1 c-0.5-0.2-1.3-0.5-1.6-0.9c-0.1-0.1 0-0.3 0.1-0.3c0.1-0.1 0.3 0 0.3 0.1c0.2 0.3 0.9 0.6 1.3 0.7l0.2 0.1 c0.5 0.2 1.1 0.3 1.8 0.5l0.5 0.1c0.6 0.1 1.2 0.2 1.8 0.3c1.1 0.1 2.3 0 3.6-0.2c1-0.2 2.2-0.5 2.9-1.2c0.7-0.7 1-1.8 1.2-2.7 c0-0.2 0.1-0.4 0.1-0.6c0-0.3 0.1-0.6 0.2-0.9c0.1-0.4 0.6-1 1-1.3c0.1-0.1 0.3-0.1 0.3 0c0.1 0.1 0.1 0.3 0 0.3 c-0.3 0.2-0.7 0.8-0.8 1.1c-0.1 0.2-0.1 0.5-0.2 0.8c0 0.2-0.1 0.5-0.1 0.7c-0.2 0.9-0.5 2.1-1.3 2.9c-0.8 0.9-2.1 1.2-3.2 1.4 C235.6 441.3 234.7 441.4 233.8 441.4z"/>
            <path fill="#B39C6B" d="M239.5 424.4c0.1 0 0.2 0 0.2-0.1c0.1-0.1 0.1-0.2 0-0.3c-0.1-0.2-0.2-0.3-1.4-0.7 c-0.6-0.2-1.4-0.5-2-0.7c-0.1 0-0.2-0.1-0.3-0.1c-0.6-0.2-1-0.4-1.5-0.8c-0.1-0.1-0.1-0.1-0.2-0.2c-0.1-0.1-0.2-0.2-0.3-0.3 c0-0.1 0-0.1-0.1-0.2c-0.1-0.1-0.3-0.1-0.4 0.1c-0.2 0.3 0.1 0.5 0.4 0.8c0.1 0.1 0.1 0.1 0.2 0.2c0.5 0.4 1 0.7 1.6 0.9 c0.1 0 0.2 0.1 0.3 0.1c0.6 0.2 1.3 0.5 2 0.7c0.5 0.2 1 0.3 1.1 0.4c0 0 0 0 0.1 0.1C239.4 424.4 239.4 424.4 239.5 424.4z"/>
            <path fill="#B39C6B" d="M233.6 423.6c0.1 0 0.1 0 0.2-0.1c0.1 0 0.1-0.1 0.1-0.2c0.3-0.1 1.2-0.4 1.8-0.5 c0.6-0.2 1.2-0.3 1.7-0.5c1-0.4 2-0.5 2.3-0.4c0.1 0.1 0.2 0.1 0.3 0.1c0.1 0 0.3-0.2 0.2-0.3c0-0.1-0.1-0.2-0.2-0.3 c-0.5-0.3-1.9 0-2.8 0.4c-0.4 0.1-1 0.3-1.6 0.5c-1.5 0.4-2.1 0.6-2.2 0.9c0 0.1 0 0.2 0.1 0.3 C233.5 423.6 233.5 423.6 233.6 423.6z"/>
            <path fill="none" stroke="#B39C6B" stroke-width="4" stroke-linecap="round" stroke-miterlimit="10" d="M232 431.1"/>
            <path fill="#B39C6B" d="M238.7 424.6c-0.3 0-0.6 0.1-1 0.2c-0.5 0.1-0.9 0.1-1.2 0.2c-1 0.2-2 0.5-2.3 0.7c0 0 0 0.1 0 0.1 c0 0.1-0.1 0.2-0.2 0.2c0 0-0.1 0-0.1 0c-0.2-0.1-0.2-0.2-0.2-0.3c0-0.1 0.1-0.5 2.8-1.1c0.3-0.1 0.8-0.1 1.2-0.2 c0.4-0.1 0.9-0.1 1.3-0.2C238.8 424.2 238.8 424.4 238.7 424.6z"/>
            <path fill="#B39C6B" d="M237.9 426.3c0 0.1-0.1 0.2-0.1 0.3c-1.4 0.2-3.3 0.7-3.7 0.9c0 0.1-0.1 0.1-0.2 0.1c0 0-0.1 0-0.1 0 c-0.1 0-0.2-0.1-0.3-0.2c0-0.1 0-0.2 0.1-0.3c0.3-0.4 3-1 4.4-1.1C238 426.1 238 426.2 237.9 426.3z"/>
            <path fill="#B39C6B" d="M236.9 428.6c-1 0.1-2.7 0.4-3 0.6c0 0.1-0.1 0.2-0.3 0.2c-0.2 0-0.3-0.1-0.3-0.3c0-0.4 0.4-0.6 3.7-1.1 C237 428.2 236.9 428.4 236.9 428.6z"/>
            <g>
                <path fill="#B39C6B" d="M238.7 426.5c-0.1 0-0.1 0-0.2-0.1c-0.1-0.1-0.1-0.1-0.1-0.2c-0.1-0.1-0.4-0.3-1.5-0.8l0 0 c-0.6-0.3-2-1.1-2.9-1.6c0-0.2 0-0.4 0-0.6c0.8 0.5 2.4 1.4 3.1 1.7l0 0c1.8 0.8 1.8 1.1 1.9 1.2c0 0.1 0 0.2-0.1 0.3 C238.8 426.5 238.7 426.5 238.7 426.5z"/>
            </g>
            <path fill="#B39C6B" d="M237.9 428.4c-0.1 0-0.1 0-0.2-0.1c-0.1-0.1-0.1-0.2-0.1-0.3c-0.1-0.2-0.6-0.7-1.1-0.8 c-0.4-0.1-1.6-0.6-2.3-1c0-0.2-0.1-0.5-0.1-0.7c0.5 0.3 2.2 1 2.6 1.2c0.6 0.2 1.4 0.8 1.5 1.3c0.1 0.2 0 0.3-0.1 0.4 C238.1 428.4 238 428.4 237.9 428.4z"/>
            <path fill="#B39C6B" d="M237.1 430.3C237.1 430.3 237.1 430.3 237.1 430.3c-0.2 0-0.3-0.2-0.3-0.3c-0.1-0.4-1.8-1.6-2.6-2.2 c0-0.2 0.1-0.4 0.1-0.6c0.8 0.4 2.3 1.5 2.8 2.1c0.3 0.3 0.4 0.5 0.3 0.7C237.3 430.2 237.2 430.3 237.1 430.3z"/>
            <path fill="#B39C6B" d="M235.9 431c-0.4-0.3-1.3-1-2.1-1.5c0 0 0-0.1 0-0.1c0-0.2 0.1-0.3 0.1-0.5c1 0.7 1.7 1.2 2.2 1.6 C236.1 430.6 236 430.9 235.9 431z"/>
            <path fill="#B39C6B" d="M236.3 430.4c-0.8 0.1-2.1 0.4-2.6 0.5c0-0.2 0.1-0.3 0.2-0.6c0.7-0.2 1.6-0.3 2.6-0.5 c0 0.1 0 0.2-0.1 0.3C236.4 430.2 236.3 430.3 236.3 430.4z"/>
        </g>
        <path fill="#DECBA2" d="M213 326.4l-4.6-1.8c0.6-1.5 0.6-3.4 0.6-5.4c0.1-4.3 0.2-10.1 6.6-13.3l2.2 4.4c-3.6 1.8-3.8 4.4-3.9 8.9 C213.9 321.7 213.9 324.2 213 326.4z"/>
        <path fill="#DECBA2" d="M237.9 292.7c1.1 2.4 0.9 3.8 1.5 6.4c0.3 1.2 0.1 9.9 1 10.8c1.6 1.6 6.1 3 8.2 3.2 c3.5 0.3 4-9.2 4.5-12.6c0.5-3.6 1.3-5.8 1.4-9.4"/>
        <path fill="#969390" d="M261.1 335.6c-0.2-6.5 0.2-14.1 0-20.5c-0.1-1.9 0.1-4 0.2-6.7c0.5 3.4 0.6 6.1-0.1 8.7 c-0.5 1.9 6.1 4.4 6.6 2.2c1.4-5.5 1.1-12.9 0-17.7c-0.4-2-1.9-2.5-6.1-3.2c-2.4-0.4-6.4-0.6-7.7-0.8c-0.5 0.7-0.6 1.5-1.5 2.3 c-2.2 2.1-2.9 1.4-3.9 1.8c-0.2 1.6-0.3 3-1.1 5.5c-0.2 0.7-0.8 2.2-1.1 2.7c-0.5-1.9-0.9-3-1.3-4.7c-0.1-0.6-0.5-2.4-0.7-3.3 c-0.1-0.4-0.9-0.8-1.4-1c-2.4-1.1-4-2.8-4.1-3.1c-2.2 0-8.1 0.7-10.3 1c-3.9 0.5-9.6 2.3-13.7 5.5c-2.2 1.8 3 7.5 4.4 6.7 c3.1-1.6 5.2-2.8 8.3-3c-0.5 3.4-0.7 12.3-0.4 15.7c0.3 4 0 7.9 0.2 11.9c0.1 3.1 0.7 6.1 0.9 9.2c0.1 1.1 0.1 2.1 0.1 3.2 c-0.7 0.8-1.6 1.2-0.5 1.9c1.2 0.9 4 0.9 5.4 1c4.5 0.3 9.1 0.1 13.6 0.1c3.6 0 7.4-0.5 11 0c1.6 0.2 5.8 0.9 4.7-2.2 c-0.9-2.5-1-4.7-1-7.4C261.7 339.6 261.2 337.6 261.1 335.6z"/>
        <path fill="#4D576B" d="M231.3 424.4c1.1 0.4 10.1 0.2 11.1-0.8c0.3-3.5 0.8-27.4 1-30.7c0.8-9.9 0.9-20.6 2.7-30.4 c0-0.1 0-0.1 0 0c3.5 7.3 3.3 19.1 3.1 27c-0.1 3.8 0.8 31.9 1.2 34.1c1.9 0.4 8.4 0.6 10.7-0.6c0.2-2 0.7-12.1 0.7-14.4 c0-1.6 0.7-35.1 0.6-45.8c0-2.2 0.4-4.5 0.6-6.7c0.1-1.2 0.1-2.3 0.1-3.5c0-0.5-0.1-2.2-0.2-2.5c-0.2 0-1.4 0-1.7-0.1 c-1-0.1-2.1 0.1-3.1 0.2c-2 0.1-4.1 0-6.2 0.1c-1.8 0.1-3.7 0-5.6 0.1c-1.8 0.1-3.6 0.4-5.4 0.4c-3.8 0.1-7.4 0.3-11.2-0.1 c-2.3-0.2-2.5 1-2.2 3.3c0.4 2.8 0.8 5.6 1 8.4C228.6 365 230.3 419.3 231.3 424.4z"/>
        <g>
            <path fill="#E8D4AA" d="M232.1 284.7c0.8 2.8 1.7 7.3 4.6 8.7c2 1 6.1 0.1 8.3 0c2.9-0.1 4.4 0.5 7.3 0.5c5.7-0.1 6-5.3 7.5-9.9 c0.9-2.7 2.4-5.2 3.4-7.9c0.9-2.4 1.7-6.2 1.2-8.8c-0.2-0.8-0.4-1.2-1.1-1.6c-2.9-1.4-7.3-0.2-10.2 0.6 c-4.5 1.2-9.3 1.3-13.9 1.8c-2.2 0.2-6.1 0.4-8 1.6c-2 1.3-0.9 3.9-0.6 5.9C230.9 278.7 231.3 281.8 232.1 284.7z"/>
            <path fill="#FFF3DB" d="M241.8 270.9c-0.3 1.9 0 3.4-1.9 4.5c-1.1 0.6-2.8 0.7-4 0.1c-1.3-0.6-1.7-2.2-1.8-3.5c0-0.2 0-0.4 0-0.6 "/>
            <path fill="#FFF3DB" d="M258 269.9c-0.3 1.9 0 3.4-1.9 4.5c-1.1 0.6-2.8 0.7-4 0.1c-1.3-0.6-1.7-2.2-1.8-3.5c0-0.2 0-0.4 0-0.6"/>
            <path fill="#CCBA95" d="M247.9 267.2c-0.1 2.7-0.1 5.4 0 8c0.1 2 0.9 4.9-0.7 6.5c-0.6 0.6-1.1 0.9-1.8 0.3 c-1.2-1-0.6-2.4-0.6-3.7c0-1.7-0.2-3.3-0.2-5c0-1.9-0.5-4.6 0.3-6.3"/>
            <g>
                <path fill="#627AB5" d="M238.9 272.3c-0.1-0.9-1.3-1.1-2-0.8c-0.5 0.3-0.5 0.8-0.3 1.3C237.2 273.9 239.1 273.7 238.9 272.3z"/>
                <path fill="#FFF9EB" d="M237.7 271.4c0.6 0 1.1 0.3 1.2 0.9c0.1 0.8-0.5 1.2-1.1 1.2c-0.5 0-0.9-0.2-1.1-0.7 c-0.2-0.5-0.2-1 0.3-1.3C237.2 271.4 237.4 271.4 237.7 271.4 M237.7 270.4c-0.4 0-0.8 0.1-1.2 0.3c-1 0.5-1.3 1.5-0.7 2.6 c0.4 0.8 1.2 1.3 2 1.3c0.6 0 1.2-0.3 1.6-0.7c0.4-0.4 0.5-1 0.4-1.6C239.8 271.1 238.9 270.4 237.7 270.4L237.7 270.4z"/>
            </g>
            <g>
                <path fill="#627AB5" d="M255.4 271.4c-0.1-0.9-1.3-1.1-2-0.8c-0.5 0.3-0.5 0.8-0.3 1.3C253.7 273.1 255.6 272.8 255.4 271.4z"/>
                <path fill="#FFF9EB" d="M254.2 270.5c0.6 0 1.1 0.3 1.2 0.9c0.1 0.8-0.5 1.2-1.1 1.2c-0.5 0-0.9-0.2-1.1-0.7 c-0.2-0.5-0.2-1 0.3-1.3C253.6 270.6 253.9 270.5 254.2 270.5 M254.2 269.5c-0.4 0-0.8 0.1-1.2 0.3c-1 0.5-1.3 1.5-0.7 2.6 c0.4 0.8 1.2 1.3 2 1.3c0.6 0 1.2-0.3 1.6-0.7c0.4-0.4 0.5-1 0.4-1.6C256.2 270.2 255.3 269.5 254.2 269.5L254.2 269.5z"/>
            </g>
            <path fill="#CCBA95" d="M247.7 278.5c0.5 0.2 1.9 0.1 2 0.9c0.2 0.9-1.5 1.1-2 1.2c-1.1 0.2-3.7 0.4-4.6-0.7 c-1-1.3 2-1.3 2.6-1.3"/>
            <g>
                <path fill="#CCBA95" d="M247 287.2c-1.9 0.1-4.9 0.5-5.9-1.4c1.2 1.7 3.5 1.4 5.5 1.4c0.5 0 1-0.1 1.4-0.1"/>
                <path fill="#CCBA95" d="M244.9 288.1c-1.7 0-3.5-0.3-4.4-1.9c-0.2-0.3-0.1-0.8 0.3-1c0.3-0.2 0.8-0.1 1 0.2 c0.8 1.2 2.4 1.1 4.1 1.1c0.3 0 0.5 0 0.8 0c0.2 0 0.4 0 0.7 0c0.3 0 0.5 0 0.8 0c0.4 0 0.7 0.3 0.7 0.8c0 0.4-0.3 0.7-0.7 0.7 c0 0 0 0 0 0c-0.2 0-0.4 0-0.6 0c0 0-0.1 0-0.1 0c-0.1 0-0.2 0-0.2 0c-0.2 0-0.5 0-0.7 0C245.9 288 245.4 288.1 244.9 288.1z"/>
            </g>
            <path fill="#826F46" d="M239.9 271.3c0.7 0 2 0.4 2-0.7c-0.1-0.9-1.2-0.6-1.8-0.5c-1.1 0.1-2.3 0.3-3.4 0.3c-0.5 0-1.1 0-1.6 0 c-0.3 0-0.6 0-0.9 0.2c-0.3 0.2-0.2 0.3-0.2 0.6c-0.1 1.2 1.3 0.8 2.1 0.6C237.3 271.6 238.6 271.4 239.9 271.3z"/>
            <path fill="#826F46" d="M251 270.9c0.2 0 0.3 0 0.4 0c0.4 0 0.9-0.2 1.3-0.2c0.7-0.1 1.5 0 2.2-0.1c0.8 0 1.6 0 2.4-0.1 c0.2 0 0.6 0.1 0.7-0.2c0.1-0.1 0-0.6-0.1-0.7c-0.1-0.2-0.4-0.2-0.6-0.2c-0.6-0.1-1.2 0-1.8 0.1c-0.7 0-1.3 0-2-0.1 c-0.4 0-0.9 0-1.3 0c-0.4 0-0.8 0-1.3 0.1c-0.2 0-0.5 0-0.7 0.1c-0.2 0.2-0.1 1.1 0.1 1.3C250.5 270.9 250.7 270.9 251 270.9z"/>
        </g>
        <path fill="#373E4D" d="M230.2 358.8c-0.1 0-0.2 0-0.3 0c-0.2 0-0.3 0-0.4 0c-0.1 0-0.3-0.1-0.3-0.2c0-0.1 0.1-0.3 0.2-0.3 c0.2 0 0.4 0 0.6 0c0.2 0 0.3 0 0.5 0c1.6-0.4 1.6-1.8 1.6-3.3c0-0.2 0-0.3 0-0.5c0-0.1 0.1-0.3 0.2-0.3c0 0 0 0 0 0 c0.1 0 0.2 0.1 0.2 0.2c0 0.2 0 0.3 0 0.5c0 1.5 0.1 3.3-2 3.8C230.4 358.8 230.3 358.8 230.2 358.8z"/>
        <g>
            <path fill="#DEB249" d="M266.8 272.3c-0.3 2.2 0 5.6-3.5 4.6c-1.1-0.3-0.3-3-0.2-4c0.2-2 0.3-4.1 0.8-6.1c1-0.3 2.4-0.5 2.9 0.6 C267.5 268.8 267 270.7 266.8 272.3z"/>
            <g>
                <defs>
                    <path id="SVGID_1_" d="M266.8 272.3c-0.3 2.2 0 5.6-3.5 4.6c-1.1-0.3-0.3-3-0.2-4c0.2-2 0.3-4.1 0.8-6.1c1-0.3 2.4-0.5 2.9 0.6 C267.5 268.8 267 270.7 266.8 272.3z"/>
                </defs>
                <clipPath id="SVGID_2_">
                    <use xlink:href="#SVGID_1_" overflow="visible"/>
                </clipPath>
                <path clip-path="url(#SVGID_2_)" fill="#8A8A8A" d="M264 266.5c1.2 0.2 0.7 1.7 0.6 2.4c-0.1 0.5-0.1 1-0.2 1.5 c-0.1 1.3-0.4 2.5-0.5 3.8c-0.1 0.7 0 1.6-0.3 2.3c-0.1 0.3-0.5 0.9-0.9 0.8c-0.5-0.2-0.2-1.5-0.2-1.9c0.4-2.8 1-5.6 1.1-8.4"/>
            </g>
            <path fill="#DEB249" d="M227.6 273.7c0.1 2.2-0.5 5.6 3.1 4.9c1.2-0.2 0.6-2.9 0.6-3.9c-0.1-2 0.1-4.1-0.3-6.1 c-1-0.4-2.3-0.7-2.9 0.3C227.2 270.2 227.5 272.1 227.6 273.7z"/>
            <g>
                <defs>
                    <path id="SVGID_3_" d="M227.6 273.7c0.1 2.2-0.5 5.6 3.1 4.9c1.2-0.2 0.6-2.9 0.6-3.9c-0.1-2 0.1-4.1-0.3-6.1 c-1-0.4-2.3-0.7-2.9 0.3C227.2 270.2 227.5 272.1 227.6 273.7z"/>
                </defs>
                <clipPath id="SVGID_4_">
                    <use xlink:href="#SVGID_3_" overflow="visible"/>
                </clipPath>
                <path clip-path="url(#SVGID_4_)" fill="#8A8A8A" d="M230.9 268.2c-1.2 0-0.8 1.6-0.8 2.3c0 0.5 0 1 0 1.5c0 1.3 0.1 2.5 0.2 3.8 c0 0.8-0.1 1.6 0.1 2.3c0.1 0.3 0.5 0.9 0.8 0.8c0.6-0.1 0.4-1.5 0.3-1.9c-0.1-2.8-0.5-5.6-0.3-8.5"/>
            </g>
            <path fill="#E8E23C" d="M247.8 265.5c-3.7 0.9-7.3 1.9-11.1 2.6c-3 0.5-8 1.5-10.8 0.4c-2.5-1-1.7-3.1 0.9-2.7 c0.7-5.1 0.8-5.2 1.4-10.3c0.3-2.7 0.7-5.4 1.7-8c4-10.1 16.8-12 25.5-7.2c8.9 4.9 11.2 11.2 11.8 20.8c1.5 0.2 1.8 1.2 1.1 2.3 c-1.2 1.9-4.9 1.4-6.8 1.6C257.1 265.6 252.1 264.5 247.8 265.5z"/>
            <path fill="#E3E3E3" d="M268.7 264.8c0 0.3-0.1 0.7-0.3 1.1c-1.2 1.9-4.9 1.4-6.8 1.6c-4.5 0.5-9.5-0.6-13.8 0.5 c-3.7 0.9-7.3 1.9-11.1 2.6c-3 0.5-8 1.5-10.8 0.4c-1-0.4-1.5-1-1.5-1.5c0-0.8 0-0.6 0-2.5c0 0.5 0.5 1.1 1.5 1.5 c2.9 1.2 7.9 0.1 10.8-0.4c3.7-0.6 7.4-1.7 11.1-2.6c4.4-1.1 9.4 0 13.8-0.5c1.9-0.2 5.6 0.3 6.8-1.6c0.2-0.4 0.3-0.7 0.3-1 C268.7 264.3 268.6 264.2 268.7 264.8z"/>
            <g>
                <defs>
                    <path id="SVGID_5_" d="M247.8 265.5c-3.7 0.9-7.3 1.9-11.1 2.6c-3 0.5-8 1.5-10.8 0.4c-2.5-1-1.7-3.1 0.9-2.7 c0.7-5.1 0.8-5.2 1.4-10.3c0.3-2.7 0.7-5.4 1.7-8c4-10.1 16.8-12 25.5-7.2c8.9 4.9 11.2 11.2 11.8 20.8 c1.5 0.2 1.8 1.2 1.1 2.3c-1.2 1.9-4.9 1.4-6.8 1.6C257.1 265.6 252.1 264.5 247.8 265.5z"/>
                </defs>
                <clipPath id="SVGID_6_">
                    <use xlink:href="#SVGID_5_" overflow="visible"/>
                </clipPath>
                <path clip-path="url(#SVGID_6_)" fill="#D4CF37" d="M239.4 249.1c0-0.6 0-1.1 0.1-1.7c0.3-2.9 1-4.8 1.6-7.6 c0.1-0.6 0.2-1.8 0.7-2.2c0.4-0.3 1.9-0.3 2.5-0.4c1.8-0.3 4.1-0.6 5.9 0c-0.3 4.8-1.2 6.1-1.1 11.1c0.1 2.8-0.1 3.8-0.1 6.6 c0 0.6 0.3 2.3-0.1 2.8c-0.5 0.6-1.4 0.2-2.1 0.3c-1.5 0-5 1.1-6.4 0.3c-1.1-0.6-0.8-2.4-0.8-3.5c0-2.8 0.1-0.7-0.1-3.5 C239.5 250.6 239.5 249.8 239.4 249.1z"/>
            </g>
            <path fill="#D4CF37" d="M230.5 266.9c-0.8 0-1.7-0.1-2.5-0.4c-0.1 0-0.2-0.2-0.2-0.3c0-0.1 0.2-0.2 0.3-0.2c1.9 0.7 4 0.3 6-0.1 c0.3-0.1 0.7-0.1 1-0.2c1.7-0.3 3.3-0.7 5-1.1c3.3-0.7 6.7-1.5 10.1-1.7c1.1-0.1 2.2-0.1 3.3-0.1c2.1-0.1 4.2-0.1 6.3-0.4 c0.5-0.1 1-0.1 1.5-0.1c1.5-0.1 3.3-0.2 4.3-1c0.1-0.1 0.3-0.1 0.3 0c0.1 0.1 0.1 0.3 0 0.4c-1.2 1-3 1.1-4.6 1.1 c-0.5 0-1 0-1.5 0.1c-2.1 0.2-4.3 0.3-6.4 0.4c-1.1 0-2.2 0.1-3.3 0.1c-3.4 0.2-6.7 0.9-10 1.7c-1.6 0.4-3.3 0.8-5 1.1 c-0.3 0.1-0.6 0.1-1 0.2C233 266.7 231.7 266.9 230.5 266.9z"/>
        </g>
        <path fill="#EBE7E3" d="M253.6 297.6c-0.3 0.6-0.6 1.6-1.1 2.1c-0.7 0.7-1.7 1.4-2.6 1.7c-0.7 0.2-1.4 0.1-2 0.3 c-0.3 2.2-1.4 4.7-1.7 7.1c-0.1 0-1.2-5.6-1.9-7.3c-1.1-0.6-3.3-1.6-4-2.2c-0.4-0.3-1.1-0.9-1.3-1.5c-0.1 0-0.3 0-0.4 0 c0.2 0.4 0.9 1.3 1.6 1.8c0.6 0.5 2.7 1.5 3.8 2.1c0.4 1.2 1 4.5 2 7.5c-0.1 0.4-0.5 3.8-0.6 4.2c0.3 0.1 1.1 0.1 1.3 0 c0.7-3.1 1.7-8.6 2.4-11.6c2.7-0.4 4.1-2.1 4.8-4.1C253.8 297.6 253.8 297.6 253.6 297.6z"/>
        <polygon fill="#B3572D" points="258.6,349 254.5,349 255,297.8 258.6,298.1"/>
        <rect x="254.2" y="348.8" fill="#CCCCCC" width="4.8" height="1.3"/>
        <g>
            <path fill="#CCCCCC" d="M258.3 351c0 0.1-0.1 0.3-0.3 0.3h-2.8c-0.1 0-0.3-0.1-0.3-0.3v-1c0-0.1 0.1-0.3 0.3-0.3h2.8 c0.1 0 0.3 0.1 0.3 0.3V351z"/>
        </g>
        <g>
            <path fill="#EBE7E3" d="M219.8 310.3c-0.2-0.9-1.2-1.9-1.7-2.6c-0.9-1-1.2-1.9-2.3-3c-0.5-0.4-0.9-0.5-1.4-0.2 c-0.4 0.3-0.6 0.6-0.6 1.3c-0.9 0-1.8 0.6-1.3 1.6c0.7 1.4 2.7 4.6 4 5.3c1 0.6 1.6 1 2.2-0.5 C219.7 311.9 220.1 311.4 219.8 310.3z"/>
            <path fill="#D6D3CF" d="M217.5 311.6C217.4 311.6 217.4 311.6 217.5 311.6c-1.1-0.8-1.9-1.9-2.6-3c-0.3-0.5-0.7-1-1-1.5 c0-0.1 0-0.1 0-0.2c0.1 0 0.1 0 0.2 0c0.4 0.5 0.7 1 1 1.5c0.7 1.1 1.4 2.2 2.4 2.9C217.6 311.4 217.6 311.5 217.5 311.6 C217.5 311.6 217.5 311.6 217.5 311.6z"/>
        </g>
        <path fill="#B38F3B" d="M240 341.2c-0.1 0-0.2-0.1-0.3-0.1c-0.2 0-0.5 0.1-0.7 0.3c-0.1 0.1-0.2 0.2-0.2 0.2 c0.2 0.1 0.4 0.2 0.6 0.3c0.5 0.2 1-0.1 1.3-0.4c0.3-0.2 0.1-0.4-0.2-0.3C240.3 341.1 240.2 341.2 240 341.2 C240 341.2 240 341.2 240 341.2z"/>
        <path fill="#DECBA2" d="M244.4 345.1l-4.4-2.3c2.3-4.4 6-6.9 9.5-9.4c4.7-3.2 9.5-6.6 12.2-14.7l4.7 1.6 c-3.3 9.7-9 13.7-14.1 17.2C249 339.8 246.1 341.8 244.4 345.1z"/>
        <path fill="#434D5E" d="M239.7 351.1c0-0.1-0.5-0.1-0.6-0.1c-0.1 0.3-0.2 2.7-0.1 2.8c0.6 0.2 0.6 0 0.7-0.6 c0-0.5 0.1-0.9 0.1-1.4C239.7 351.5 239.7 351.3 239.7 351.1z"/>
        <path fill="#4D576B" d="M231.5 351.3c0-0.1-0.5 0-0.6-0.1c0 0.3-0.2 2.7-0.1 2.8c0.6 0.2 0.6 0 0.7-0.6c0-0.5 0.1-0.9 0.1-1.4 C231.5 351.8 231.5 351.5 231.5 351.3z"/>
        <g>
            <path fill="#EBE7E3" d="M267.9 318.4c-0.7-0.6-2.1-0.9-3-1c-1.3-0.3-2.1-0.8-3.6-1c-0.6-0.1-1 0.1-1.3 0.7 c-0.2 0.5-0.1 0.9 0.3 1.4c-0.7 0.5-1.1 1.5-0.1 2.1c1.3 0.7 4.9 2 6.4 1.9c1.2-0.1 1.9-0.2 1.5-1.7 C268.7 319.8 268.7 319.1 267.9 318.4z"/>
            <path fill="#D6D3CF" d="M266.7 320.9L266.7 320.9c-1.3 0-2.6-0.5-3.8-0.9c-0.6-0.2-1.1-0.4-1.7-0.6c-0.1 0-0.1-0.1-0.1-0.2 c0-0.1 0.1-0.1 0.2-0.1c0.6 0.2 1.1 0.4 1.7 0.6c1.2 0.4 2.5 0.9 3.7 0.9c0.1 0 0.1 0.1 0.1 0.1 C266.8 320.9 266.8 320.9 266.7 320.9z"/>
        </g>
        <path fill="#888E99" d="M260.4 422c-1.3-0.4-2.8-0.2-4.1-0.2c-1.9 0.1-2.8-0.2-5 0.1c-0.9 0.1-1.4 0.4-1.5 1.1 c-0.1 0.5 0 0.9 0.5 1.3c-0.5 0.6-0.7 1.8 1 2c2.2 0.3 6.9 0.4 9 0c1.7-0.3 2.1-0.8 1.3-2.1C261.9 423 261.8 422.5 260.4 422z"/>
        <path fill="#4D576B" d="M256.8 424.5c-0.6 0-1.3 0-1.9-0.1c-0.8 0-1.6-0.1-2.5-0.1h0c-0.1 0-0.1-0.1-0.1-0.1 c0-0.1 0.1-0.1 0.1-0.1c0.9 0 1.7 0 2.5 0.1c1.6 0.1 3 0.1 4.7-0.2c0.1 0 0.1 0 0.1 0.1c0 0.1 0 0.1-0.1 0.1 C258.6 424.5 257.7 424.5 256.8 424.5z"/>
        <path fill="#888E99" d="M241.2 422c-1.3-0.4-2.8-0.2-4.1-0.2c-1.9 0.1-2.8-0.2-5 0.1c-0.9 0.1-1.4 0.4-1.5 1.1 c-0.1 0.5 0 0.9 0.5 1.3c-0.5 0.6-0.7 1.8 1 2c2.2 0.3 6.9 0.4 9 0c1.7-0.3 2.1-0.8 1.3-2.1C242.8 423 242.7 422.5 241.2 422z"/>
        <polygon fill="#B3572D" points="235.2,349.6 231.1,349.6 231.1,298.6 235.2,298.1"/>
        <rect x="230.8" y="349.4" fill="#CCCCCC" width="4.8" height="1.3"/>
        <g>
            <path fill="#CCCCCC" d="M234.9 351.6c0 0.1-0.1 0.3-0.3 0.3h-2.8c-0.1 0-0.3-0.1-0.3-0.3v-1c0-0.1 0.1-0.3 0.3-0.3h2.8 c0.1 0 0.3 0.1 0.3 0.3V351.6z"/>
        </g>
        <path fill="#4D576B" d="M237.7 424.5c-0.6 0-1.3 0-1.9-0.1c-0.8 0-1.6-0.1-2.5-0.1c0 0 0 0 0 0c-0.1 0-0.1-0.1-0.1-0.1 c0-0.1 0.1-0.1 0.1-0.1c0.9 0 1.7 0 2.5 0.1c1.6 0.1 3 0.1 4.7-0.2c0.1 0 0.1 0 0.1 0.1c0 0.1 0 0.1-0.1 0.1 C239.5 424.5 238.6 424.5 237.7 424.5z"/>
        <g>
            <g>
                <path fill="#C3C9C9" d="M200 346.4c-1.3 0.1-11.6 0.7-14.2 0.8c-2.8 0.1-5.6 0.5-8.4 0.7c-1.3 0.1-5.4 0.5-6.1 0.6 c-1.5 0.2-7.9 1.2-9.5 1.4c-1 0.1-2.5 0.6-3 1.6c-0.3 0.5-0.5 1.6-0.2 2.1c1 1.5 4.6 1.6 8 1.5c8.9-0.3 16.7-0.4 34.1-1.6 C201.5 353.4 200 346.4 200 346.4z"/>
                <path fill="#4D4D4D" d="M171.4 348.5C171.4 348.5 171.4 348.5 171.4 348.5c0.7-0.1 4.8-0.5 6.1-0.6c2.8-0.3 5.6-0.6 8.4-0.7 c2.6-0.1 12.9-0.7 14.2-0.8c0 0 1.4 7 0.8 7.1h0c-17.4 1.2-25.3 1.4-34.1 1.6c-3.3 0.1-7 0-8-1.5c-0.3-0.5-0.1-1.6 0.2-2.1 c0.5-0.9 2-1.5 3-1.6C163.5 349.7 169.8 348.7 171.4 348.5 M171.3 347.8c-0.8 0.1-3 0.4-5 0.8c-1.8 0.3-3.7 0.6-4.5 0.7 c-1 0.1-2.8 0.7-3.6 1.9c-0.4 0.7-0.7 2.1-0.2 2.9c1.2 1.8 4.8 1.9 8.6 1.8c0.9 0 1.7-0.1 2.6-0.1c7.8-0.2 15.9-0.5 31.6-1.6 l0 0l0 0c0.2 0 0.5-0.2 0.6-0.4c0.3-0.3 0.4-0.9-0.1-4.3c-0.3-1.7-0.6-3.3-0.6-3.3l-0.1-0.7l-0.7 0.1 c-1.3 0.1-11.5 0.7-14.2 0.8c-2.2 0.1-4.5 0.3-6.7 0.5c-0.6 0.1-1.2 0.1-1.8 0.2C176.1 347.3 172 347.7 171.3 347.8L171.3 347.8 L171.3 347.8L171.3 347.8z"/>
            </g>
            <path fill="#DF6C39" d="M248.6 345.5c-1.5-1.2-3.7-1.8-5.5-2.4c-1.1-0.3-2.2-0.8-3.2-1.3c-0.7-0.3-1.4-0.6-2.2-0.8 c-1.4-0.4-2.9-0.3-4.3-0.4c-1.5-0.1-2.8-0.7-4.3-0.7c-0.1-1.5-0.5-2.8-0.8-4.2c-0.4-1.5-1.5-3.1-3.1-3.3 c-2.3-0.2-4.5 0.5-6.7 0.8c-2.7 0.4-5.4 1-8.1 1.8c-1.1 0.3-2.2 0.7-3.4 0.9c-0.7 0.1-1.6 0-2.3 0.5c-0.6 0.4-1.1 0.7-1.5 1.3 c-0.5 0.6-0.9 1.4-1.4 2c-1 1.2-1.9 2.8-2.1 4.4c-0.2 1.4-0.2 2.7 0 4.1c0.3 2.1 0.3 4.4 0.7 6.6c0.1 0.7 0.1 2.1 0.7 2.5 c0.6 0.5 1.8 0.2 2.5 0.5c1.4 0.5 0.7 2.3 2.1 2.7c1 0.3 2.5-0.2 3.5-0.3c1.3-0.1 2.5-0.3 3.7-0.6c3.2-0.8 6.4-1.6 9.7-1.9 c1.8-0.1 3.6-0.1 5.4-0.5c0.7-0.1 1.6-0.3 2.3-0.5c0.6-0.2 0.9-0.8 1.4-1c0.4-0.2 1.3-0.1 1.8-0.2c2.1-0.2 4.2-0.6 6.3-0.9 c1.8-0.2 3.6-0.3 5.4-0.6c1.2-0.2 2.4-0.3 3.4-0.9c0.9-0.5 1.5-1.3 1.5-2.4C250.1 348.5 250.2 346.8 248.6 345.5z M247.7 351.6 c-0.5 0.4-1.9 0-2.5 0c-1.1 0.1-2.2 0.2-3.4 0.3c-2 0.1-4 0.3-6 0.4c-1.2 0.1-2.9 0.3-3.9-0.5c-0.8-0.7-1.1-2-1.3-2.9 c-0.7-2.5 1.3-3.1 3.3-3.1c1.1 0 2 0 3-0.1c1.1-0.2 1.9 0.2 2.9 0.5c1.3 0.4 2.6 0.4 3.9 0.6c0.6 0.1 1.2 0.2 1.7 0.3 c1 0.2 2 0.7 2.4 1.8C248 349.4 248.3 351.1 247.7 351.6z"/>
            <path fill="#1E1A1B" d="M215.9 333.7c-0.7-1.1-1.6-2.4-2.4-3.1c-1.2-1.1-2.9-2.4-4.7-2.4c-0.9 0-2.1 0.2-2.6 1 c-0.5 1-0.2 2.1-0.2 3.1c0 1.3 0.1 2.4 0.1 3.7c-0.4 0-1-0.2-1.1-0.3c-0.4-0.2-0.6-0.5-0.9-0.9c-0.8-0.9-1.4-1.7-1.8-2.9 c-0.4-1.1-0.7-1.9-0.6-3.2c0-0.5 0.1-1.1 0.3-1.6c0.1-0.5 0.8-1.6 0.6-2.1c-0.2-0.3-0.5-0.4-0.9-0.4c-0.7 0-1.6 0-2.3 0.3 c-0.9 0.3-1.3 1.6-1.5 2.4c-0.2 1.2-0.5 2.4-0.4 3.6c0.1 0.9 0.3 2 0.6 2.9c0.8 2.4 1.9 4.5 3.2 6.3c1.6 2.1 3.4 3.7 5.5 4.4 c0.1 1 0.7 7.2 0.6 9.2c-0.1 1.7-0.4 3.4-1.5 4.8c-0.2 0.3-0.6 0.5-0.8 0.9c-0.1 0.1-0.1 0.2-0.1 0.4c0 0.2 0 0.5 0.1 0.7 c0.1 0.5 0.4 0.3 0.8 0.3c0.8 0 1.6-0.1 2.2-0.6c0.1-0.1 0.2-0.2 0.3-0.4c2.2-3.4 2.3-5 2.4-7.9c0-0.6-0.3-5.9-0.5-6.8 c1.6-0.2 2.2-0.3 2.3-0.8c0.1-0.4 0-1-0.1-1.4c-0.4-1-1.6-0.8-2.4-0.7c0-0.5-0.3-4.1-0.6-7.1c-0.1-1.7-0.3-3.1-0.3-3.7 c0.5 0 1 0.5 1.3 0.8c0.5 0.5 1 1.2 1.4 1.8c0.1 0.1 0.1 0.2 0.2 0.3C213 334.4 214.7 333.9 215.9 333.7z M206.7 341.9 c-0.5-0.4-1-0.8-1.4-1.3c-0.7-0.7-1.9-1.8-1.6-3c0 0 0-0.1 0-0.1c0.1-0.4 0.4-0.7 0.7-0.9c0.1-0.1 0.3-0.2 0.5-0.3 c0.2-0.1 1-0.2 1.4-0.2C206.3 336.5 206.7 340.8 206.7 341.9z"/>
        </g>
        <path fill="#DEB249" d="M237.6 342.6c0 0-1.3 1.5-1.3 1.6c-0.3 0.3-0.6 0.9-0.6 1.4c0 0.8 1.8 1.2 2.3 0.5c0 0.6 1.6 1.1 2.3 0.4 c0.1 0.5 1.4 1 2.2 0.4c0.2 0.9 2 1.2 2.7 0c0.3-0.5 1.5-1.5 1.5-2c0-0.4-0.4-0.7-0.3-1.2c0-0.3 0.3-0.7 0.5-0.9 c0.2-0.1 0.8-0.1 0.8-0.3c0-0.2-0.4-0.3-0.5-0.4c-0.3-0.2-2.8-1.7-3.9-2.3c-0.5-0.2-1.4-0.8-1.9-0.8c-0.4 0-0.1 0.4-0.2 0.7 c0 0.3-0.5 1.1-0.7 1.3c-0.3 0.3-0.6 0.4-1 0.4C238.6 341.5 238.1 342 237.6 342.6z"/>
        <path fill="#DEB249" d="M211.5 328.6c0 0.4 0 1.1-0.1 1.4c-0.1 0.8-0.5 2.1-2 2.5c0-0.3-0.1-0.7-0.1-0.9c0.3-0.5 0.4-0.6 0.5-1.1 c0.2-0.8 0.1-1.5-0.6-2.1c-0.4-0.3-1-0.3-1.6-0.2c-1.4 0.4-1.5 1.3-1.6 2.2c0 0.3 0 0.7 0.1 1.1c0 0.1-0.1 0.1-0.2 0.1 c-0.4-0.2-0.7-0.7-0.7-1.1c0-0.6 0-1.6 0.4-2.1c0.8-1.3 1.5-1.6 2-1.8c0.2-0.5 0.5-1.1 0.6-1.6c0.1-0.6-0.2-0.5-0.4-0.9 c-0.3-0.9 1.6 0.1 1.8 0.2c1.3 0.7 2.5 1.6 3.7 2.4c0.1 0.1 0.8 0.4 0.7 0.7c-0.1 0.2-0.7 0-0.9 0 C212.4 327.6 211.8 328.1 211.5 328.6z"/>
        <path fill="#B38F3B" d="M239.3 344.6C239.3 344.6 239.3 344.6 239.3 344.6c-0.1 0-0.1-0.1-0.1-0.2c0.2-0.4 0.5-0.8 1-1.2 c0.1 0 0.1 0 0.2 0c0 0.1 0 0.1 0 0.2c-0.4 0.3-0.7 0.7-0.9 1.1C239.4 344.5 239.3 344.6 239.3 344.6z"/>
        <path fill="#B38F3B" d="M241.4 344.8C241.4 344.8 241.4 344.8 241.4 344.8c-0.1-0.1-0.1-0.2-0.1-0.2c0.1-0.1 0.1-0.2 0.2-0.3 c0.1-0.2 0.3-0.5 0.6-0.7c0.1 0 0.1 0 0.2 0.1c0 0.1 0 0.1-0.1 0.2c-0.2 0.1-0.3 0.3-0.5 0.5C241.7 344.5 241.6 344.7 241.4 344.8 C241.5 344.8 241.5 344.8 241.4 344.8z"/>
        <path fill="#B38F3B" d="M243 345.9C243 345.9 243 345.9 243 345.9c-0.1 0-0.1-0.1-0.1-0.1c0.1-0.5 0.4-1.1 0.7-1.5 c0-0.1 0.1-0.1 0.2 0c0.1 0 0.1 0.1 0 0.2c-0.3 0.4-0.6 0.9-0.7 1.4C243.2 345.8 243.1 345.9 243 345.9z"/>
        <path fill="#B38F3B" d="M245.3 343.8C245.3 343.8 245.3 343.7 245.3 343.8c-0.9-0.7-2-1.1-3-1.4c-0.3-0.1-0.7-0.2-1.1-0.3 c-0.1 0-0.1-0.1-0.1-0.2c0-0.1 0.1-0.1 0.2-0.1c0.3 0.1 0.7 0.2 1 0.3c1.1 0.3 2.1 0.7 3 1.4C245.4 343.6 245.5 343.7 245.3 343.8 C245.4 343.7 245.3 343.8 245.3 343.8z"/>
        <path fill="#B38F3B" d="M210.6 328C210.5 328 210.5 328 210.6 328c-0.2-0.1-0.3-0.2-0.4-0.3c-0.5-0.5-1.1-1-1.7-1 c-0.1 0-0.1-0.1-0.1-0.1c0-0.1 0.1-0.1 0.1-0.1h0c0.7 0 1.3 0.6 1.8 1.1c0.1 0.1 0.2 0.2 0.3 0.3 C210.7 327.8 210.7 327.9 210.6 328C210.6 328 210.6 328 210.6 328z"/>
        <path fill="#CCBB95" d="M213 319.4C213 319.4 213 319.4 213 319.4c-0.8-0.3-2.2-0.6-2.9-0.1c-0.1 0-0.1 0-0.2 0c0-0.1 0-0.1 0-0.2 c0.8-0.5 2.3-0.2 3.1 0.1c0.1 0 0.1 0.1 0.1 0.2C213.1 319.3 213.1 319.4 213 319.4z"/>
        <path fill="#434D5E" d="M253.9 350.5c0-0.1-0.5-0.1-0.6-0.1c0 0.3-0.2 2.7-0.1 2.8c0.6 0.2 0.6 0 0.7-0.6c0-0.5 0.1-0.9 0.1-1.4 C254 351 254 350.7 253.9 350.5z"/>
        <path fill="#434D5E" d="M262 350.3c0-0.1-0.5 0-0.6 0c0 0.2 0 2.5 0.1 2.5c0.6 0.1 0.6 0 0.6-0.6c0-0.4 0-0.8 0-1.3 C262.1 350.7 262.1 350.5 262 350.3z"/>
        <path fill="#373E4D" d="M262 357.5C262 357.5 262 357.5 262 357.5c-0.1 0-0.3 0-0.4 0c-0.4 0-0.7 0-1.1-0.2 c-1.1-0.4-1.5-1.3-1.7-2.3c-0.1-0.4-0.1-0.8 0-1.1c0-0.2 0-0.4 0-0.6c0-0.1 0.1-0.2 0.2-0.2c0.1 0 0.2 0.1 0.2 0.2 c0 0.2 0 0.4 0 0.6c0 0.3 0 0.7 0 1c0.2 1 0.5 1.7 1.4 2c0.4 0.1 0.7 0.1 1 0.1c0.1 0 0.2 0 0.4 0c0.1 0 0.2 0.1 0.2 0.3 C262.3 357.4 262.1 357.5 262 357.5z"/>
        <path fill="#373E4D" d="M246.2 361.9c-0.3 0-0.6-0.1-0.9-0.3c-1-0.8-1-2.5-1-4.1c0-0.8 0-1.6-0.1-2.1c0-0.1 0-0.3 0.2-0.3 c0.1 0 0.3 0 0.3 0.2c0.2 0.6 0.2 1.4 0.2 2.2c0 1.4 0 3 0.8 3.7c0.3 0.2 0.6 0.2 1 0.2c0.1 0 0.3 0.1 0.3 0.2 c0 0.1-0.1 0.3-0.2 0.3C246.5 361.9 246.4 361.9 246.2 361.9z"/>
    </g>
</g></g>
</svg>
