<svg xmlns="http://www.w3.org/2000/svg" xmlns:xlink="http://www.w3.org/1999/xlink" version="1.1" x="0px" y="0px" width="1024px" height="600px" viewBox="0 0 1024 600" enable-background="new 0 0 1024 600" xml:space="preserve" preserveAspectRatio="none">
<defs>
  <filter id="drop-shadow">
    <feGaussianBlur stdDeviation="4" in="SourceAlpha"/>
    <feOffset dx="0" dy="0" result="offsetblur"/>
    <feFlood flood-color="#727272"/>
    <feComposite operator="in" in2="offsetblur"/>
    <feMerge>
      <feMergeNode/>
      <feMergeNode in="SourceGraphic"/>
    </feMerge>
  </filter>
</defs>
<g filter="url(#drop-shadow)">
    <linearGradient id="SVGID_1_" gradientUnits="userSpaceOnUse" x1="824.5" y1="269.9" x2="824.5" y2="534.2">
        <stop offset="0" style="stop-color:#808080"/>
        <stop offset="1" style="stop-color:#333333"/>
    </linearGradient>
    <polyline fill="url(#SVGID_1_)" points="978.7,500.5 802.8,269.9 670.3,534.2"/>
</g>
<g>
    <linearGradient id="SVGID_2_" gradientUnits="userSpaceOnUse" x1="750.2" y1="300.7" x2="750.2" y2="481.5">
        <stop offset="0" style="stop-color:#808080"/>
        <stop offset="1" style="stop-color:#333333"/>
    </linearGradient>
    <polyline fill="url(#SVGID_2_)" points="872.2,481.5 746.2,300.7 628.1,468.5"/>
</g>
<g>
    <defs>
        <polyline id="SVGID_3_" points="872.2,481.5 746.2,300.7 628.1,468.5"/>
    </defs>
    <clipPath id="SVGID_4_">
        <use xlink:href="#SVGID_3_" overflow="visible"/>
    </clipPath>
    <g clip-path="url(#SVGID_4_)">
        <path fill="#D9D9D9" d="M713.7 341.3c-1.3 2.4-0.5 5.6 1.8 7.2l0.1 0.1c2.3 1.5 6.1 1.7 8.5 0.3l1.7-1c2.4-1.4 6-1.1 8.1 0.5 c2.1 1.6 5.6 1.7 7.8 0.1l0.3-0.2c2.3-1.6 6.1-1.8 8.5-0.5l2 1.1c2.4 1.3 5.8 1.1 7.6-0.5c1.8-1.6 5.1-1.7 7.4-0.2l0.5 0.3 c2.3 1.5 5.8 1.5 7.7-0.2c2-1.6 2.4-4.9 0.9-7.2l-31.1-49.4c-1.5-2.3-3.7-2.3-5 0.2L713.7 341.3z"/>
    </g>
</g>
<g>
    <defs>
        <polyline id="SVGID_5_" points="978.7,500.5 802.8,269.9 670.3,534.2"/>
    </defs>
    <clipPath id="SVGID_6_">
        <use xlink:href="#SVGID_5_" overflow="visible"/>
    </clipPath>
    <g clip-path="url(#SVGID_6_)">
        <path fill="#D9D9D9" d="M771.3 322c-1.3 2.4-0.4 5.6 2 7l2 1.2c2.4 1.4 6.3 1.5 8.7 0.2l3.4-1.9c2.4-1.3 6.2-1 8.3 0.6l0.8 0.6 c2.2 1.7 5.8 1.8 8.1 0.2l1.6-1.1c2.3-1.5 6.1-1.7 8.5-0.5l3.8 2c2.4 1.3 6.1 0.9 8.2-1l0.1-0.1c2.1-1.8 5.6-2.1 7.9-0.6l1.9 1.3 c2.3 1.5 5.9 1.3 8.1-0.4l0.6-0.5c2.1-1.7 2.7-5 1.1-7.3l-39.2-59.3c-1.5-2.3-3.8-2.2-5.1 0.3L771.3 322z"/>
    </g>
</g>
</svg>
