<svg xmlns="http://www.w3.org/2000/svg" xmlns:xlink="http://www.w3.org/1999/xlink" version="1.1" id="Layer_1" x="0px" y="0px" width="200px" height="65px" viewBox="-2 -3.5 200 65" enable-background="new -2 -3.5 200 65" xml:space="preserve"><g id="logo-words"><path fill="#1A801A" d="M157.3 33.4c3.3 0 6.2-1.4 8.5-4c0.2-0.3 0.3-0.5 0.3-0.6c0-0.1-0.4-0.6-1.1-1.6c-0.7-0.9-1.1-1.4-1.2-1.4 c-0.1 0-0.4 0.3-1 0.9c-0.7 0.7-1.5 1.2-2.2 1.6c-1.1 0.6-2.2 0.9-3.3 0.9c-2.4 0-4.1-0.9-5.4-2.7c-1.2-1.7-1.7-3.6-1.7-6.1 c0-2.5 0.6-4.4 1.8-6c1.3-1.8 3.1-2.6 5.4-2.6c1.2 0 2.4 0.3 3.3 0.9c0.6 0.4 1.3 0.9 2 1.6c0.6 0.6 0.9 0.9 1.1 0.9 c0.1 0 0.5-0.5 1.2-1.5c0.6-1 0.9-1.6 0.9-1.8c0-0.2-0.1-0.4-0.3-0.6c-2-2.4-4.7-3.6-8.2-3.6c-3.5 0-6.4 1.3-8.4 3.9 c-2 2.4-3 5.4-3 9s1 6.6 2.9 8.9C151 32.1 153.9 33.4 157.3 33.4z"/><path fill="#1A801A" d="M66.8 12.1c1.4 0 3.6-0.1 6.7-0.3c0.1 3.6 0.2 6.5 0.2 8.6c0 1.4-0.1 3.3-0.2 6.1c-0.1 2.6-0.2 4.7-0.2 6 c0 0.3 0.2 0.4 0.4 0.4c0.2 0 0.5 0 1-0.1c0.4 0 0.8-0.1 1-0.1s0.6 0 1 0.1c0.4 0 0.8 0.1 1 0.1c0.3 0 0.5-0.1 0.5-0.4 c0-1.4 0-3.3-0.2-6.1c-0.1-2.6-0.2-4.7-0.2-6.1c0-2.2 0.1-5 0.2-8.6c3.8 0.1 5.9 0.2 6.3 0.2c0.2 0 0.3-0.2 0.3-0.5 c0-0.2 0-0.4-0.1-0.7c0-0.3-0.1-0.6-0.1-0.7c0-1.2 0-1.8 0-1.8c0-0.2-0.2-0.3-0.5-0.3c0 0-0.8 0.1-2.4 0.2 c-2.6 0.2-4.6 0.3-5.8 0.3c-1.4 0-4-0.1-8.2-0.4h-0.2c-0.1 0-0.2 0.1-0.3 0.2C66.8 9 66.7 9.6 66.6 10c0 0.1-0.1 0.4-0.2 0.9 c-0.1 0.4-0.2 0.7-0.2 0.9C66.5 12 66.6 12.1 66.8 12.1z"/><path fill="#1A801A" d="M179.3 33.5c3.4 0 6.4-1.3 8.6-3.9c2.3-2.5 3.3-5.5 3.3-9s-1.1-6.5-3.3-9c-2.4-2.6-5.2-3.9-8.6-3.9 c-3.4 0-6.3 1.3-8.6 3.9c-2.3 2.5-3.3 5.5-3.3 9s1.1 6.5 3.3 9C173 32.2 175.9 33.5 179.3 33.5z M173.8 14.6 c1.5-1.9 3.3-2.7 5.6-2.7c2.3 0 4.1 0.9 5.7 2.7c1.5 1.7 2.2 3.7 2.2 6c0 2.4-0.7 4.3-2.2 6.1c-1.5 1.9-3.4 2.7-5.7 2.7 c-2.3 0-4.1-0.9-5.6-2.7c-1.4-1.7-2.2-3.7-2.2-6C171.6 18.3 172.3 16.4 173.8 14.6z"/><path fill="#1A801A" d="M127.3 32.4c0 0.3 0.2 0.5 0.6 0.5c0.9 0 2.2 0 3.8-0.1c1.8 0 3-0.1 3.8-0.1c3 0 5.3 0.1 6.7 0.3 c0.3 0.1 0.6 0.1 0.7 0.1c0.3 0 0.4-0.1 0.5-0.3c0.1-0.8 0.2-1.5 0.3-1.9c0-0.1 0.1-0.4 0.2-0.8c0.1-0.4 0.1-0.6 0.1-0.8 c0-0.3-0.1-0.5-0.4-0.4h-0.3c-3.8 0.3-6.1 0.4-7 0.4h-2c-1.2 0-1.9-0.1-2.2-0.4c-0.4-0.3-0.6-1.1-0.6-2.3v-2.6c0-1 0-1.5 0-1.4 c0.1-0.5 0.3-0.7 0.8-0.8c0.5 0 1.8-0.1 3.6-0.1c2.3 0 3.7 0 4.4 0.1c0.9 0.1 1.5 0.1 1.6 0.1c0.4 0 0.5-0.1 0.5-0.3 c0-0.4 0-1 0.1-1.8c0.1-0.8 0.1-1.4 0.1-1.8c0-0.2-0.1-0.3-0.4-0.3c-1 0.1-1.9 0.2-2.5 0.2c-1.9 0.1-3.9 0.1-6.2 0.1 c-0.1 0-0.3 0-0.6 0c-0.3 0-0.5 0-0.6 0c-0.5 0-0.8-0.2-0.9-0.6c0-0.1-0.1-0.5-0.1-1.3v-2.6c0-1 0.1-1.7 0.4-2 c0.3-0.3 0.9-0.4 1.9-0.4s2.5 0.1 4.6 0.2c2.1 0.1 3.5 0.2 4.5 0.2c0.3 0 0.4-0.1 0.4-0.4c0-0.4-0.1-1.4-0.4-2.8 c0-0.3-0.4-0.5-0.9-0.5c-0.8 0-2 0-3.5 0.1c-1.3 0.3-2.4 0.3-3.1 0.3c-0.8 0-2.1 0-3.7-0.1c-1.7 0-2.8-0.1-3.7-0.1 c-0.3 0-0.5 0.1-0.5 0.4v0.3c0.1 1.9 0.2 3.2 0.2 4.2c0.1 3.6 0.2 6.2 0.2 7.4c0 1.3-0.1 3.3-0.2 5.9 C127.4 29.2 127.3 31.2 127.3 32.4z"/><path fill="#1A801A" d="M87 20.9c0 1.3-0.1 3.2-0.2 5.9c-0.1 2.6-0.2 4.6-0.2 5.9c0 0.3 0.1 0.4 0.4 0.4c0.2 0 0.5 0 0.9-0.1 c0.4 0 0.7-0.1 0.9-0.1c0.3 0 0.6 0 1.1 0.1c0.5 0 0.8 0.1 1.1 0.1c0.2 0 0.4-0.1 0.4-0.4c0-0.8 0-2.1-0.1-3.6 c0-1.7-0.1-2.9-0.1-3.7c0-0.6 0.1-0.9 0.4-0.9c0.3 0 1.3-0.1 2.8-0.1c0.9 0 1.5 0 1.6 0c0.7 0.1 1.1 0.4 1.3 0.8 c1.8 4.1 2.8 6.6 3.2 7.4c0.1 0.3 0.4 0.4 0.6 0.4c0.3 0 0.6 0 1.1-0.1c0.5 0 0.9-0.1 1.1-0.1c0.2 0 0.6 0 1 0.1 c0.5 0 0.8 0.1 1 0.1c0.2 0 0.3 0 0.3-0.1c0-0.2-0.7-1.8-2.1-4.7s-2.1-4.5-2.1-4.7c0-0.1 0.1-0.3 0.3-0.4c1.4-1 2.3-2 2.7-3 c0.5-1 0.7-2.4 0.7-4.1c0-2.5-0.9-4.5-2.6-5.8c-1.6-1.3-3.6-1.9-6.3-1.9c-1 0-2.5 0-4.5 0.1c-2 0.1-3.5 0.1-4.5 0.1 c-0.5 0-0.8 0.1-0.8 0.4v0.3C86.9 13.1 87 17.1 87 20.9z M91.1 17.3c0-2.7 0-4.4 0.1-5.1c0-0.3 1-0.5 2.9-0.5 c2.4 0 3.9 0.3 4.9 0.8c1.2 0.7 1.9 2.2 1.9 4.2c0 2.7-1.7 4.1-4.9 4.1c-1.3 0-2.4 0-3.6-0.1c-0.5 0-0.8-0.1-1.1-0.1 c-0.1 0-0.2 0-0.2-0.1C91.1 20.6 91.1 17.3 91.1 17.3z"/><path fill="#1A801A" d="M108 32.4c0 0.3 0.2 0.5 0.6 0.5c0.9 0 2.2 0 3.8-0.1c1.8 0 3-0.1 3.8-0.1c3 0 5.3 0.1 6.7 0.3 c0.3 0.1 0.6 0.1 0.7 0.1c0.3 0 0.4-0.1 0.5-0.3c0.1-0.8 0.2-1.5 0.2-1.9c0-0.1 0.1-0.4 0.2-0.8c0.1-0.4 0.1-0.6 0.1-0.8 c0-0.3-0.1-0.5-0.4-0.4h-0.3c-3.8 0.3-6.1 0.4-7 0.4h-2c-1.2 0-1.9-0.1-2.2-0.4c-0.4-0.3-0.6-1.1-0.6-2.3v-2.6c0-1 0-1.5 0-1.4 c0.1-0.5 0.3-0.7 0.8-0.8c0.5 0 1.8-0.1 3.6-0.1c2.3 0 3.7 0 4.4 0.1c0.9 0.1 1.5 0.1 1.6 0.1c0.4 0 0.5-0.1 0.5-0.3 c0-0.4 0-1 0.1-1.8s0.1-1.4 0.1-1.8c0-0.2-0.1-0.3-0.4-0.3c-1 0.1-1.8 0.2-2.5 0.2c-1.9 0.1-3.9 0.1-6.2 0.1c-0.1 0-0.3 0-0.6 0 s-0.5 0-0.6 0c-0.5 0-0.8-0.2-0.9-0.6c0-0.1-0.1-0.5-0.1-1.3v-2.6c0-1 0.1-1.7 0.4-2c0.3-0.3 0.9-0.4 1.9-0.4c1 0 2.5 0.1 4.6 0.2 c2.1 0.1 3.5 0.2 4.5 0.2c0.3 0 0.4-0.1 0.4-0.4c0-0.4-0.1-1.4-0.4-2.8C123.3 8.2 123 8 122.5 8c-0.8 0-2 0-3.5 0.1 c-1.2 0.3-2.4 0.3-3.1 0.3s-2.1 0-3.7-0.1c-1.7 0-2.8-0.1-3.7-0.1c-0.3 0-0.5 0.1-0.5 0.4v0.3c0.1 1.9 0.2 3.2 0.2 4.2 c0.1 3.6 0.2 6.2 0.2 7.4c0 1.3-0.1 3.3-0.2 5.9C108 29.2 108 31.2 108 32.4z"/><path fill="#1A801A" d="M88.6 40.1c-0.5 0-0.9 0.1-1.2 0.1c-0.4 0.1-0.8 0.3-1.1 0.5s-0.7 0.4-1 0.6c0 0 0 0-0.1 0 s-0.2-0.2-0.2-0.7c0-0.5-0.1-0.7-0.3-0.7c0 0-0.4 0.1-1.2 0.2c-0.5 0.1-1 0.1-1.3 0.1c-0.1 0-0.2 0.1-0.2 0.2v0.1 c0.4 1.2 0.6 2.7 0.6 4.7c0 0.7 0 1.7 0 2.9s0 2.3 0 2.9c0 0.2 0.1 0.3 0.3 0.3c0.3 0 0.6 0 1.1 0c0.5 0 0.9 0 1.1 0 s0.3-0.1 0.3-0.3c0-0.5 0-1.1-0.1-2.1c0-0.9-0.1-1.6-0.1-2.1v-1.3c0-1.1 0.1-1.8 0.3-2.2c0.3-0.6 0.9-0.9 2-0.9 c0.2 0 0.4 0 0.8 0.1c0.3 0 0.6 0.1 0.8 0.1c0.1 0 0.2-0.1 0.2-0.3c0.1-0.7 0.2-1.5 0.2-2.4C89.6 40.2 89.3 40.1 88.6 40.1z"/><path fill="#1A801A" d="M81.2 36.2c0-0.8 0-1.2 0-1.2c0-0.1-0.1-0.2-0.3-0.2c0 0-0.5 0.1-1.6 0.1c-1.8 0.1-3.1 0.2-3.9 0.2 c-0.9 0-2.7-0.1-5.6-0.3h-0.2c-0.1 0-0.2 0.1-0.2 0.2c-0.1 0.5-0.2 0.9-0.2 1.2c0 0.1-0.1 0.3-0.2 0.6C69 37 69 37.2 69 37.3 c0 0.1 0 0.1 0.1 0.1c1 0 2.4-0.1 4.5-0.2c0.1 2.5 0.1 4.4 0.1 5.8c0 0.9 0 2.3-0.1 4.1c-0.1 1.9-0.1 3.1-0.1 4.1 c0 0.2 0.1 0.3 0.3 0.3c0.2 0 0.4 0 0.7 0s0.5 0 0.7 0c0.2 0 0.4 0 0.7 0s0.5 0 0.7 0c0.2 0 0.4-0.1 0.4-0.3c0-0.9 0-2.3-0.1-4.1 c-0.1-1.9-0.1-3.2-0.1-4.1c0-1.5 0-3.4 0.1-5.8c2.5 0.1 4 0.1 4.2 0.1c0.1 0 0.2-0.1 0.2-0.3c0-0.1 0-0.3 0-0.5 C81.2 36.4 81.2 36.3 81.2 36.2z"/><path fill="#1A801A" d="M166.5 36.3c-0.3-0.3-0.7-0.4-1.2-0.4c-0.5 0-0.8 0.1-1.2 0.4c-0.3 0.3-0.5 0.7-0.5 1.1 c0 1 0.6 1.5 1.7 1.5c1.1 0 1.7-0.5 1.7-1.5C167 36.8 166.8 36.5 166.5 36.3z"/><path fill="#1A801A" d="M161.5 40.3c-0.3 0-0.6 0-1.2 0c-0.5 0-0.9 0-1.2 0c-0.1 0-0.2 0.1-0.2 0.2c0 0.3 0 0.7 0.1 1.2 s0.1 0.9 0.1 1.2c0 1 0 1.7-0.1 2.1c0 0.3-0.4 1-1.1 2.2c-0.7 1.2-1.1 1.8-1.3 1.8s-0.7-0.6-1.4-1.8c-0.8-1.2-1.2-1.9-1.2-2.3 c-0.1-0.6-0.1-1.3-0.1-2c0-0.3 0-0.6 0-1.1c0-0.5 0-0.9 0-1.1c0-0.2-0.1-0.2-0.2-0.2c-0.3 0-0.7 0-1.2 0s-0.9 0-1.2 0 c-0.2 0-0.3 0.1-0.3 0.3c0 0.3 0 0.8 0 1.5s0 1.2 0 1.5c0 1.1 0.1 1.9 0.3 2.4c0.1 0.4 0.8 1.4 2 3c1.3 1.8 2 2.6 2.2 2.6 s0.5 0.1 1.1 0.1s0.9 0 1-0.1c0.2-0.1 1-1 2.2-2.7c1.2-1.8 1.8-2.7 2-3.1c0.1-0.2 0.1-0.8 0.1-2C161.9 41.4 161.7 40.3 161.5 40.3z "/><path fill="#1A801A" d="M189.1 45.2c0-1.6-0.5-2.8-1.5-3.9c-1-1.1-2.3-1.7-3.7-1.7c-1.6 0-2.9 0.6-4 1.9c-1.1 1.2-1.6 2.6-1.6 4.3 c0 1.9 0.6 3.3 1.7 4.4c1.1 1.1 2.5 1.7 4.4 1.7c1.9 0 3.3-0.6 4.5-1.9c0.1-0.1 0.2-0.2 0.2-0.3c0 0-0.1-0.3-0.4-0.9 c-0.3-0.5-0.4-0.8-0.5-0.8h-0.1c-0.1 0.1-0.3 0.2-0.4 0.3c-1.1 0.8-2.2 1.2-3.4 1.2c-0.7 0-1.4-0.2-2.1-0.7 c-0.7-0.5-1.1-1.1-1.2-1.8c4.6-0.3 7.1-0.6 7.4-0.7C188.8 46.2 189.1 45.8 189.1 45.2z M185.6 44.7c-1.7 0.2-3 0.4-4.2 0.4 c-0.3 0-0.4-0.1-0.4-0.3c0-0.7 0.3-1.4 0.9-2c0.6-0.6 1.2-0.9 2-0.9c0.7 0 1.3 0.3 1.8 0.8c0.5 0.5 0.8 1.1 0.8 1.8 C186.3 44.5 186 44.6 185.6 44.7z"/><path fill="#1A801A" d="M174.6 42.1c0.4 0 0.8 0.1 1.2 0.2c0.4 0.2 0.7 0.3 1.1 0.5c0.1 0 0.2-0.3 0.4-0.9c0.2-0.6 0.3-1 0.3-1.2 c0-0.1-0.1-0.2-0.2-0.3c-0.9-0.6-2-0.9-3-0.9c-1.7 0-3 0.6-4.1 1.8c-1.1 1.2-1.7 2.6-1.7 4.3s0.6 3 1.7 4.2 c1.2 1.2 2.5 1.9 4.1 1.9c0.4 0 1-0.1 1.8-0.3c0.9-0.2 1.4-0.5 1.4-0.7c0-0.2-0.1-0.7-0.2-1.3c-0.1-0.7-0.2-1-0.4-1 c0.1 0-0.2 0.1-0.7 0.4c-0.5 0.3-1.1 0.4-1.6 0.4c-1 0-1.8-0.4-2.4-1.1c-0.7-0.7-1-1.6-1-2.5s0.3-1.9 1-2.5 C172.9 42.4 173.7 42.1 174.6 42.1z"/><path fill="#1A801A" d="M166.7 40.3c-0.2 0-0.4 0-0.7 0.1c-0.3 0-0.5 0.1-0.7 0.1s-0.4 0-0.7-0.1c-0.3 0-0.5-0.1-0.7-0.1 s-0.3 0.1-0.3 0.2c0 0.6 0 1.6 0.1 2.7c0.1 1.3 0.1 2.2 0.1 2.7c0 0.6 0 1.4 0 2.5s0 2 0 2.5c0 0.3 0.1 0.5 0.3 0.5h2.4 c0.1 0 0.2-0.1 0.2-0.3c0-0.6 0-1.5 0-2.5c0-1.2 0-2.1 0-2.5c0-0.6 0-1.6 0.1-2.7c0.1-1.3 0.1-2.2 0.1-2.7 C166.9 40.4 166.8 40.3 166.7 40.3z"/><path fill="#1A801A" d="M100.9 45.2c0-1.6-0.5-2.8-1.5-3.9c-1-1.1-2.3-1.7-3.7-1.7c-1.6 0-2.9 0.6-4 1.9c-1.1 1.2-1.6 2.6-1.6 4.3 c0 1.9 0.6 3.3 1.7 4.4c1.1 1.1 2.5 1.7 4.4 1.7s3.3-0.6 4.5-1.9c0.1-0.1 0.2-0.2 0.2-0.3c0 0-0.1-0.3-0.4-0.9 c-0.3-0.5-0.4-0.8-0.5-0.8H100c-0.1 0.1-0.3 0.2-0.4 0.3c-1.1 0.8-2.2 1.2-3.4 1.2c-0.7 0-1.4-0.2-2.1-0.7S93 47.7 92.9 47 c4.6-0.3 7.1-0.6 7.3-0.7C100.6 46.2 100.9 45.8 100.9 45.2z M97.4 44.7c-1.7 0.2-3 0.4-4.2 0.4c-0.3 0-0.4-0.1-0.4-0.3 c0-0.7 0.3-1.4 0.9-2c0.6-0.6 1.2-0.9 2-0.9c0.7 0 1.3 0.3 1.8 0.8c0.5 0.5 0.8 1.1 0.8 1.8C98.1 44.5 97.9 44.6 97.4 44.7z"/><path fill="#1A801A" d="M112.6 45.2c0-1.6-0.5-2.8-1.5-3.9s-2.3-1.7-3.7-1.7c-1.6 0-2.9 0.6-4 1.9c-1.1 1.2-1.6 2.6-1.6 4.3 c0 1.9 0.6 3.3 1.7 4.4c1.1 1.1 2.5 1.7 4.4 1.7c1.9 0 3.3-0.6 4.5-1.9c0.1-0.1 0.2-0.2 0.2-0.3c0 0-0.1-0.3-0.4-0.9 c-0.3-0.5-0.4-0.8-0.5-0.8h-0.1c-0.1 0.1-0.3 0.2-0.4 0.3c-1.1 0.8-2.2 1.2-3.4 1.2c-0.7 0-1.4-0.2-2.1-0.7s-1.1-1.1-1.2-1.8 c4.6-0.3 7.1-0.6 7.3-0.7C112.4 46.2 112.6 45.8 112.6 45.2z M109.2 44.7c-1.7 0.2-3 0.4-4.2 0.4c-0.3 0-0.4-0.1-0.4-0.3 c0-0.7 0.3-1.4 0.9-2c0.6-0.6 1.2-0.9 2-0.9c0.7 0 1.3 0.3 1.8 0.8c0.5 0.5 0.8 1.1 0.8 1.8C109.9 44.5 109.6 44.6 109.2 44.7z"/><path fill="#1A801A" d="M125.5 37.5c0.5 0 1.2 0.1 1.9 0.4c0.8 0.3 1.2 0.4 1.2 0.4c0.1 0 0.1 0 0.2-0.1c0.2-0.5 0.4-0.8 0.5-1.1 c0.3-0.5 0.5-0.9 0.7-1.2c0-0.1-0.1-0.1-0.1-0.2c-0.5-0.3-1.1-0.6-2.1-0.8c-0.8-0.2-1.6-0.3-2.2-0.3c-1.5 0-2.7 0.4-3.6 1.3 c-1 0.9-1.5 2.1-1.5 3.5c0 1.4 0.5 2.5 1.5 3.2c0 0 1 0.6 2.7 1.6c1 0.6 1.5 1.3 1.5 2.1c0 1.6-1.3 2.4-3.7 2.4 c-0.2 0-0.5 0-0.9-0.1c-0.4 0-0.7-0.1-0.9-0.1c-0.1 0-0.2 0.1-0.2 0.2s0 0.1 0 0.2c0.1 0.5 0.2 0.8 0.3 1.1c0.1 0.6 0.2 1 0.2 1.3 c0.1 0.2 0.5 0.3 1.4 0.3c1.9 0 3.4-0.5 4.6-1.4c1.4-1 2.1-2.5 2.1-4.2c0-1.4-0.5-2.4-1.6-3.3c-0.2-0.1-1.2-0.7-2.8-1.6 c-1-0.5-1.6-1.2-1.6-1.9C123.4 38.2 124.2 37.5 125.5 37.5z"/><path fill="#1A801A" d="M141.8 45.2c0-1.6-0.5-2.8-1.5-3.9s-2.3-1.7-3.7-1.7c-1.6 0-2.9 0.6-4 1.9c-1.1 1.2-1.6 2.6-1.6 4.3 c0 1.9 0.6 3.3 1.7 4.4s2.5 1.7 4.4 1.7c1.9 0 3.3-0.6 4.5-1.9c0.1-0.1 0.2-0.2 0.2-0.3c0 0-0.1-0.3-0.4-0.9 c-0.3-0.5-0.4-0.8-0.5-0.8h-0.1c-0.1 0.1-0.3 0.2-0.4 0.3c-1.1 0.8-2.2 1.2-3.4 1.2c-0.7 0-1.4-0.2-2.1-0.7 c-0.7-0.5-1.1-1.1-1.2-1.8c4.6-0.3 7.1-0.6 7.4-0.7C141.6 46.2 141.8 45.8 141.8 45.2z M138.3 44.7c-1.7 0.2-3 0.4-4.2 0.4 c-0.3 0-0.4-0.1-0.4-0.3c0-0.7 0.3-1.4 0.9-2c0.6-0.6 1.2-0.9 2-0.9c0.7 0 1.3 0.3 1.8 0.8c0.5 0.5 0.8 1.1 0.8 1.8 C139 44.5 138.8 44.6 138.3 44.7z"/><path fill="#1A801A" d="M149.4 40.1c-0.5 0-0.9 0.1-1.2 0.1c-0.4 0.1-0.8 0.3-1.1 0.5s-0.7 0.4-1 0.6c0 0 0 0-0.1 0 s-0.2-0.2-0.2-0.7c0-0.5-0.1-0.7-0.3-0.7c0 0-0.4 0.1-1.2 0.2c-0.5 0.1-1 0.1-1.3 0.1c-0.1 0-0.2 0.1-0.2 0.2v0.1 c0.4 1.2 0.6 2.7 0.6 4.7c0 0.7 0 1.7 0 2.9s0 2.3 0 2.9c0 0.2 0.1 0.3 0.3 0.3c0.3 0 0.6 0 1.1 0c0.5 0 0.9 0 1.1 0 c0.2 0 0.3-0.1 0.3-0.3c0-0.5 0-1.1-0.1-2.1c0-0.9-0.1-1.6-0.1-2.1v-1.3c0-1.1 0.1-1.8 0.3-2.2c0.3-0.6 0.9-0.9 2-0.9 c0.2 0 0.4 0 0.8 0.1c0.3 0 0.6 0.1 0.8 0.1c0.1 0 0.2-0.1 0.2-0.3c0.1-0.7 0.2-1.5 0.2-2.4C150.3 40.2 149.9 40.1 149.4 40.1z"/></g><g id="logo-icon"><path fill="#1A801A" d="M18.3 17.1c1.8-2.5 4.2-4.4 6.9-5.8c2.8-1.5 5.9-2.2 9-2.2c5.3 0 10.3 2.1 14 5.8c3.7 3.7 5.8 8.7 5.8 14 h-6.4l10 10l10-10h-6.4c0-3.6-0.7-7.3-2.2-10.6c-1.3-3.2-3.2-6.1-5.7-8.5S48 5.5 44.8 4.1C41.5 2.7 37.9 2 34.2 2 c-4.3 0-8.5 1-12.3 2.9c-3.3 1.8-6.4 4.2-8.7 7.2l5 5L18.3 17.1z"/><path fill="#1A801A" d="M50 41.1L50 41.1c-1.9 2.4-4.2 4.3-6.9 5.7c-1.8 0.9-3.7 1.6-5.7 1.9c0-3.3 0-7.6 0-10.7 c2.6 1 5.2 2 7.7 2.9c0-2.3-0.1-4.5-0.1-6.8c-0.8-0.5-4.6-1.8-5.9-2.3c-0.7-0.3-1.2-0.4-1.9-0.7c0-0.6 0-1.5 0-2.1 c2.5 1 5.2 2 7.7 2.9c0-2.3 0-4.5 0-6.8c0 0-0.8-0.3-1.8-0.7c-2-0.8-4-1.6-6-2.3c0-0.7 0-1.4 0-2.1c2.5 1 5.2 2 7.7 2.9 c0-2.3 0-4.5 0-6.8c-1-0.5-10.5-4.3-11.1-4.3c-0.4 0-10.7 4.2-11 4.4c0 2.3 0 4.5 0 6.7c2.6-1 5.2-2 7.8-2.9c0 0.7 0 1.4 0 2.1 c-2.6 1-5.3 2.1-7.9 3c0 2.3 0 4.5 0 6.8c2.6-1 5.3-2 7.9-3c0 0.7 0 1.4 0 2.1c-2.6 1-5.3 2.1-7.9 3c0 2.3 0 4.5 0 6.9 c2.6-1 5.3-2 7.8-2.9c0 3 0 7.4 0 10.7c-4.1-0.7-7.8-2.5-10.9-5.6c-3.7-3.7-5.8-8.7-5.8-14h6.4L10.8 19l-10 10h6.4 c0 3.6 0.7 7.3 2.2 10.6c1.4 3.2 3.3 6.1 5.8 8.6c2.4 2.5 5.4 4.4 8.6 5.8c3.3 1.4 6.9 2.2 10.6 2.2c4.3 0 8.4-1 12.3-2.9 c3.3-1.7 6.4-4.1 8.7-7.1L50 41.1z"/></g></svg>
