<svg xmlns="http://www.w3.org/2000/svg" xmlns:xlink="http://www.w3.org/1999/xlink" version="1.1" x="0px" y="0px" width="196px" height="58px" viewBox="0 0 196 58" enable-background="new 0 0 196 58" xml:space="preserve"><g id="logo-svg-green" fill="#FFFFFF"><g><path d="M18.7 16.9c1.8-2.5 4.3-4.5 7-5.9c2.9-1.5 6-2.2 9.2-2.2c5.4 0 10.5 2.1 14.3 5.9 c3.8 3.8 5.9 8.9 5.9 14.3h-6.5l10.2 10.2L69 29h-6.5c0-3.7-0.7-7.4-2.2-10.8C59 14.9 57 12 54.5 9.5c-2.5-2.5-5.5-4.5-8.8-5.9 c-3.4-1.4-7-2.2-10.8-2.2c-4.4 0-8.7 1-12.6 3c-3.4 1.8-6.5 4.3-8.9 7.3l5.1 5.1L18.7 16.9z"/><path d="M51 41.3L51 41.3c-1.9 2.4-4.3 4.4-7 5.8c-1.8 0.9-3.8 1.6-5.8 1.9c0-3.4 0-7.8 0-10.9c2.7 1 5.3 2 7.9 3 c0-2.3-0.1-4.6-0.1-6.9c-0.8-0.5-4.7-1.8-6-2.3c-0.7-0.3-1.2-0.4-1.9-0.7c0-0.6 0-1.5 0-2.1c2.6 1 5.3 2 7.9 3c0-2.3 0-4.6 0-6.9 c0 0-0.8-0.3-1.8-0.7c-2-0.8-4.1-1.6-6.1-2.3c0-0.7 0-1.4 0-2.1c2.6 1 5.3 2 7.9 3c0-2.3 0-4.6 0-6.9c-1-0.5-10.7-4.4-11.3-4.4 c-0.4 0-10.9 4.3-11.2 4.5c0 2.3 0 4.6 0 6.8c2.7-1 5.3-2 8-3c0 0.7 0 1.4 0 2.1c-2.7 1-5.4 2.1-8.1 3.1c0 2.3 0 4.6 0 6.9 c2.7-1 5.4-2 8.1-3.1c0 0.7 0 1.4 0 2.1c-2.7 1-5.4 2.1-8.1 3.1c0 2.3 0 4.6 0 7c2.7-1 5.4-2 8-3c0 3.1 0 7.5 0 10.9 c-4.2-0.7-8-2.6-11.1-5.7c-3.8-3.8-5.9-8.9-5.9-14.3h6.5L11 18.8L0.8 29h6.5c0 3.7 0.7 7.4 2.2 10.8c1.4 3.3 3.4 6.2 5.9 8.8 c2.5 2.5 5.5 4.5 8.8 5.9c3.4 1.4 7 2.2 10.8 2.2c4.4 0 8.6-1 12.5-3c3.4-1.7 6.5-4.2 8.9-7.2L51 41.3z"/></g><g><path d="M82.6 34.9C82.6 34.9 82.6 34.9 82.6 34.9C82.6 34.9 82.6 34.9 82.6 34.9z"/><path d="M90.4 40.3c-0.5 0-0.9 0.1-1.2 0.1c-0.4 0.1-0.8 0.3-1.1 0.5c-0.3 0.2-0.7 0.4-1 0.6c0 0 0 0-0.1 0 c-0.1 0-0.2-0.2-0.2-0.7c0-0.5-0.1-0.7-0.3-0.7c0 0-0.4 0.1-1.2 0.2c-0.5 0.1-1 0.1-1.3 0.1c-0.1 0-0.2 0.1-0.2 0.2 c0 0 0 0.1 0 0.1c0.4 1.2 0.6 2.8 0.6 4.8c0 0.7 0 1.7 0 3c0 1.3 0 2.3 0 3c0 0.2 0.1 0.3 0.3 0.3c0.3 0 0.6 0 1.1 0 c0.5 0 0.9 0 1.1 0c0.2 0 0.3-0.1 0.3-0.3c0-0.5 0-1.1-0.1-2.1c0-0.9-0.1-1.6-0.1-2.1v-1.3c0-1.1 0.1-1.8 0.3-2.2 c0.3-0.6 0.9-0.9 2-0.9c0.2 0 0.4 0 0.8 0.1c0.3 0 0.6 0.1 0.8 0.1c0.1 0 0.2-0.1 0.2-0.3c0.1-0.7 0.2-1.5 0.2-2.4 C91.4 40.4 91.1 40.3 90.4 40.3z"/><path d="M82.9 36.3c0-0.8 0-1.2 0-1.2c0-0.1-0.1-0.2-0.3-0.2c0 0-0.5 0.1-1.6 0.1c-1.8 0.1-3.2 0.2-4 0.2 c-0.9 0-2.8-0.1-5.7-0.3l-0.2 0c-0.1 0-0.2 0.1-0.2 0.2c-0.1 0.5-0.2 0.9-0.2 1.2c0 0.1-0.1 0.3-0.2 0.6c-0.1 0.3-0.1 0.5-0.1 0.6 c0 0.1 0 0.1 0.1 0.1c1 0 2.5-0.1 4.6-0.2c0.1 2.5 0.1 4.5 0.1 5.9c0 0.9 0 2.3-0.1 4.2c-0.1 1.9-0.1 3.2-0.1 4.2 c0 0.2 0.1 0.3 0.3 0.3c0.2 0 0.4 0 0.7 0c0.3 0 0.5 0 0.7 0c0.2 0 0.4 0 0.7 0c0.3 0 0.5 0 0.7 0c0.2 0 0.4-0.1 0.4-0.3 c0-0.9 0-2.3-0.1-4.2c-0.1-1.9-0.1-3.3-0.1-4.2c0-1.5 0-3.5 0.1-5.9c2.6 0.1 4.1 0.1 4.3 0.1c0.1 0 0.2-0.1 0.2-0.3 c0-0.1 0-0.3 0-0.5C82.9 36.5 82.9 36.4 82.9 36.3z"/><path d="M169.9 36.4c-0.3-0.3-0.7-0.4-1.2-0.4c-0.5 0-0.8 0.1-1.2 0.4c-0.3 0.3-0.5 0.7-0.5 1.1 c0 1 0.6 1.5 1.7 1.5c1.1 0 1.7-0.5 1.7-1.5C170.4 37 170.2 36.7 169.9 36.4z"/><path d="M164.8 40.5c-0.3 0-0.6 0-1.2 0c-0.5 0-0.9 0-1.2 0c-0.1 0-0.2 0.1-0.2 0.2c0 0.3 0 0.7 0.1 1.2 c0.1 0.5 0.1 0.9 0.1 1.2c0 1 0 1.7-0.1 2.1c0 0.3-0.4 1-1.1 2.2c-0.7 1.2-1.1 1.8-1.3 1.8c-0.2 0-0.7-0.6-1.4-1.8 c-0.8-1.2-1.2-1.9-1.2-2.3c-0.1-0.6-0.1-1.3-0.1-2c0-0.3 0-0.6 0-1.1c0-0.5 0-0.9 0-1.1c0-0.2-0.1-0.2-0.2-0.2c-0.3 0-0.7 0-1.2 0 c-0.5 0-0.9 0-1.2 0c-0.2 0-0.3 0.1-0.3 0.3c0 0.3 0 0.8 0 1.5c0 0.7 0 1.2 0 1.5c0 1.1 0.1 1.9 0.3 2.4c0.1 0.4 0.8 1.4 2 3.1 c1.3 1.8 2 2.7 2.2 2.7c0.2 0 0.5 0.1 1.1 0.1c0.6 0 0.9 0 1-0.1c0.2-0.1 1-1 2.2-2.8c1.2-1.8 1.8-2.8 2-3.2 c0.1-0.2 0.1-0.8 0.1-2C165.2 41.7 165 40.5 164.8 40.5z"/><path d="M193 45.5c0-1.6-0.5-2.9-1.5-4c-1-1.1-2.3-1.7-3.8-1.7c-1.6 0-3 0.6-4.1 1.9c-1.1 1.2-1.6 2.7-1.6 4.4 c0 1.9 0.6 3.4 1.7 4.5c1.1 1.1 2.6 1.7 4.5 1.7c1.9 0 3.4-0.6 4.6-1.9c0.1-0.1 0.2-0.2 0.2-0.3c0 0-0.1-0.3-0.4-0.9 c-0.3-0.5-0.4-0.8-0.5-0.8c0 0-0.1 0-0.1 0c-0.1 0.1-0.3 0.2-0.4 0.3c-1.1 0.8-2.2 1.2-3.5 1.2c-0.7 0-1.4-0.2-2.1-0.7 c-0.7-0.5-1.1-1.1-1.2-1.8c4.7-0.3 7.2-0.6 7.5-0.7C192.7 46.5 193 46.1 193 45.5z M189.4 45c-1.7 0.2-3.1 0.4-4.3 0.4 c-0.3 0-0.4-0.1-0.4-0.3c0-0.7 0.3-1.4 0.9-2c0.6-0.6 1.2-0.9 2-0.9c0.7 0 1.3 0.3 1.8 0.8c0.5 0.5 0.8 1.1 0.8 1.8 C190.1 44.8 189.8 44.9 189.4 45z"/><path d="M178.2 42.4c0.4 0 0.8 0.1 1.2 0.2c0.4 0.2 0.7 0.3 1.1 0.5c0.1 0 0.2-0.3 0.4-0.9c0.2-0.6 0.3-1 0.3-1.2 c0-0.1-0.1-0.2-0.2-0.3c-0.9-0.6-2-0.9-3.1-0.9c-1.7 0-3.1 0.6-4.2 1.8c-1.1 1.2-1.7 2.7-1.7 4.4c0 1.7 0.6 3.1 1.7 4.3 c1.2 1.2 2.6 1.9 4.2 1.9c0.4 0 1-0.1 1.8-0.3c0.9-0.2 1.4-0.5 1.4-0.7c0-0.2-0.1-0.7-0.2-1.3c-0.1-0.7-0.2-1-0.4-1 c0.1 0-0.2 0.1-0.7 0.4c-0.5 0.3-1.1 0.4-1.6 0.4c-1 0-1.8-0.4-2.5-1.1c-0.7-0.7-1-1.6-1-2.6c0-1 0.3-1.9 1-2.6 C176.4 42.7 177.2 42.4 178.2 42.4z"/><path d="M170.1 40.5c-0.2 0-0.4 0-0.7 0.1c-0.3 0-0.5 0.1-0.7 0.1c-0.2 0-0.4 0-0.7-0.1c-0.3 0-0.5-0.1-0.7-0.1 c-0.2 0-0.3 0.1-0.3 0.2c0 0.6 0 1.6 0.1 2.8c0.1 1.3 0.1 2.2 0.1 2.8c0 0.6 0 1.4 0 2.5c0 1.1 0 2 0 2.5c0 0.3 0.1 0.5 0.3 0.5 h2.4c0.1 0 0.2-0.1 0.2-0.3c0-0.6 0-1.5 0-2.6c0-1.2 0-2.1 0-2.6c0-0.6 0-1.6 0.1-2.8c0.1-1.3 0.1-2.2 0.1-2.8 C170.3 40.6 170.2 40.5 170.1 40.5z"/><path d="M103 45.5c0-1.6-0.5-2.9-1.5-4c-1-1.1-2.3-1.7-3.8-1.7c-1.6 0-3 0.6-4.1 1.9c-1.1 1.2-1.6 2.7-1.6 4.4 c0 1.9 0.6 3.4 1.7 4.5c1.1 1.1 2.6 1.7 4.5 1.7c1.9 0 3.4-0.6 4.6-1.9c0.1-0.1 0.2-0.2 0.2-0.3c0 0-0.1-0.3-0.4-0.9 c-0.3-0.5-0.4-0.8-0.5-0.8c0 0-0.1 0-0.1 0c-0.1 0.1-0.3 0.2-0.4 0.3c-1.1 0.8-2.2 1.2-3.5 1.2c-0.7 0-1.4-0.2-2.1-0.7 c-0.7-0.5-1.1-1.1-1.2-1.8c4.7-0.3 7.2-0.6 7.5-0.7C102.7 46.5 103 46.1 103 45.5z M99.4 45c-1.7 0.2-3.1 0.4-4.3 0.4 c-0.3 0-0.4-0.1-0.4-0.3c0-0.7 0.3-1.4 0.9-2c0.6-0.6 1.2-0.9 2-0.9c0.7 0 1.3 0.3 1.8 0.8c0.5 0.5 0.8 1.1 0.8 1.8 C100.1 44.8 99.9 44.9 99.4 45z"/><path d="M114.9 45.5c0-1.6-0.5-2.9-1.5-4c-1-1.1-2.3-1.7-3.8-1.7c-1.6 0-3 0.6-4.1 1.9c-1.1 1.2-1.6 2.7-1.6 4.4 c0 1.9 0.6 3.4 1.7 4.5c1.1 1.1 2.6 1.7 4.5 1.7c1.9 0 3.4-0.6 4.6-1.9c0.1-0.1 0.2-0.2 0.2-0.3c0 0-0.1-0.3-0.4-0.9 c-0.3-0.5-0.4-0.8-0.5-0.8c0 0-0.1 0-0.1 0c-0.1 0.1-0.3 0.2-0.4 0.3c-1.1 0.8-2.2 1.2-3.5 1.2c-0.7 0-1.4-0.2-2.1-0.7 c-0.7-0.5-1.1-1.1-1.2-1.8c4.7-0.3 7.2-0.6 7.5-0.7C114.7 46.5 114.9 46.1 114.9 45.5z M111.4 45c-1.7 0.2-3.1 0.4-4.3 0.4 c-0.3 0-0.4-0.1-0.4-0.3c0-0.7 0.3-1.4 0.9-2c0.6-0.6 1.2-0.9 2-0.9c0.7 0 1.3 0.3 1.8 0.8c0.5 0.5 0.8 1.1 0.8 1.8 C112.1 44.8 111.8 44.9 111.4 45z"/><path d="M128.1 37.7c0.5 0 1.2 0.1 1.9 0.4c0.8 0.3 1.2 0.4 1.2 0.4c0.1 0 0.1 0 0.2-0.1c0.2-0.5 0.4-0.8 0.5-1.1 c0.3-0.5 0.5-0.9 0.7-1.2c0-0.1-0.1-0.1-0.1-0.2c-0.5-0.3-1.1-0.6-2.1-0.8c-0.8-0.2-1.6-0.3-2.2-0.3c-1.5 0-2.8 0.4-3.7 1.3 c-1 0.9-1.5 2.1-1.5 3.6c0 1.4 0.5 2.5 1.5 3.3c0 0 1 0.6 2.8 1.6c1 0.6 1.5 1.3 1.5 2.1c0 1.6-1.3 2.4-3.8 2.4 c-0.2 0-0.5 0-0.9-0.1c-0.4 0-0.7-0.1-0.9-0.1c-0.1 0-0.2 0.1-0.2 0.2c0 0.1 0 0.1 0 0.2c0.1 0.5 0.2 0.8 0.3 1.1 c0.1 0.6 0.2 1 0.2 1.3c0.1 0.2 0.5 0.3 1.4 0.3c1.9 0 3.5-0.5 4.7-1.4c1.4-1 2.1-2.5 2.1-4.3c0-1.4-0.5-2.5-1.6-3.4 c-0.2-0.1-1.2-0.7-2.9-1.6c-1-0.5-1.6-1.2-1.6-1.9C125.9 38.4 126.7 37.7 128.1 37.7z"/><path d="M144.7 45.5c0-1.6-0.5-2.9-1.5-4c-1-1.1-2.3-1.7-3.8-1.7c-1.6 0-3 0.6-4.1 1.9c-1.1 1.2-1.6 2.7-1.6 4.4 c0 1.9 0.6 3.4 1.7 4.5c1.1 1.1 2.6 1.7 4.5 1.7c1.9 0 3.4-0.6 4.6-1.9c0.1-0.1 0.2-0.2 0.2-0.3c0 0-0.1-0.3-0.4-0.9 c-0.3-0.5-0.4-0.8-0.5-0.8c0 0-0.1 0-0.1 0c-0.1 0.1-0.3 0.2-0.4 0.3c-1.1 0.8-2.2 1.2-3.5 1.2c-0.7 0-1.4-0.2-2.1-0.7 c-0.7-0.5-1.1-1.1-1.2-1.8c4.7-0.3 7.2-0.6 7.5-0.7C144.5 46.5 144.7 46.1 144.7 45.5z M141.1 45c-1.7 0.2-3.1 0.4-4.3 0.4 c-0.3 0-0.4-0.1-0.4-0.3c0-0.7 0.3-1.4 0.9-2c0.6-0.6 1.2-0.9 2-0.9c0.7 0 1.3 0.3 1.8 0.8c0.5 0.5 0.8 1.1 0.8 1.8 C141.8 44.8 141.6 44.9 141.1 45z"/><path d="M152.4 40.3c-0.5 0-0.9 0.1-1.2 0.1c-0.4 0.1-0.8 0.3-1.1 0.5c-0.3 0.2-0.7 0.4-1 0.6c0 0 0 0-0.1 0 c-0.1 0-0.2-0.2-0.2-0.7c0-0.5-0.1-0.7-0.3-0.7c0 0-0.4 0.1-1.2 0.2c-0.5 0.1-1 0.1-1.3 0.1c-0.1 0-0.2 0.1-0.2 0.2 c0 0 0 0.1 0 0.1c0.4 1.2 0.6 2.8 0.6 4.8c0 0.7 0 1.7 0 3c0 1.3 0 2.3 0 3c0 0.2 0.1 0.3 0.3 0.3c0.3 0 0.6 0 1.1 0 c0.5 0 0.9 0 1.1 0c0.2 0 0.3-0.1 0.3-0.3c0-0.5 0-1.1-0.1-2.1c0-0.9-0.1-1.6-0.1-2.1v-1.3c0-1.1 0.1-1.8 0.3-2.2 c0.3-0.6 0.9-0.9 2-0.9c0.2 0 0.4 0 0.8 0.1c0.3 0 0.6 0.1 0.8 0.1c0.1 0 0.2-0.1 0.2-0.3c0.1-0.7 0.2-1.5 0.2-2.4 C153.4 40.4 153 40.3 152.4 40.3z"/></g><g><path d="M160.5 33.5c3.4 0 6.3-1.4 8.7-4.1c0.2-0.3 0.3-0.5 0.3-0.6c0-0.1-0.4-0.6-1.1-1.6 c-0.7-0.9-1.1-1.4-1.2-1.4c-0.1 0-0.4 0.3-1 0.9c-0.7 0.7-1.5 1.2-2.2 1.6c-1.1 0.6-2.2 0.9-3.4 0.9c-2.4 0-4.2-0.9-5.5-2.8 c-1.2-1.7-1.7-3.7-1.7-6.2c0-2.5 0.6-4.5 1.8-6.1c1.3-1.8 3.2-2.7 5.5-2.7c1.2 0 2.4 0.3 3.4 0.9c0.6 0.4 1.3 0.9 2 1.6 c0.6 0.6 0.9 0.9 1.1 0.9c0.1 0 0.5-0.5 1.2-1.5c0.6-1 0.9-1.6 0.9-1.8c0-0.2-0.1-0.4-0.3-0.6c-2-2.4-4.8-3.7-8.4-3.7 c-3.6 0-6.5 1.3-8.6 4c-2 2.5-3.1 5.5-3.1 9.2c0 3.7 1 6.7 3 9.1C154.1 32.2 157 33.5 160.5 33.5z"/><path d="M68.2 11.8c1.4 0 3.7-0.1 6.8-0.3c0.1 3.7 0.2 6.6 0.2 8.8c0 1.4-0.1 3.4-0.2 6.2 c-0.1 2.7-0.2 4.8-0.2 6.1c0 0.3 0.2 0.4 0.4 0.4c0.2 0 0.5 0 1-0.1c0.4 0 0.8-0.1 1-0.1c0.2 0 0.6 0 1 0.1c0.4 0 0.8 0.1 1 0.1 c0.3 0 0.5-0.1 0.5-0.4c0-1.4 0-3.4-0.2-6.2c-0.1-2.7-0.2-4.8-0.2-6.2c0-2.2 0.1-5.1 0.2-8.8c3.9 0.1 6 0.2 6.4 0.2 c0.2 0 0.3-0.2 0.3-0.5c0-0.2 0-0.4-0.1-0.7c0-0.3-0.1-0.6-0.1-0.7c0-1.2 0-1.8 0-1.8c0-0.2-0.2-0.3-0.5-0.3c0 0-0.8 0.1-2.4 0.2 c-2.7 0.2-4.7 0.3-5.9 0.3c-1.4 0-4.1-0.1-8.4-0.4l-0.2 0c-0.1 0-0.2 0.1-0.3 0.2c-0.1 0.7-0.2 1.3-0.3 1.7c0 0.1-0.1 0.4-0.2 0.9 c-0.1 0.4-0.2 0.7-0.2 0.9C67.9 11.7 68 11.8 68.2 11.8z"/><path d="M183 33.6c3.5 0 6.5-1.3 8.8-4c2.3-2.6 3.4-5.6 3.4-9.2s-1.1-6.6-3.4-9.2c-2.4-2.7-5.3-4-8.8-4 c-3.5 0-6.4 1.3-8.8 4c-2.3 2.6-3.4 5.6-3.4 9.2c0 3.6 1.1 6.6 3.4 9.2C176.5 32.3 179.5 33.6 183 33.6z M177.3 14.3 c1.5-1.9 3.4-2.8 5.7-2.8c2.3 0 4.2 0.9 5.8 2.8c1.5 1.7 2.2 3.8 2.2 6.1c0 2.4-0.7 4.4-2.2 6.2c-1.5 1.9-3.5 2.8-5.8 2.8 c-2.3 0-4.2-0.9-5.7-2.8c-1.4-1.7-2.2-3.8-2.2-6.1C175.1 18.1 175.8 16.1 177.3 14.3z"/><path d="M129.9 32.5c0 0.3 0.2 0.5 0.6 0.5c0.9 0 2.2 0 3.9-0.1c1.8 0 3.1-0.1 3.9-0.1c3.1 0 5.4 0.1 6.8 0.3 c0.3 0.1 0.6 0.1 0.7 0.1c0.3 0 0.4-0.1 0.5-0.3c0.1-0.8 0.2-1.5 0.3-1.9c0-0.1 0.1-0.4 0.2-0.8c0.1-0.4 0.1-0.6 0.1-0.8 c0-0.3-0.1-0.5-0.4-0.4l-0.3 0c-3.9 0.3-6.2 0.4-7.1 0.4l-2 0c-1.2 0-1.9-0.1-2.2-0.4c-0.4-0.3-0.6-1.1-0.6-2.3v-2.7 c0-1 0-1.5 0-1.4c0.1-0.5 0.3-0.7 0.8-0.8c0.5 0 1.8-0.1 3.7-0.1c2.3 0 3.8 0 4.5 0.1c0.9 0.1 1.5 0.1 1.6 0.1 c0.4 0 0.5-0.1 0.5-0.3c0-0.4 0-1 0.1-1.8c0.1-0.8 0.1-1.4 0.1-1.8c0-0.2-0.1-0.3-0.4-0.3c-1 0.1-1.9 0.2-2.6 0.2 c-1.9 0.1-4 0.1-6.3 0.1c-0.1 0-0.3 0-0.6 0c-0.3 0-0.5 0-0.6 0c-0.5 0-0.8-0.2-0.9-0.6c0-0.1-0.1-0.5-0.1-1.3v-2.7 c0-1 0.1-1.7 0.4-2c0.3-0.3 0.9-0.4 1.9-0.4c1 0 2.6 0.1 4.7 0.2c2.1 0.1 3.6 0.2 4.6 0.2c0.3 0 0.4-0.1 0.4-0.4 c0-0.4-0.1-1.4-0.4-2.9c0-0.3-0.4-0.5-0.9-0.5c-0.8 0-2 0-3.6 0.1C139.9 8 138.7 8 138 8c-0.8 0-2.1 0-3.8-0.1 c-1.7 0-2.9-0.1-3.8-0.1c-0.3 0-0.5 0.1-0.5 0.4l0 0.3c0.1 1.9 0.2 3.3 0.2 4.3c0.1 3.7 0.2 6.3 0.2 7.6c0 1.3-0.1 3.4-0.2 6 C130 29.2 129.9 31.2 129.9 32.5z"/><path d="M85.7 7.7C85.7 7.7 85.7 7.7 85.7 7.7C85.7 7.7 85.7 7.7 85.7 7.7z"/><path d="M88.8 20.7c0 1.3-0.1 3.3-0.2 6c-0.1 2.7-0.2 4.7-0.2 6c0 0.3 0.1 0.4 0.4 0.4c0.2 0 0.5 0 0.9-0.1 c0.4 0 0.7-0.1 0.9-0.1c0.3 0 0.6 0 1.1 0.1c0.5 0 0.8 0.1 1.1 0.1c0.2 0 0.4-0.1 0.4-0.4c0-0.8 0-2.1-0.1-3.7 C93.1 27.3 93 26 93 25.2c0-0.6 0.1-0.9 0.4-0.9c0.3 0 1.3-0.1 2.9-0.1c0.9 0 1.5 0 1.6 0c0.7 0.1 1.1 0.4 1.3 0.8 c1.8 4.2 2.9 6.7 3.3 7.6c0.1 0.3 0.4 0.4 0.6 0.4c0.3 0 0.6 0 1.1-0.1c0.5 0 0.9-0.1 1.1-0.1c0.2 0 0.6 0 1 0.1 c0.5 0 0.8 0.1 1 0.1c0.2 0 0.3 0 0.3-0.1c0-0.2-0.7-1.8-2.1-4.8c-1.4-3-2.1-4.6-2.1-4.8c0-0.1 0.1-0.3 0.3-0.4 c1.4-1 2.3-2 2.8-3.1c0.5-1 0.7-2.4 0.7-4.2c0-2.6-0.9-4.6-2.7-5.9c-1.6-1.3-3.7-1.9-6.4-1.9c-1 0-2.6 0-4.6 0.1 c-2 0.1-3.6 0.1-4.6 0.1c-0.5 0-0.8 0.1-0.8 0.4l0 0.3C88.7 12.8 88.8 16.9 88.8 20.7z M93 17.1c0-2.8 0-4.5 0.1-5.2 c0-0.3 1-0.5 3-0.5c2.4 0 4 0.3 5 0.8c1.2 0.7 1.9 2.2 1.9 4.3c0 2.8-1.7 4.2-5 4.2c-1.3 0-2.5 0-3.7-0.1c-0.5 0-0.8-0.1-1.1-0.1 c-0.1 0-0.2 0-0.2-0.1V17.1z"/><path d="M110.2 32.5c0 0.3 0.2 0.5 0.6 0.5c0.9 0 2.2 0 3.9-0.1c1.8 0 3.1-0.1 3.9-0.1c3.1 0 5.4 0.1 6.8 0.3 c0.3 0.1 0.6 0.1 0.7 0.1c0.3 0 0.4-0.1 0.5-0.3c0.1-0.8 0.2-1.5 0.2-1.9c0-0.1 0.1-0.4 0.2-0.8c0.1-0.4 0.1-0.6 0.1-0.8 c0-0.3-0.1-0.5-0.4-0.4l-0.3 0c-3.9 0.3-6.2 0.4-7.1 0.4l-2 0c-1.2 0-1.9-0.1-2.2-0.4c-0.4-0.3-0.6-1.1-0.6-2.3v-2.7 c0-1 0-1.5 0-1.4c0.1-0.5 0.3-0.7 0.8-0.8c0.5 0 1.8-0.1 3.7-0.1c2.3 0 3.8 0 4.5 0.1c0.9 0.1 1.5 0.1 1.6 0.1 c0.4 0 0.5-0.1 0.5-0.3c0-0.4 0-1 0.1-1.8c0.1-0.8 0.1-1.4 0.1-1.8c0-0.2-0.1-0.3-0.4-0.3c-1 0.1-1.8 0.2-2.6 0.2 c-1.9 0.1-4 0.1-6.3 0.1c-0.1 0-0.3 0-0.6 0c-0.3 0-0.5 0-0.6 0c-0.5 0-0.8-0.2-0.9-0.6c0-0.1-0.1-0.5-0.1-1.3v-2.7 c0-1 0.1-1.7 0.4-2c0.3-0.3 0.9-0.4 1.9-0.4c1 0 2.6 0.1 4.7 0.2c2.1 0.1 3.6 0.2 4.6 0.2c0.3 0 0.4-0.1 0.4-0.4 c0-0.4-0.1-1.4-0.4-2.9c-0.1-0.3-0.4-0.5-0.9-0.5c-0.8 0-2 0-3.6 0.1C120.2 8 119 8 118.2 8c-0.8 0-2.1 0-3.8-0.1 c-1.7 0-2.9-0.1-3.8-0.1c-0.3 0-0.5 0.1-0.5 0.4l0 0.3c0.1 1.9 0.2 3.3 0.2 4.3c0.1 3.7 0.2 6.3 0.2 7.6c0 1.3-0.1 3.4-0.2 6 C110.2 29.2 110.2 31.2 110.2 32.5z"/></g></g></svg>
