<svg xmlns="http://www.w3.org/2000/svg" xmlns:xlink="http://www.w3.org/1999/xlink" version="1.1" x="0px" y="0px" viewBox="0 0 1024 600" enable-background="new 0 0 1024 600" xml:space="preserve" preserveAspectRatio="none">
  <defs>
    <filter id="drop-shadow">
      <feGaussianBlur stdDeviation="4" in="SourceAlpha"/>
      <feOffset dx="0" dy="0" result="offsetblur"/>
      <feFlood flood-color="#ADADAD"/>
      <feComposite operator="in" in2="offsetblur"/>
      <feMerge>
        <feMergeNode/>
        <feMergeNode in="SourceGraphic"/>
      </feMerge>
    </filter>
  </defs>
    <g id="right_side_small_tree">

      <path id="upper_right_leaf" fill="#1F9921" d="M966.155 299.34c0 0-9.74-4.745-4.326-14.962 c5.412-10.219 11.442-11.363 11.442-11.363s2.982 5.9 3.4 12.366C977.473 297.5 966.2 299.3 966.2 299.34z"/>
      <path id="upper_left_leaf" fill="#1F9921" d="M965.242 297.885c0 0-7.014 4.745-11.821-2.902 c-4.81-7.653-3.237-12.182-3.237-12.182s5.138 0.3 9.7 2.51C968.415 289.5 965.2 297.9 965.2 297.885z"/>
      <path id="lower_leaf" fill="#1F9921" d="M970.617 361.916c0 0-4.686-5.914 1.781-10.703c6.477-4.804 10.609-3.707 10.609-3.707 s0.113 4.579-1.572 8.797C978.293 364.2 970.6 361.9 970.6 361.916z"/>

      <path id="trunk_2_" fill="#654D00" d="M963.909 429.915c0 0 2.255-60.207 0-98.34c-2.256-38.131 2.817-42.024 2.817-42.024 s3.385 48.4 4.5 83.972c1.126 35.5 7.9 56.4 7.9 56.393H963.909z"/>
    </g>
    <g id="Left_side_small_tree">
        <path id="shrub_1_" fill="#1A801A" d="M949.939 262.102c-0.012 18.525-14.698 39.1-32.06 43.8 c-17.358 4.676-27.388 3.691-27.388 3.691s-34.645 27.338-55.763 12.44c-21.113-14.896-26.377-53.305-8.979-84.035 C850.923 193.5 950 189.8 949.9 262.102z"/>
        <path id="right_leaf" fill="#1F9921" d="M908.365 297.589c0 0-9.737-4.743-4.325-14.961 c5.418-10.219 11.446-11.362 11.446-11.362s2.979 5.9 3.4 12.365C919.689 295.8 908.4 297.6 908.4 297.589z"/>
        <path id="middle_leaf" fill="#1F9921" d="M907.46 296.135c0 0-7.015 4.745-11.825-2.902 c-4.812-7.654-3.235-12.183-3.235-12.183s5.14 0.3 9.7 2.513C910.629 287.8 907.5 296.1 907.5 296.135z"/>
        <path id="left_leaf" fill="#1F9921" d="M851.941 305.897c0 0-5.241-0.358-4.673-5.939c0.571-5.582 3.074-7.193 3.074-7.193 s2.413 2.1 3.8 4.939C856.699 303 851.9 305.9 851.9 305.897z"/>
        <path id="trunk_1_" fill="#654D00" d="M882.791 427.338c0 0-6.769-34.965-18.046-75.566 c-11.278-40.606-15.229-52.449-15.229-52.449l23.95 62.92c0 0-1.388-62.672-1.388-88.172c0-25.499 6.2-41.288 6.2-41.288 l4.513 97.277l29.325-42.016c0 0-23.122 43.425-24.811 56.958c-1.693 13.5 8.5 82.3 8.5 82.336H882.791z"/>
    </g>
</svg>
