<svg xmlns="http://www.w3.org/2000/svg" xmlns:xlink="http://www.w3.org/1999/xlink" version="1.1" id="veggie-oil-logo" x="0px" y="0px" width="386px" height="72px" viewBox="-6.5 -3.5 386 72" enable-background="new -6.5 -3.5 386 72" xml:space="preserve"><defs><filter id="drop-shadow"><feGaussianBlur stdDeviation="2" in="SourceAlpha"/><feOffset dx="1" dy="1" result="offsetblur"/><feFlood flood-color="#727272"/><feComposite operator="in" in2="offsetblur"/><feMerge><feMergeNode/><feMergeNode in="SourceGraphic"/></feMerge></filter></defs><g filter="url(#drop-shadow)"><path id="words" fill="#1A801A" d="M42.2 24.5c0 1-2.2 5.6-6.7 14.1c-2.8 5.3-5.6 10.5-8.5 15.8c-0.3 0.7-0.7 1-1.1 1h-6.8 c-0.3 0-0.6-0.3-1-1c-0.1-0.1-2.8-5.2-8.1-15.3c-4.6-8.7-6.9-13.4-6.9-14.2c0-1.8 0.1-4.5 0.2-8.1c0.1-3.6 0.2-6.3 0.2-8.1 c0-0.8 0.3-1.3 0.8-1.3c0.4 0 1.1 0 1.9 0.1c0.9 0.1 1.5 0.2 1.9 0.2c0.4 0 1 0 1.9-0.1c0.8-0.1 1.5-0.1 1.9-0.1 c0.5 0 0.8 0.2 0.8 0.6c0 1.8-0.1 4.6-0.4 8.3c-0.2 3.7-0.4 6.5-0.4 8.4c0 1.5 3.5 8.4 10.6 20.7c1.9-3.2 3.9-6.8 6.1-10.9 c3.2-6 4.7-9.5 4.7-10.5c0-1.8-0.1-4.4-0.2-7.9c-0.1-3.5-0.2-6.2-0.2-7.9c0-0.5 0.2-0.7 0.8-0.7c0.4 0 1.1 0 1.9 0.1 c0.8 0.1 1.5 0.1 1.9 0.1s1 0 1.9-0.1c0.8-0.1 1.4-0.1 1.9-0.1s0.8 0.2 0.9 0.6c0-0.2 0 0.3 0 1.3c0 1.7 0 4.2 0.1 7.6 C42.2 20.3 42.2 22.8 42.2 24.5z M79.5 47.6c0.5 0 0.7 0.2 0.7 0.9c0 0.4-0.1 0.9-0.3 1.6c-0.2 0.9-0.3 1.4-0.4 1.6 c-0.1 0.8-0.2 2-0.5 3.6c-0.1 0.4-0.4 0.6-0.9 0.6c-0.2 0-0.7 0-1.3-0.1c-2.8-0.4-7.1-0.6-13-0.6c-1.7 0-4.2 0-7.5 0.1 s-5.8 0.1-7.5 0.1c-0.8 0-1.1-0.3-1.1-1c0-2.5 0.1-6.4 0.4-11.5c0.3-5.1 0.4-8.9 0.4-11.5s-0.1-7.4-0.4-14.5c0-1.8-0.2-4.5-0.4-8.2 V8.2c0-0.5 0.3-0.8 0.9-0.8c1.6 0 4 0 7.2 0.1s5.6 0.1 7.2 0.1c1.5 0 3.8 0 6.8-0.1s5.3-0.1 6.8-0.1c1.1 0 1.6 0.3 1.7 1 c0.5 3 0.7 4.9 0.7 5.6c0 0.5-0.3 0.8-0.8 0.8c-1.9 0-4.9-0.1-8.8-0.3s-6.9-0.3-8.9-0.3c-1.9 0-3 0.3-3.5 0.8s-0.7 1.7-0.7 3.7v5.1 c0 1.4 0 2.2 0.1 2.4c0.2 0.7 0.8 1.1 1.8 1.1c0.3 0 0.7 0 1.2 0s0.9 0 1.2 0c4.5 0 8.5-0.1 12-0.2c1.4 0 3-0.2 4.9-0.3 c0.5 0 0.7 0.2 0.7 0.6c0 0.7-0.1 1.8-0.3 3.3c-0.2 1.5-0.3 2.6-0.3 3.4c0 0.4-0.3 0.6-1 0.6c-0.3 0-1.3-0.1-3-0.2 c-1.3-0.1-4.1-0.2-8.6-0.2c-3.8 0-6.1 0-7.1 0.1c-0.9 0.1-1.4 0.5-1.6 1.4c0-0.2 0 0.7 0 2.6v5c0 2.4 0.4 3.8 1.1 4.4 c0.6 0.5 2 0.7 4.3 0.7h3.8c1.6 0 6.1-0.3 13.4-0.8L79.5 47.6L79.5 47.6z M127.2 53.6c0 0.5-0.2 0.8-0.9 0.8c-0.3 0-1.2-0.3-2.5-1 c-1.3-0.6-2.1-1.1-2.5-1.4c-4.2 2.8-9.1 4.3-14.9 4.3c-6.7 0-12.2-2.5-16.5-7.5c-4.1-4.7-6.1-10.5-6.1-17.3c0-7 2-12.8 6-17.5 c4.3-5 9.8-7.5 16.6-7.5c3.5 0 6.9 0.8 10.1 2.5c3.2 1.6 5.8 3.9 7.8 6.8c0.3 0.4 0.4 0.8 0.4 1c0 0.3-0.8 1.4-2.4 3.2 c-1.6 1.8-2.6 2.7-2.8 2.7c-0.2 0-0.9-0.7-2.1-2.1c-1.5-1.7-2.8-3-4.2-3.9c-2.1-1.4-4.2-2.1-6.5-2.1c-4.3 0-7.8 1.8-10.6 5.4 c-2.5 3.3-3.8 7.1-3.8 11.6c0 4.3 1.3 8.2 3.9 11.5c2.8 3.6 6.3 5.4 10.5 5.4s8-1.1 11.5-3.4c0-0.6-0.2-2.8-0.6-6.5 c-0.3-2.6-0.4-4.8-0.4-6.4c0-0.4 0.2-0.6 0.8-0.6c0.4 0 1.1 0 1.9 0.1c0.9 0.1 1.5 0.1 1.9 0.1s1.1 0 2-0.1c0.9 0 1.5-0.1 2-0.1 s0.7 0.4 0.7 1.1c0 0.8 0 2-0.1 3.6s-0.1 2.8-0.1 3.6c0 3.3 0.2 7.7 0.6 13.3L127.2 53.6z M174.3 53.6c0 0.5-0.2 0.8-0.9 0.8 c-0.3 0-1.2-0.3-2.5-1c-1.3-0.6-2.1-1.1-2.5-1.4c-4.2 2.8-9.1 4.3-14.9 4.3c-6.7 0-12.2-2.5-16.5-7.5c-4.1-4.7-6.1-10.5-6.1-17.3 c0-7 2-12.8 6-17.5c4.3-5 9.8-7.5 16.6-7.5c3.5 0 6.9 0.8 10.1 2.5c3.2 1.6 5.8 3.9 7.8 6.8c0.3 0.4 0.4 0.8 0.4 1 c0 0.3-0.8 1.4-2.4 3.2c-1.6 1.8-2.6 2.7-2.8 2.7s-0.9-0.7-2.1-2.1c-1.5-1.7-2.8-3-4.2-3.9c-2.1-1.4-4.2-2.1-6.5-2.1 c-4.3 0-7.8 1.8-10.6 5.4c-2.5 3.3-3.8 7.1-3.8 11.6c0 4.3 1.3 8.2 3.9 11.5c2.8 3.6 6.3 5.4 10.5 5.4s8-1.1 11.5-3.4 c0-0.6-0.2-2.8-0.6-6.5c-0.3-2.6-0.4-4.8-0.4-6.4c0-0.4 0.2-0.6 0.8-0.6c0.4 0 1.1 0 1.9 0.1c0.9 0.1 1.5 0.1 1.9 0.1s1.1 0 2-0.1 c0.9 0 1.5-0.1 2-0.1s0.7 0.4 0.7 1.1c0 0.8 0 2-0.1 3.6s-0.1 2.8-0.1 3.6c0 3.3 0.2 7.7 0.6 13.3L174.3 53.6z M189.1 54.6 c0 0.5-0.3 0.7-1 0.7c-0.4 0-1 0-1.9-0.1c-0.8-0.1-1.5-0.1-1.9-0.1s-1.1 0-1.9 0.1c-0.8 0.1-1.5 0.1-1.9 0.1c-0.6 0-0.9-0.3-0.9-0.8 c0-2.6 0.1-6.5 0.4-11.7c0.2-5.2 0.4-9.1 0.4-11.7c0-2.5-0.1-6.3-0.4-11.4c-0.2-5.1-0.4-8.9-0.4-11.4c0-0.6 0.3-0.9 0.8-0.9 c0.4 0 1.1 0 2 0.1s1.6 0.1 2 0.1s1 0 1.8-0.1s1.4-0.1 1.8-0.1c0.6 0 0.9 0.2 0.9 0.7c0 2.5-0.1 6.4-0.3 11.5s-0.3 8.9-0.3 11.5 s0.1 6.5 0.3 11.8C189 48.1 189.1 52 189.1 54.6z M227.9 47.6c0.5 0 0.7 0.2 0.7 0.9c0 0.4-0.1 0.9-0.3 1.6 c-0.2 0.9-0.3 1.4-0.4 1.6c-0.1 0.8-0.2 2-0.5 3.6c-0.1 0.4-0.4 0.6-0.9 0.6c-0.2 0-0.7 0-1.3-0.1c-2.8-0.4-7.1-0.6-13-0.6 c-1.7 0-4.2 0-7.5 0.1s-5.8 0.1-7.5 0.1c-0.8 0-1.1-0.3-1.1-1c0-2.5 0.1-6.4 0.4-11.5c0.3-5.1 0.4-8.9 0.4-11.5s-0.1-7.4-0.4-14.5 c0-1.8-0.2-4.5-0.4-8.2V8.2c0-0.5 0.3-0.8 0.9-0.8c1.6 0 4 0 7.2 0.1s5.6 0.1 7.2 0.1c1.5 0 3.8 0 6.8-0.1s5.3-0.1 6.8-0.1 c1.1 0 1.6 0.3 1.7 1c0.5 3 0.7 4.9 0.7 5.6c0 0.5-0.3 0.8-0.8 0.8c-1.9 0-4.9-0.1-8.8-0.3c-3.9-0.2-6.9-0.3-8.9-0.3 c-1.9 0-3 0.3-3.5 0.8s-0.7 1.7-0.7 3.7v5.1c0 1.4 0 2.2 0.1 2.4c0.2 0.7 0.8 1.1 1.8 1.1c0.3 0 0.7 0 1.2 0s0.9 0 1.2 0 c4.5 0 8.5-0.1 12-0.2c1.4 0 3-0.2 4.9-0.3c0.5 0 0.7 0.2 0.7 0.6c0 0.7-0.1 1.8-0.3 3.3c-0.2 1.5-0.3 2.6-0.3 3.4 c0 0.4-0.3 0.6-1 0.6c-0.3 0-1.3-0.1-3-0.2c-1.3-0.1-4.1-0.2-8.6-0.2c-3.8 0-6.1 0-7.1 0.1c-0.9 0.1-1.4 0.5-1.6 1.4 c0-0.2 0 0.7 0 2.6v5c0 2.4 0.4 3.8 1.1 4.4c0.6 0.5 2 0.7 4.3 0.7h3.8c1.6 0 6.1-0.3 13.4-0.8L227.9 47.6L227.9 47.6z M330.5 54.6 c0 0.5-0.3 0.7-1 0.7c-0.4 0-1 0-1.9-0.1c-0.8-0.1-1.5-0.1-1.9-0.1s-1.1 0-1.9 0.1s-1.5 0.1-1.9 0.1c-0.6 0-0.9-0.3-0.9-0.8 c0-2.6 0.1-6.5 0.4-11.7c0.2-5.2 0.4-9.1 0.4-11.7c0-2.5-0.1-6.3-0.4-11.4c-0.2-5.1-0.4-8.9-0.4-11.4c0-0.6 0.3-0.9 0.8-0.9 c0.4 0 1.1 0 2 0.1s1.6 0.1 2 0.1s1 0 1.8-0.1s1.4-0.1 1.8-0.1c0.6 0 0.9 0.2 0.9 0.7c0 2.5-0.1 6.4-0.3 11.5 c-0.2 5.1-0.3 8.9-0.3 11.5s0.1 6.5 0.3 11.8C330.4 48.1 330.5 52 330.5 54.6z M369.1 47.3c0.5 0 0.7 0.2 0.7 0.6 c0 3.2-0.2 5.4-0.5 6.8c-0.2 0.7-0.6 1-1.2 1c-1.7 0-4.2-0.1-7.6-0.3s-5.9-0.3-7.6-0.3c-1.6 0-4 0-7.1 0.1c-3.2 0.1-5.5 0.1-7.1 0.1 c-0.6 0-0.9-0.3-0.9-0.9c0-2.5 0.1-6.2 0.3-11.2c0.2-5 0.3-8.8 0.3-11.3c0-2.6-0.1-6.6-0.4-11.9c-0.2-5.3-0.4-9.2-0.4-11.9 c0-0.5 0.3-0.8 0.9-0.8c0.4 0 1 0 1.9 0.1c0.8 0.1 1.5 0.1 1.9 0.1s1 0 1.9-0.1s1.5-0.1 1.9-0.1c0.5 0 0.8 0.2 0.8 0.6 c0 2.4-0.1 6-0.3 10.9c-0.2 4.8-0.3 8.5-0.3 10.9c0 1.2 0 3 0 5.4s0 4.2 0 5.4c0 5 0.2 7.6 0.6 7.6c8.4 0 14.7-0.2 19-0.6 c0.2 0 0.7-0.1 1.6-0.2C368.4 47.3 368.9 47.3 369.1 47.3L369.1 47.3z"/><path id="top-arrow" fill="#1A801A" d="M268.4 19.8c1.9-2.6 4.4-4.7 7.3-6.2c3-1.5 6.2-2.3 9.6-2.3c5.6 0 10.9 2.2 14.9 6.2 s6.2 9.3 6.2 14.9h-6.7l10.4 10.7l10.6-10.6H314c0-3.9-0.8-7.7-2.3-11.2c-1.4-3.4-3.5-6.5-6.2-9.2c-2.6-2.7-5.7-4.7-9.1-6.2 c-3.5-1.5-7.3-2.3-11.2-2.3c-4.5 0-9.1 1.1-13.1 3.2c-3.6 1.8-6.8 4.5-9.3 7.6l5.3 5.3L268.4 19.8z"/><path id="bottom-arrow-tree" fill="#1A801A" d="M302 45.3L302 45.3c-2 2.5-4.5 4.6-7.3 6c-1.9 1-3.9 1.6-6 2c0-3.5 0-8.1 0-11.4 c2.8 1 5.5 2.1 8.3 3.1c0-2.4-0.1-4.8-0.1-7.2c-0.8-0.6-4.8-1.9-6.2-2.4c-0.7-0.3-1.3-0.4-2-0.7c0-0.6 0-1.5 0-2.2 c2.7 1 5.5 2.1 8.2 3.1c0-2.4 0-4.8 0-7.2c0 0-0.9-0.4-1.9-0.7c-2.1-0.8-4.2-1.6-6.4-2.4c0-0.7 0-1.5 0-2.2c2.7 1 5.5 2.1 8.2 3.1 c0-2.4 0-4.8 0-7.2c-1-0.5-11.1-4.6-11.7-4.6c-0.4 0-11.3 4.5-11.6 4.7c0 2.4 0 4.8 0 7.1c2.8-1.1 5.5-2.1 8.3-3.2 c0 0.7 0 1.4 0 2.2c-2.8 1.1-5.6 2.2-8.4 3.3c0 2.4 0 4.8 0 7.2c2.8-1.1 5.6-2.1 8.4-3.2c0 0.7 0 1.4 0 2.2 c-2.8 1.1-5.6 2.2-8.4 3.2c0 2.4 0 4.8 0 7.3c2.8-1.1 5.6-2.1 8.4-3.2c0 3.3 0 7.9 0 11.4c-4.3-0.7-8.3-2.7-11.5-5.9 c-4-4-6.2-9.3-6.2-14.9h6.7l-10.6-10.6l-10.6 10.6h6.7c0 3.9 0.8 7.7 2.3 11.2c1.4 3.4 3.5 6.5 6.2 9.2c2.6 2.6 5.7 4.7 9.1 6.2 c3.5 1.5 7.3 2.3 11.2 2.3c4.6 0 8.9-1 13-3.1c3.6-1.8 6.7-4.4 9.3-7.5L302 45.3z"/></g></svg>